<svg width="220" height="137" viewBox="0 0 220 137" fill="none" xmlns="http://www.w3.org/2000/svg">
<g clip-path="url(#clip0_603_2669)">
<path opacity="0.2" d="M73.4672 45.07C77.6894 36.6265 84.1801 29.5239 92.2126 24.5574C100.245 19.5908 109.502 16.9564 118.947 16.949C128.393 16.9416 137.654 19.5616 145.694 24.5155C153.734 29.4695 160.235 36.5619 164.471 44.9988M73.7365 90.5346C77.9587 98.9784 84.4493 106.081 92.4819 111.047C100.514 116.014 109.771 118.649 119.216 118.656C128.662 118.663 137.923 116.043 145.964 111.089C154.003 106.135 160.505 99.043 164.74 90.6056" stroke="#FEBE73" stroke-width="2.9677"/>
<path d="M26.0926 49.9465C24.9715 49.981 24.0541 50.1193 23.3407 50.3612C22.6612 50.5685 22.1175 50.8795 21.7099 51.2942C21.3362 51.7089 21.0814 52.2272 20.9455 52.8492C20.8096 53.4367 20.7416 54.1279 20.7416 54.9227V81.2549C20.7416 82.119 20.7246 82.8966 20.6906 83.5873C20.6906 84.3132 20.6567 85.0045 20.5887 85.6607C20.5208 86.283 20.4188 86.9225 20.2829 87.5787C20.147 88.27 19.8922 88.9613 19.5185 89.652C18.805 91.0002 17.9047 92.0369 16.8175 92.7621C15.7303 93.5225 14.6262 94.093 13.505 94.4729C12.3838 94.8534 11.3306 95.0779 10.3453 95.1469C9.36004 95.2505 8.62956 95.3023 8.15394 95.3023C5.63981 95.3023 3.65229 94.8361 2.19137 93.903C0.730458 93.0045 0 91.8469 0 90.4297C0 89.5657 0.25481 88.8405 0.76443 88.2527C1.27406 87.665 1.98752 87.3715 2.90484 87.3715C3.68626 87.3715 4.31479 87.5959 4.79044 88.0455C5.26609 88.4945 5.50391 88.9613 5.50391 89.4448C5.50391 89.8254 5.43596 90.1362 5.30006 90.3779C5.16417 90.6542 5.09622 90.9829 5.09622 91.3628C5.09622 92.0541 5.31705 92.5376 5.75872 92.8145C6.16642 93.1254 6.55715 93.3326 6.93083 93.4362C7.44048 93.5743 8.00103 93.6434 8.61262 93.6434C10.1075 93.6434 11.2627 93.3844 12.078 92.8663C12.8934 92.3477 13.505 91.6391 13.9127 90.7405C14.3203 89.8426 14.5582 88.7887 14.6262 87.5787C14.728 86.3693 14.779 85.0909 14.779 83.7434V54.9227C14.779 54.0587 14.6941 53.3158 14.5242 52.6938C14.3883 52.0718 14.1165 51.5707 13.7088 51.1905C13.3011 50.8104 12.7235 50.5167 11.9761 50.3093C11.2627 50.102 10.3453 49.981 9.22414 49.9465V48.5988H26.0926V49.9465Z" fill="#FEBE73"/>
<path d="M65.9373 65.7563C65.9373 68.037 65.5293 70.2486 64.7139 72.3911C63.9326 74.5337 62.7604 76.4343 61.1976 78.093C59.6348 79.7172 57.6812 81.0305 55.3369 82.0326C52.9927 83.0348 50.2747 83.5355 47.1829 83.5355C43.8195 83.5355 40.9486 82.983 38.5704 81.8772C36.1922 80.7715 34.2386 79.3716 32.7097 77.6783C31.1808 75.9505 30.0597 74.0326 29.3462 71.9246C28.6667 69.7821 28.327 67.7087 28.327 65.7044C28.327 63.4928 28.7007 61.333 29.4481 59.225C30.2296 57.0824 31.3847 55.1819 32.9136 53.5231C34.4425 51.8644 36.362 50.5339 38.6723 49.5318C41.0166 48.4951 43.7685 47.9767 46.9282 47.9767C49.4763 47.9767 51.7186 48.2705 53.6552 48.858C55.5917 49.4454 57.2565 50.2229 58.6495 51.1905C60.0424 52.1582 61.2145 53.2812 62.1658 54.5598C63.1172 55.8039 63.8646 57.0824 64.4082 58.3956C64.9518 59.7088 65.3425 61.0046 65.5805 62.2833C65.8184 63.5619 65.9373 64.7195 65.9373 65.7563ZM59.1591 65.6526C59.1591 63.821 58.9892 61.9723 58.6495 60.1062C58.3437 58.2056 57.7492 56.495 56.8658 54.9745C55.9824 53.4194 54.7593 52.1582 53.1965 51.1905C51.6337 50.2229 49.6292 49.7391 47.1829 49.7391C44.6009 49.7391 42.5115 50.2575 40.9146 51.2942C39.3178 52.2964 38.0947 53.5922 37.2453 55.1819C36.396 56.7369 35.8184 58.4475 35.5127 60.3136C35.2409 62.1796 35.1049 63.9593 35.1049 65.6526C35.1049 66.3437 35.1389 67.2249 35.2069 68.2962C35.2748 69.3674 35.4277 70.5078 35.6655 71.7173C35.9033 72.8922 36.2771 74.0844 36.7867 75.2939C37.3303 76.5034 38.0437 77.5919 38.9271 78.5596C39.8105 79.4926 40.9316 80.2701 42.2906 80.8923C43.6496 81.4794 45.2973 81.7736 47.2339 81.7736C49.1365 81.7736 50.7503 81.4622 52.0753 80.8405C53.4004 80.2183 54.5045 79.4234 55.3879 78.4559C56.2712 77.4883 56.9677 76.3997 57.4774 75.1902C57.9869 73.9808 58.3607 72.7713 58.5985 71.5618C58.8363 70.3523 58.9892 69.2292 59.0572 68.1925C59.1251 67.1558 59.1591 66.3091 59.1591 65.6526Z" fill="#FEBE73"/>
<path d="M96.0588 74.2054C96.0588 75.2075 95.8887 76.1233 95.5491 76.9527C95.2095 77.782 94.7675 78.5077 94.2239 79.1297C93.7142 79.7518 93.1367 80.2701 92.4914 80.6845C91.8455 81.0995 91.2002 81.3931 90.5549 81.5658C89.3993 81.9117 88.0748 82.2226 86.5796 82.4988C85.1189 82.7758 83.7938 82.9139 82.6049 82.9139H65.583V81.8254C66.7041 81.7563 67.588 81.6003 68.2332 81.3586C68.9124 81.1168 69.4394 80.7887 69.8129 80.3737C70.187 79.9245 70.4249 79.4062 70.5266 78.8187C70.6622 78.1967 70.7306 77.5228 70.7306 76.7971V54.3525C70.7306 53.6268 70.6795 52.9875 70.5778 52.4346C70.4755 51.8817 70.2375 51.3979 69.8641 50.9832C69.5245 50.5685 69.0148 50.2402 68.3349 49.9983C67.6557 49.7564 66.7386 49.6182 65.583 49.5836V48.4433L74.1956 48.236C76.0305 48.1668 77.5762 48.1323 78.8335 48.1323C80.1241 48.1323 81.2113 48.1496 82.0952 48.1841C82.9784 48.2186 83.6921 48.2532 84.235 48.2878C84.8132 48.3223 85.3395 48.3742 85.8153 48.4433C88.6689 48.7888 90.8267 49.6873 92.2874 51.1387C93.782 52.5901 94.5296 54.3007 94.5296 56.2704C94.5296 57.2034 94.3602 58.0846 94.0199 58.914C93.7142 59.7434 93.1706 60.5036 92.3891 61.1947C91.6076 61.8859 90.5549 62.5079 89.2298 63.0608C87.9386 63.6137 86.3078 64.0975 84.3374 64.5122C86.5118 64.8578 88.3466 65.3243 89.8412 65.9117C91.3358 66.4992 92.542 67.2076 93.4597 68.037C94.3768 68.8318 95.0393 69.7475 95.4467 70.7843C95.8548 71.821 96.0588 72.9613 96.0588 74.2054ZM88.6184 56.4777C88.6184 55.1645 88.3632 54.0761 87.8535 53.2121C87.3777 52.3482 86.7324 51.6571 85.917 51.1387C85.1355 50.6203 84.235 50.2575 83.2163 50.0502C82.2307 49.8428 81.2113 49.7391 80.1586 49.7391H76.5913V63.8902H78.9352C80.1241 63.8902 81.2113 63.8384 82.1968 63.7346C83.2163 63.5964 84.2184 63.2509 85.2039 62.6979C86.2566 62.1105 87.0893 61.2639 87.7007 60.158C88.3121 59.0177 88.6184 57.7909 88.6184 56.4777ZM89.5867 73.7907C89.5867 73.3069 89.5355 72.754 89.4338 72.132C89.3654 71.51 89.1959 70.8706 88.9241 70.2141C88.6862 69.5575 88.3466 68.9182 87.9047 68.2962C87.4967 67.6396 86.9531 67.0867 86.2739 66.6374C85.5602 66.1537 84.6431 65.8426 83.522 65.7044C82.4348 65.5316 81.3475 65.4452 80.2603 65.4452H76.5913V74.7238C76.5913 75.7604 76.608 76.6935 76.6418 77.5228C76.7096 78.3176 76.897 79.0088 77.2027 79.5962C77.5423 80.1492 78.0687 80.5809 78.7824 80.8923C79.4961 81.2031 80.4982 81.3586 81.7895 81.3586C82.1969 81.3586 82.8255 81.3068 83.6748 81.2031C84.558 81.0995 85.4246 80.806 86.2739 80.3219C87.1571 79.8381 87.9213 79.0952 88.5673 78.093C89.2464 77.0563 89.5867 75.6222 89.5867 73.7907Z" fill="#FEBE73"/>
<path d="M100.177 82.9139V81.5658C101.332 81.5312 102.267 81.3931 102.98 81.1513C103.694 80.9096 104.254 80.5809 104.662 80.1665C105.07 79.7518 105.342 79.2507 105.477 78.6632C105.613 78.0412 105.681 77.3328 105.681 76.538V54.9745C105.681 54.2143 105.613 53.5404 105.477 52.9529C105.342 52.3309 105.07 51.8125 104.662 51.3979C104.288 50.9832 103.745 50.6549 103.031 50.413C102.318 50.1365 101.366 49.981 100.177 49.9465V48.5988H117.097V49.9465C115.941 49.981 115.008 50.1193 114.294 50.3612C113.58 50.6031 113.02 50.9313 112.612 51.346C112.204 51.7607 111.933 52.2791 111.796 52.9011C111.661 53.4886 111.593 54.1797 111.593 54.9745V76.538C111.593 77.2982 111.661 77.9721 111.796 78.5596C111.933 79.147 112.187 79.6654 112.561 80.1147C112.969 80.5291 113.53 80.8578 114.243 81.0995C114.956 81.3413 115.907 81.4967 117.097 81.5658V82.9139H100.177Z" fill="#7F6134"/>
<path d="M144.791 73.376C144.791 74.4128 144.571 75.5358 144.129 76.7453C143.688 77.9202 143.008 79.026 142.091 80.0629C141.207 81.065 140.086 81.8945 138.727 82.5506C137.402 83.2074 135.839 83.5355 134.038 83.5355C133.189 83.5355 132.306 83.4319 131.389 83.2247C130.505 83.052 129.605 82.7585 128.687 82.3434C127.77 81.8945 126.853 81.3068 125.935 80.5809C125.052 79.8555 124.186 78.957 123.336 77.8857C123.031 78.5768 122.742 79.2852 122.47 80.011C122.232 80.7369 122.028 81.4794 121.858 82.2398H120.839V71.5618H121.909C122.283 72.5294 122.776 73.6006 123.387 74.7756C124.033 75.9505 124.814 77.0391 125.731 78.0412C126.683 79.0088 127.77 79.8381 128.993 80.5291C130.25 81.1859 131.677 81.514 133.274 81.514C135.482 81.514 137.096 81.0132 138.115 80.011C139.169 79.0088 139.696 77.7475 139.696 76.227C139.696 74.6374 139.202 73.3587 138.218 72.3911C137.232 71.4236 135.822 70.4559 133.988 69.4884C133.885 69.4193 133.631 69.2983 133.223 69.1255C132.815 68.9182 132.357 68.7109 131.847 68.5035C131.337 68.2616 130.845 68.0197 130.369 67.7778C129.893 67.5359 129.537 67.3632 129.299 67.2594C127.294 66.3264 125.715 65.4107 124.56 64.5122C123.439 63.6137 122.589 62.7498 122.011 61.9204C121.468 61.0565 121.128 60.2444 120.992 59.4842C120.89 58.6893 120.839 57.9464 120.839 57.2552C120.839 56.0458 121.077 54.8881 121.553 53.7823C122.062 52.6419 122.759 51.6571 123.642 50.8277C124.526 49.9638 125.578 49.2726 126.802 48.7543C128.059 48.236 129.435 47.9767 130.929 47.9767C132.492 47.9767 134.004 48.3569 135.466 49.1171C136.96 49.8774 138.455 51.1387 139.95 52.9011C140.324 52.0718 140.561 51.3806 140.664 50.8277C140.799 50.2748 140.952 49.6873 141.122 49.0653H142.243V58.0328H141.071C140.867 57.4453 140.51 56.685 140.001 55.752C139.525 54.819 138.897 53.9205 138.115 53.0566C137.334 52.1582 136.383 51.3979 135.262 50.7759C134.141 50.1193 132.832 49.791 131.337 49.791C130.556 49.791 129.792 49.8774 129.044 50.0502C128.296 50.2229 127.634 50.5167 127.056 50.9313C126.513 51.3115 126.072 51.8126 125.731 52.4346C125.392 53.022 125.222 53.7477 125.222 54.6117C125.222 55.6138 125.443 56.4777 125.885 57.2034C126.326 57.8946 126.937 58.5339 127.719 59.1213C128.433 59.6742 129.316 60.2098 130.369 60.7282C130.879 61.0046 131.405 61.2811 131.949 61.5576C132.492 61.8341 133.087 62.1105 133.732 62.3869C135.262 63.1126 136.688 63.821 138.014 64.5122C139.373 65.2033 140.545 65.9809 141.53 66.8448C142.549 67.6742 143.347 68.6245 143.925 69.6957C144.503 70.7324 144.791 71.9592 144.791 73.376Z" fill="#7F6134"/>
<path d="M180.913 57.6181C180.675 55.8212 180.267 54.4389 179.689 53.4713C179.112 52.5037 178.467 51.7953 177.753 51.346C177.04 50.8623 176.292 50.5858 175.511 50.5167C174.763 50.413 174.101 50.3612 173.523 50.3612H168.783V76.538C168.783 77.2637 168.835 77.9202 168.936 78.5077C169.039 79.0952 169.259 79.6135 169.599 80.0629C169.973 80.5118 170.499 80.8578 171.179 81.0995C171.858 81.3413 172.759 81.4967 173.88 81.5658V82.9139H157.776V81.5658C158.863 81.4967 159.746 81.3585 160.426 81.1513C161.105 80.9096 161.615 80.5809 161.955 80.1665C162.329 79.7172 162.567 79.1988 162.668 78.6114C162.804 77.9893 162.872 77.2982 162.872 76.538V50.3612H158.846C158.065 50.3612 157.232 50.413 156.349 50.5167C155.466 50.5858 154.633 50.8449 153.852 51.2942C153.071 51.7434 152.391 52.4692 151.813 53.4713C151.27 54.4389 150.913 55.8212 150.743 57.6181H149.673V48.5988H181.983V57.6181H180.913Z" fill="#FEBE73"/>
<path d="M220 65.7563C220 68.037 219.593 70.2486 218.777 72.3911C217.996 74.5337 216.823 76.4343 215.26 78.093C213.697 79.7172 211.744 81.0305 209.4 82.0326C207.056 83.0348 204.338 83.5355 201.246 83.5355C197.882 83.5355 195.011 82.983 192.633 81.8772C190.255 80.7715 188.301 79.3716 186.773 77.6783C185.244 75.9505 184.123 74.0326 183.409 71.9246C182.73 69.7821 182.39 67.7087 182.39 65.7044C182.39 63.4928 182.764 61.333 183.511 59.225C184.292 57.0824 185.448 55.1819 186.976 53.5231C188.506 51.8644 190.425 50.5339 192.735 49.5318C195.079 48.4951 197.831 47.9767 200.991 47.9767C203.539 47.9767 205.782 48.2705 207.718 48.858C209.655 49.4454 211.32 50.2229 212.713 51.1905C214.105 52.1582 215.278 53.2812 216.229 54.5598C217.18 55.8039 217.927 57.0824 218.471 58.3956C219.015 59.7088 219.405 61.0046 219.643 62.2833C219.881 63.5619 220 64.7195 220 65.7563ZM213.222 65.6526C213.222 63.821 213.052 61.9723 212.713 60.1062C212.407 58.2056 211.812 56.495 210.929 54.9745C210.046 53.4194 208.822 52.1582 207.259 51.1905C205.697 50.2229 203.692 49.7391 201.246 49.7391C198.664 49.7391 196.575 50.2575 194.978 51.2942C193.381 52.2964 192.158 53.5922 191.309 55.1819C190.459 56.7369 189.881 58.4475 189.575 60.3136C189.304 62.1796 189.168 63.9593 189.168 65.6526C189.168 66.3437 189.202 67.2249 189.27 68.2962C189.338 69.3674 189.49 70.5078 189.728 71.7173C189.966 72.8922 190.34 74.0844 190.849 75.2939C191.393 76.5034 192.107 77.5919 192.99 78.5596C193.874 79.4926 194.995 80.2701 196.354 80.8923C197.713 81.4794 199.36 81.7736 201.297 81.7736C203.199 81.7736 204.813 81.4622 206.138 80.8405C207.463 80.2183 208.568 79.4234 209.451 78.4559C210.334 77.4883 211.031 76.3997 211.54 75.1902C212.05 73.9808 212.423 72.7713 212.661 71.5618C212.899 70.3523 213.052 69.2292 213.12 68.1925C213.188 67.1558 213.222 66.3091 213.222 65.6526Z" fill="#FEBE73"/>
<path d="M79.3202 18.7439C79.6672 19.1471 79.9307 19.5607 80.1106 19.9845C80.2846 20.4013 80.3962 20.81 80.4455 21.2108C80.4959 21.5985 80.491 21.972 80.431 22.3315C80.3709 22.691 80.2743 23.0081 80.1412 23.2827C79.8589 23.8704 79.5303 24.3686 79.1555 24.7773C78.7807 25.1859 78.42 25.5394 78.0733 25.8377L74.9957 28.4858L74.7766 28.2311C74.9969 28.0292 75.1565 27.8426 75.2554 27.6714C75.3613 27.494 75.4167 27.3294 75.4215 27.1775C75.4262 27.0257 75.391 26.8774 75.3158 26.7328C75.2346 26.5811 75.1239 26.4239 74.9839 26.2612L71.1123 21.7616C70.9783 21.6059 70.8455 21.4801 70.7137 21.3842C70.5829 21.2751 70.4385 21.2147 70.2806 21.2028C70.1297 21.1849 69.9622 21.212 69.7781 21.2843C69.5879 21.3494 69.373 21.4789 69.1335 21.6727L68.9234 21.4286L70.3181 20.1732C70.3676 20.1306 70.4525 20.0575 70.5728 19.9541C70.6941 19.8374 70.8254 19.7182 70.9669 19.5964C71.1084 19.4747 71.2428 19.359 71.3702 19.2495C71.4915 19.1328 71.5768 19.0532 71.6264 19.0106C72.1994 18.5175 72.7044 18.1384 73.1412 17.8734C73.5851 17.6022 74.0377 17.3913 74.4991 17.2406C74.927 17.094 75.3592 17.0238 75.7955 17.0301C76.2318 17.0364 76.6632 17.1084 77.0897 17.2463C77.51 17.3771 77.9093 17.5692 78.2874 17.8226C78.6654 18.076 79.0097 18.3831 79.3202 18.7439ZM77.9011 19.928C77.201 19.1144 76.4696 18.5863 75.7069 18.3438C74.9441 18.1013 74.2162 18.0996 73.5232 18.3388C73.3533 18.3989 73.1995 18.4634 73.062 18.5325C72.9244 18.6016 72.7788 18.69 72.6251 18.7976C72.4785 18.8991 72.3168 19.026 72.1399 19.1781C71.957 19.3233 71.7382 19.5054 71.4835 19.7245L75.9669 24.9352C76.1313 25.1262 76.2804 25.2995 76.4143 25.4552C76.5493 25.5976 76.6907 25.6976 76.8386 25.755C76.9865 25.8124 77.152 25.8116 77.3351 25.7526C77.5253 25.6874 77.7584 25.5361 78.0343 25.2987C78.5649 24.8422 78.9052 24.3647 79.0551 23.8663C79.212 23.3619 79.2486 22.8749 79.1647 22.4053C79.0817 21.9226 78.9174 21.4668 78.6716 21.0381C78.4258 20.6093 78.169 20.2393 77.9011 19.928Z" fill="#FEBE73"/>
<path d="M94.7455 9.99618C95.0134 10.5509 95.1724 11.1374 95.2224 11.7559C95.2808 12.3704 95.2141 12.9727 95.0224 13.5628C94.8266 14.1445 94.4976 14.6973 94.0355 15.2212C93.5733 15.745 92.9598 16.1916 92.1951 16.5611C91.3631 16.963 90.5879 17.1716 89.8697 17.1868C89.1515 17.202 88.5039 17.0951 87.9268 16.866C87.3456 16.6285 86.843 16.296 86.4188 15.8686C85.999 15.4287 85.6714 14.9651 85.436 14.4776C85.1761 13.9398 85.0149 13.3699 84.9521 12.7679C84.8937 12.1535 84.9562 11.5532 85.1395 10.9671C85.3228 10.381 85.6413 9.82811 86.0951 9.30833C86.5532 8.77608 87.173 8.32119 87.9546 7.94364C88.5849 7.63916 89.1741 7.44266 89.7222 7.35413C90.2702 7.2656 90.7734 7.25577 91.2316 7.32464C91.6899 7.39351 92.1117 7.52658 92.4973 7.72387C92.8787 7.91274 93.2138 8.13438 93.5026 8.38878C93.7913 8.64318 94.0402 8.91166 94.2492 9.1942C94.4583 9.47674 94.6237 9.74406 94.7455 9.99618ZM93.0567 10.7809C92.8415 10.3355 92.5823 9.90614 92.279 9.49291C91.9801 9.06722 91.6321 8.72226 91.2349 8.45803C90.8337 8.18539 90.383 8.02479 89.8827 7.97621C89.3825 7.92764 88.8298 8.0495 88.2247 8.3418C87.586 8.65034 87.13 9.02607 86.8568 9.469C86.5796 9.90353 86.4292 10.3648 86.4059 10.8529C86.3785 11.3326 86.4365 11.8176 86.5801 12.308C86.7321 12.7943 86.9076 13.2433 87.1065 13.6551C87.1877 13.8232 87.2996 14.0335 87.4423 14.2859C87.5849 14.5383 87.7567 14.7973 87.9576 15.0631C88.1545 15.3204 88.387 15.5657 88.6552 15.7989C88.9317 16.0281 89.2361 16.2076 89.5683 16.3374C89.8964 16.4587 90.2651 16.5139 90.6743 16.5027C91.0795 16.4832 91.5216 16.3578 92.0006 16.1264C92.4713 15.899 92.8339 15.6306 93.0886 15.321C93.3433 15.0114 93.5231 14.6861 93.6279 14.3452C93.7327 14.0044 93.7771 13.6564 93.7611 13.3014C93.7451 12.9463 93.6954 12.6075 93.6122 12.285C93.5289 11.9624 93.4348 11.671 93.3298 11.4108C93.2248 11.1505 93.1338 10.9406 93.0567 10.7809Z" fill="#FEBE73"/>
<path d="M118.797 10.1475L118.786 9.78367C119.065 9.75617 119.287 9.70712 119.453 9.63651C119.619 9.56591 119.742 9.47331 119.823 9.35871C119.912 9.23449 119.968 9.09265 119.991 8.93318C120.014 8.76438 120.022 8.58202 120.016 8.38612L119.81 1.86537L116.544 10.2187L116.208 10.2293L112.206 1.90949L112.408 8.3183C112.416 8.57017 112.428 8.79858 112.444 9.00351C112.469 9.19883 112.521 9.36527 112.6 9.50284C112.688 9.64012 112.818 9.74809 112.988 9.82674C113.168 9.89577 113.416 9.93461 113.734 9.94324L113.746 10.3071L110.821 10.3994L110.81 10.0356C111.117 10.0072 111.349 9.95324 111.505 9.8736C111.67 9.78433 111.783 9.66871 111.844 9.52671C111.914 9.3751 111.946 9.20134 111.94 9.00543C111.943 8.80924 111.94 8.5852 111.932 8.33333L111.768 3.11393C111.759 2.85273 111.747 2.62432 111.732 2.42871C111.726 2.23281 111.683 2.06608 111.604 1.9285C111.534 1.79063 111.419 1.68689 111.258 1.61727C111.097 1.53832 110.857 1.49919 110.54 1.49988L110.528 1.13607L113.509 1.04191L116.854 8.0378L119.68 0.846977L122.618 0.75415L122.63 1.11797C122.35 1.13614 122.128 1.18519 121.962 1.26512C121.796 1.33573 121.673 1.42833 121.593 1.54293C121.512 1.65752 121.461 1.79922 121.438 1.96802C121.415 2.12749 121.407 2.30984 121.413 2.51508L121.597 8.33617C121.603 8.53207 121.618 8.70902 121.642 8.86702C121.675 9.02473 121.735 9.16289 121.823 9.28151C121.911 9.3908 122.04 9.48011 122.21 9.54943C122.38 9.60943 122.61 9.64419 122.9 9.65371L122.911 10.0175L118.797 10.1475Z" fill="#FEBE73"/>
<path d="M139.968 8.69643C139.819 9.29408 139.566 9.84647 139.208 10.3536C138.86 10.863 138.423 11.283 137.898 11.6137C137.375 11.9352 136.768 12.1493 136.078 12.2559C135.388 12.3624 134.63 12.3128 133.806 12.107C132.91 11.8831 132.181 11.5471 131.619 11.0991C131.058 10.651 130.629 10.1542 130.332 9.60876C130.038 9.05423 129.864 8.47704 129.812 7.87718C129.771 7.27053 129.816 6.7046 129.948 6.1794C130.092 5.59986 130.333 5.05879 130.67 4.55617C131.019 4.04676 131.451 3.62562 131.967 3.29273C132.483 2.95985 133.082 2.739 133.763 2.63018C134.456 2.51456 135.223 2.56192 136.065 2.77223C136.745 2.94184 137.323 3.16807 137.801 3.45091C138.278 3.73376 138.671 4.04831 138.979 4.39458C139.287 4.74084 139.526 5.11316 139.696 5.51152C139.868 5.90083 139.984 6.28563 140.043 6.66591C140.101 7.04619 140.121 7.41177 140.101 7.76264C140.08 8.11351 140.036 8.42478 139.968 8.69643ZM138.169 8.2181C138.288 7.73818 138.364 7.24242 138.396 6.73082C138.439 6.21243 138.392 5.72462 138.256 5.26739C138.122 4.80111 137.879 4.38918 137.526 4.03161C137.173 3.67404 136.67 3.41384 136.018 3.25101C135.33 3.07914 134.739 3.07588 134.246 3.24125C133.754 3.39756 133.344 3.65572 133.013 4.01572C132.685 4.36667 132.419 4.77646 132.216 5.24509C132.021 5.71598 131.868 6.17327 131.758 6.61698C131.712 6.79808 131.664 7.03125 131.612 7.31649C131.56 7.60172 131.526 7.91072 131.51 8.24348C131.497 8.56719 131.518 8.90447 131.575 9.25533C131.641 9.60844 131.759 9.94117 131.932 10.2535C132.106 10.5568 132.354 10.8352 132.675 11.0886C132.999 11.333 133.419 11.5197 133.935 11.6486C134.442 11.7752 134.893 11.8011 135.287 11.7264C135.681 11.6516 136.027 11.5168 136.326 11.322C136.624 11.1273 136.881 10.8884 137.096 10.6054C137.311 10.3224 137.49 10.0303 137.632 9.72923C137.775 9.42813 137.889 9.14401 137.975 8.87688C138.061 8.60974 138.126 8.39015 138.169 8.2181Z" fill="#FEBE73"/>
<path d="M150.267 18.562C150.245 18.3274 150.234 18.0346 150.233 17.6838C150.245 17.3292 150.247 16.9638 150.239 16.5877L150.219 15.3341C150.213 15.0123 150.193 14.736 150.159 14.5052C150.138 14.2706 150.09 14.0643 150.017 13.8864C149.952 13.713 149.851 13.5572 149.713 13.4189C149.584 13.2851 149.409 13.158 149.187 13.0378L148.757 12.804L147.508 15.1048C147.414 15.2771 147.338 15.4374 147.278 15.5857C147.227 15.7385 147.21 15.8883 147.226 16.035C147.25 16.1862 147.32 16.3305 147.437 16.4681C147.553 16.6057 147.734 16.7517 147.979 16.9061L147.806 17.226L144.25 15.2956L144.424 14.9757C144.679 15.0929 144.889 15.1648 145.055 15.1912C145.226 15.2095 145.371 15.1873 145.49 15.1245C145.622 15.0579 145.733 14.9594 145.826 14.8288C145.93 14.6945 146.032 14.5372 146.13 14.3567L148.922 9.21373C149.02 9.03327 149.098 8.86887 149.158 8.72052C149.217 8.57217 149.236 8.42875 149.216 8.29024C149.208 8.14798 149.15 8.01029 149.042 7.87717C148.938 7.73585 148.761 7.59207 148.512 7.44582L148.692 7.11362C149.264 7.37096 149.814 7.63803 150.344 7.91482C150.881 8.19607 151.402 8.47884 151.906 8.76313C152.246 8.95836 152.576 9.16367 152.894 9.37906C153.221 9.5989 153.485 9.80619 153.688 10.001C153.853 10.1652 154.001 10.3519 154.132 10.561C154.271 10.7745 154.37 11.0033 154.429 11.2475C154.487 11.4917 154.501 11.7491 154.471 12.0195C154.45 12.2944 154.361 12.5754 154.205 12.8625C154.107 13.043 153.974 13.2201 153.805 13.394C153.649 13.5642 153.448 13.6994 153.202 13.7997C152.957 13.9 152.659 13.9505 152.308 13.9512C151.965 13.9563 151.562 13.8864 151.099 13.7413C151.371 13.9843 151.548 14.2451 151.631 14.5235C151.718 14.7937 151.77 15.0398 151.787 15.2617C151.809 15.4963 151.814 15.7596 151.805 16.0516C151.795 16.3436 151.801 16.703 151.825 17.1298C151.845 17.5022 151.868 17.812 151.893 18.0593C151.923 18.2983 151.962 18.5001 152.011 18.6646C152.06 18.8292 152.124 18.965 152.204 19.0721C152.284 19.1792 152.387 19.2829 152.513 19.3832L152.346 19.6908L150.267 18.562ZM152.729 12.061C152.991 11.577 153.079 11.1415 152.992 10.7543C152.913 10.3716 152.748 10.0591 152.497 9.81672C152.283 9.60485 152.039 9.41911 151.764 9.2595C151.503 9.09615 151.226 8.94064 150.934 8.79299L148.991 12.3734L149.495 12.6472C149.593 12.7007 149.706 12.7567 149.834 12.8153C149.966 12.8657 150.098 12.9161 150.23 12.9665C150.362 13.0169 150.488 13.0587 150.608 13.092C150.732 13.1171 150.84 13.1332 150.932 13.1405C151.065 13.1492 151.207 13.1414 151.359 13.1173C151.522 13.0894 151.683 13.0385 151.84 12.9644C152.001 12.8821 152.157 12.7705 152.308 12.6294C152.464 12.4801 152.604 12.2906 152.729 12.061Z" fill="#FEBE73"/>
<path d="M162.968 28.2838L156.856 22.854L157.079 22.6028C157.321 22.7934 157.531 22.9231 157.707 22.9921C157.89 23.0672 158.057 23.097 158.208 23.0814C158.359 23.0659 158.498 23.0081 158.624 22.9081C158.763 22.8073 158.901 22.6801 159.038 22.5266L162.971 18.0991C163.101 17.9526 163.208 17.8107 163.293 17.6735C163.377 17.5363 163.418 17.3917 163.416 17.2398C163.426 17.0871 163.387 16.9209 163.297 16.7411C163.207 16.5613 163.046 16.3625 162.815 16.1448L163.011 15.925L168.736 21.0108L167.434 22.6448L167.215 22.4495C167.403 22.0549 167.512 21.7212 167.542 21.4484C167.585 21.1747 167.564 20.9314 167.479 20.7183C167.401 20.5113 167.274 20.3238 167.099 20.1557C166.93 19.9805 166.733 19.7938 166.51 19.5955L165.003 18.2566L162.493 21.0826L163.393 21.8822C163.588 22.0558 163.758 22.1879 163.902 22.2785C164.059 22.3684 164.208 22.4191 164.347 22.4307C164.493 22.4353 164.637 22.4004 164.778 22.3259C164.925 22.2445 165.089 22.1223 165.272 21.9595L165.502 22.1641L163.652 24.2469L163.442 24.061C163.589 23.854 163.69 23.6695 163.747 23.5075C163.81 23.3517 163.824 23.2021 163.79 23.0587C163.762 22.9215 163.691 22.7836 163.577 22.6449C163.463 22.5062 163.315 22.3562 163.134 22.1951L162.223 21.3862L160.577 23.2388C160.36 23.483 160.184 23.695 160.05 23.8749C159.915 24.0548 159.839 24.2311 159.823 24.404C159.807 24.5768 159.857 24.759 159.974 24.9504C160.105 25.141 160.316 25.3665 160.609 25.6268L161.112 26.0731C161.23 26.1785 161.39 26.3079 161.591 26.4613C161.792 26.6147 162.036 26.7258 162.325 26.7947C162.619 26.8566 162.956 26.8433 163.334 26.7549C163.712 26.6664 164.141 26.436 164.622 26.0638L164.842 26.2591L162.968 28.2838Z" fill="#FEBE73"/>
<path d="M82.6987 122.214C82.5192 122.416 82.3203 122.571 82.1019 122.676C81.8835 122.782 81.6627 122.848 81.4395 122.875C81.2233 122.908 81.0117 122.908 80.8047 122.874C80.5977 122.84 80.4124 122.782 80.2487 122.699C79.9493 122.559 79.6211 122.38 79.2642 122.164C78.9143 121.953 78.6171 121.74 78.3726 121.523L74.8726 118.422L75.0676 118.202C75.3105 118.393 75.52 118.522 75.696 118.591C75.8791 118.666 76.0461 118.695 76.1973 118.68C76.3546 118.657 76.4963 118.595 76.6225 118.495C76.7618 118.394 76.8965 118.27 77.0265 118.124L81.0464 113.586C81.1764 113.44 81.2804 113.301 81.3585 113.171C81.4365 113.04 81.4743 112.899 81.4717 112.747C81.4761 112.602 81.4301 112.442 81.3337 112.27C81.2373 112.097 81.0735 111.902 80.8421 111.684L81.0464 111.454L82.8545 112.981C83.2441 113.301 83.5682 113.576 83.8266 113.805C84.0921 114.04 84.3126 114.242 84.488 114.41C84.6635 114.577 84.804 114.714 84.9096 114.82C85.0221 114.933 85.1211 115.039 85.2066 115.14C85.7315 115.729 86.0142 116.304 86.0546 116.864C86.1021 117.429 85.9494 117.911 85.5966 118.31C85.4295 118.498 85.2367 118.645 85.0183 118.751C84.8069 118.863 84.559 118.918 84.2745 118.915C83.99 118.912 83.6621 118.846 83.2906 118.717C82.9261 118.593 82.5041 118.394 82.0247 118.119C82.4099 118.585 82.7035 119.013 82.9057 119.405C83.1079 119.796 83.229 120.159 83.2691 120.493C83.3154 120.821 83.2876 121.127 83.1857 121.411C83.0839 121.695 82.9215 121.962 82.6987 122.214ZM84.3439 117.275C84.5791 117.009 84.7216 116.743 84.7716 116.475C84.8285 116.214 84.8196 115.956 84.7448 115.703C84.6769 115.456 84.5568 115.219 84.3843 114.991C84.2189 114.77 84.0279 114.563 83.8113 114.371L83.0778 113.721L80.5433 116.582L81.0253 117.009C81.2698 117.226 81.5026 117.413 81.7238 117.572C81.9581 117.73 82.2261 117.842 82.5277 117.91C82.8495 117.983 83.1723 117.964 83.4961 117.851C83.8261 117.732 84.1087 117.54 84.3439 117.275ZM81.4422 120.951C81.5288 120.853 81.6174 120.732 81.7078 120.588C81.8053 120.45 81.8848 120.289 81.9465 120.107C82.0152 119.931 82.0599 119.74 82.0805 119.534C82.1142 119.327 82.1015 119.116 82.0422 118.901C81.9822 118.674 81.8492 118.444 81.6435 118.211C81.4509 117.978 81.2428 117.763 81.0192 117.565L80.2647 116.896L78.6029 118.772C78.4172 118.982 78.2536 119.173 78.1121 119.347C77.9837 119.52 77.8983 119.694 77.856 119.869C77.8268 120.042 77.8577 120.225 77.9487 120.418C78.0397 120.611 78.218 120.825 78.4834 121.06C78.5673 121.135 78.7058 121.239 78.899 121.372C79.0992 121.512 79.33 121.611 79.5913 121.668C79.8595 121.731 80.1498 121.72 80.462 121.635C80.7874 121.549 81.1141 121.321 81.4422 120.951Z" fill="#FEBE73"/>
<path d="M93.2089 131.242L86.0014 127.382L86.16 127.086C86.4404 127.215 86.6741 127.292 86.8613 127.319C87.0567 127.349 87.2261 127.339 87.3695 127.289C87.5128 127.239 87.6343 127.15 87.7339 127.024C87.8461 126.893 87.9507 126.737 88.0476 126.556L90.8434 121.336C90.9359 121.163 91.0073 121 91.0575 120.847C91.1077 120.694 91.114 120.544 91.0764 120.397C91.0514 120.246 90.9743 120.093 90.845 119.939C90.7157 119.785 90.5133 119.629 90.238 119.471L90.3768 119.212L97.1277 122.827L96.2416 124.719L95.9824 124.58C96.0738 124.153 96.1024 123.803 96.0682 123.53C96.0468 123.254 95.9697 123.022 95.8372 122.835C95.7129 122.652 95.546 122.499 95.3364 122.376C95.1313 122.245 94.8971 122.109 94.6339 121.968L92.8567 121.016L91.0721 124.349L92.1335 124.917C92.3639 125.04 92.5597 125.129 92.7211 125.184C92.895 125.235 93.0512 125.25 93.1896 125.229C93.3324 125.199 93.4637 125.132 93.5836 125.027C93.7078 124.913 93.8396 124.756 93.9788 124.555L94.2504 124.701L92.9351 127.157L92.6883 127.025C92.7825 126.789 92.8383 126.586 92.8557 126.416C92.8812 126.249 92.8603 126.1 92.793 125.969C92.7339 125.842 92.6328 125.724 92.4897 125.616C92.3466 125.508 92.1681 125.396 91.9542 125.282L90.8805 124.707L89.7106 126.891C89.5564 127.179 89.4346 127.426 89.3453 127.632C89.256 127.839 89.2236 128.028 89.248 128.2C89.2724 128.372 89.3638 128.537 89.5222 128.696C89.6933 128.851 89.9516 129.021 90.2971 129.206L90.8895 129.523C91.0294 129.598 91.2148 129.687 91.4458 129.79C91.6767 129.892 91.9405 129.943 92.2369 129.943C92.5378 129.935 92.8619 129.844 93.2092 129.67C93.5564 129.496 93.9204 129.172 94.3012 128.698L94.5603 128.837L93.2089 131.242Z" fill="#FEBE73"/>
<path d="M115.901 136.675L115.928 136.312C116.208 136.314 116.435 136.289 116.607 136.237C116.78 136.184 116.912 136.105 117.004 136C117.106 135.886 117.177 135.751 117.217 135.595C117.258 135.429 117.285 135.249 117.3 135.053L117.789 128.548L113.653 136.506L113.318 136.481L110.223 127.783L109.743 134.177C109.724 134.428 109.711 134.656 109.705 134.862C109.709 135.059 109.743 135.23 109.807 135.375C109.88 135.521 109.997 135.642 110.159 135.738C110.33 135.826 110.573 135.891 110.888 135.933L110.861 136.296L107.943 136.077L107.97 135.714C108.279 135.719 108.515 135.69 108.679 135.627C108.853 135.556 108.977 135.453 109.053 135.318C109.139 135.175 109.189 135.005 109.204 134.81C109.228 134.615 109.249 134.392 109.268 134.141L109.659 128.934C109.679 128.673 109.691 128.445 109.697 128.248C109.711 128.053 109.687 127.883 109.623 127.737C109.568 127.593 109.464 127.478 109.312 127.391C109.16 127.296 108.926 127.231 108.61 127.198L108.637 126.835L111.611 127.059L114.192 134.371L117.768 127.521L120.699 127.741L120.672 128.104C120.392 128.093 120.166 128.118 119.993 128.18C119.82 128.232 119.688 128.311 119.596 128.417C119.504 128.522 119.437 128.657 119.397 128.823C119.357 128.979 119.329 129.159 119.314 129.364L118.878 135.172C118.863 135.367 118.859 135.545 118.866 135.704C118.882 135.865 118.927 136.009 119.002 136.136C119.077 136.254 119.196 136.356 119.358 136.443C119.52 136.521 119.745 136.58 120.032 136.62L120.005 136.983L115.901 136.675Z" fill="#FEBE73"/>
<path d="M135.995 129.706C136.128 130.308 136.147 130.915 136.052 131.529C135.967 132.14 135.763 132.71 135.44 133.24C135.115 133.761 134.667 134.223 134.096 134.626C133.526 135.028 132.826 135.321 131.996 135.504C131.094 135.702 130.291 135.726 129.589 135.575C128.887 135.423 128.281 135.17 127.773 134.813C127.262 134.448 126.85 134.008 126.536 133.494C126.23 132.969 126.018 132.442 125.902 131.914C125.773 131.33 125.748 130.739 125.826 130.138C125.912 129.527 126.111 128.958 126.425 128.43C126.739 127.902 127.177 127.438 127.738 127.037C128.307 126.625 129.015 126.326 129.863 126.139C130.547 125.989 131.165 125.934 131.719 125.974C132.273 126.015 132.765 126.122 133.194 126.295C133.624 126.468 134.004 126.695 134.333 126.976C134.661 127.248 134.936 127.541 135.158 127.855C135.38 128.169 135.56 128.488 135.698 128.811C135.836 129.135 135.935 129.433 135.995 129.706ZM134.171 130.079C134.064 129.596 133.912 129.118 133.712 128.646C133.52 128.163 133.261 127.747 132.936 127.398C132.608 127.04 132.207 126.78 131.731 126.617C131.256 126.454 130.69 126.445 130.034 126.589C129.341 126.741 128.811 127.002 128.442 127.369C128.072 127.728 127.819 128.142 127.684 128.612C127.546 129.072 127.49 129.557 127.517 130.067C127.552 130.576 127.619 131.053 127.717 131.5C127.757 131.682 127.818 131.913 127.898 132.191C127.979 132.47 128.086 132.761 128.22 133.066C128.352 133.362 128.521 133.655 128.728 133.944C128.944 134.231 129.199 134.476 129.492 134.679C129.783 134.872 130.129 135.011 130.53 135.095C130.929 135.17 131.388 135.15 131.907 135.036C132.418 134.923 132.833 134.746 133.152 134.504C133.472 134.261 133.722 133.986 133.902 133.679C134.083 133.372 134.207 133.043 134.273 132.694C134.34 132.345 134.37 132.004 134.364 131.671C134.357 131.338 134.333 131.033 134.291 130.755C134.249 130.478 134.209 130.252 134.171 130.079Z" fill="#FEBE73"/>
<path d="M149.332 128.758C149.125 128.645 148.875 128.492 148.584 128.297C148.296 128.09 147.993 127.885 147.676 127.682L146.623 127.002C146.352 126.827 146.112 126.69 145.901 126.59C145.694 126.477 145.497 126.402 145.308 126.364C145.128 126.321 144.942 126.319 144.75 126.356C144.567 126.389 144.364 126.464 144.141 126.581L143.707 126.809L144.924 129.127C145.015 129.3 145.106 129.453 145.196 129.585C145.295 129.712 145.409 129.81 145.54 129.879C145.679 129.943 145.838 129.964 146.017 129.944C146.196 129.924 146.418 129.855 146.683 129.737L146.852 130.059L143.27 131.94L143.101 131.617C143.34 131.471 143.517 131.336 143.631 131.212C143.741 131.081 143.803 130.948 143.818 130.814C143.835 130.668 143.816 130.52 143.759 130.371C143.705 130.209 143.631 130.037 143.536 129.855L140.816 124.674C140.721 124.492 140.628 124.335 140.537 124.203C140.447 124.071 140.339 123.975 140.212 123.915C140.09 123.843 139.943 123.814 139.772 123.83C139.597 123.838 139.379 123.905 139.119 124.031L138.943 123.696C139.475 123.364 140.003 123.055 140.528 122.769C141.061 122.479 141.586 122.204 142.102 121.943C142.454 121.769 142.808 121.61 143.164 121.465C143.528 121.316 143.848 121.212 144.122 121.152C144.351 121.106 144.588 121.086 144.835 121.094C145.089 121.097 145.335 121.143 145.57 121.23C145.806 121.317 146.027 121.448 146.235 121.624C146.452 121.795 146.636 122.025 146.788 122.314C146.883 122.496 146.956 122.705 147.007 122.942C147.061 123.167 147.062 123.409 147.008 123.669C146.955 123.929 146.831 124.205 146.636 124.496C146.45 124.784 146.168 125.08 145.79 125.384C146.143 125.293 146.458 125.291 146.735 125.378C147.008 125.456 147.242 125.549 147.436 125.658C147.643 125.771 147.864 125.913 148.102 126.083C148.339 126.254 148.641 126.448 149.009 126.667C149.33 126.856 149.6 127.01 149.819 127.127C150.034 127.235 150.224 127.315 150.388 127.366C150.551 127.417 150.7 127.439 150.833 127.432C150.967 127.425 151.11 127.398 151.264 127.349L151.427 127.659L149.332 128.758ZM145.3 123.095C145.044 122.607 144.731 122.292 144.361 122.149C143.999 122.002 143.647 121.965 143.307 122.038C143.011 122.098 142.721 122.198 142.436 122.337C142.154 122.464 141.871 122.607 141.586 122.767L143.48 126.375L143.988 126.108C144.087 126.056 144.196 125.993 144.316 125.92C144.431 125.838 144.547 125.757 144.662 125.675C144.777 125.593 144.882 125.512 144.976 125.431C145.067 125.341 145.14 125.261 145.197 125.189C145.279 125.083 145.351 124.96 145.415 124.821C145.483 124.669 145.53 124.508 145.556 124.336C145.578 124.156 145.572 123.964 145.538 123.76C145.501 123.548 145.421 123.326 145.3 123.095Z" fill="#FEBE73"/>
<path d="M162.739 118.653L156.62 124.075L156.397 123.824C156.615 123.605 156.769 123.413 156.858 123.246C156.955 123.074 157.004 122.911 157.007 122.76C157.009 122.608 156.968 122.463 156.884 122.326C156.801 122.175 156.691 122.023 156.555 121.869L152.628 117.437C152.498 117.29 152.37 117.167 152.243 117.066C152.117 116.966 151.979 116.908 151.827 116.893C151.677 116.864 151.507 116.883 151.318 116.951C151.129 117.019 150.912 117.155 150.669 117.358L150.474 117.138L156.206 112.06L157.673 113.547L157.453 113.742C157.083 113.508 156.765 113.36 156.498 113.297C156.231 113.222 155.987 113.213 155.765 113.273C155.551 113.326 155.349 113.429 155.161 113.583C154.967 113.73 154.759 113.903 154.535 114.101L153.026 115.438L155.533 118.267L156.434 117.469C156.63 117.295 156.781 117.142 156.888 117.01C156.996 116.865 157.064 116.723 157.092 116.586C157.114 116.442 157.097 116.295 157.04 116.147C156.976 115.991 156.875 115.813 156.735 115.612L156.965 115.408L158.813 117.493L158.603 117.679C158.415 117.509 158.244 117.386 158.09 117.311C157.943 117.229 157.796 117.197 157.649 117.215C157.51 117.226 157.364 117.28 157.213 117.377C157.062 117.474 156.895 117.602 156.714 117.763L155.802 118.571L157.445 120.426C157.662 120.67 157.852 120.87 158.014 121.025C158.177 121.181 158.343 121.277 158.512 121.313C158.682 121.35 158.869 121.322 159.073 121.228C159.278 121.122 159.527 120.938 159.82 120.678L160.323 120.233C160.442 120.128 160.589 119.984 160.766 119.803C160.942 119.622 161.081 119.393 161.184 119.115C161.281 118.829 161.308 118.494 161.265 118.108C161.222 117.722 161.045 117.268 160.732 116.747L160.952 116.552L162.739 118.653Z" fill="#FEBE73"/>
</g>
<defs>
<clipPath id="clip0_603_2669">
<rect width="220" height="137" fill="white"/>
</clipPath>
</defs>
</svg>
