<svg width="144" height="144" viewBox="0 0 144 144" fill="none" xmlns="http://www.w3.org/2000/svg">
<mask id="mask0_589_8923" style="mask-type:luminance" maskUnits="userSpaceOnUse" x="0" y="0" width="144" height="144">
<path d="M0 1.52588e-05H144V144H0V1.52588e-05Z" fill="white"/>
</mask>
<g mask="url(#mask0_589_8923)">
<path d="M141.891 24.0244V78.0244C141.891 79.8891 140.38 81.3994 138.516 81.3994H5.48437C3.61969 81.3994 2.10938 79.8891 2.10938 78.0244V24.0244C2.10938 22.1597 3.61969 20.6494 5.48437 20.6494H138.516C140.38 20.6494 141.891 22.1597 141.891 24.0244Z" fill="black"/>
<path d="M131.046 81.3994H12.9543L16.3153 68.3241C16.6331 67.081 17.7553 66.2119 19.0378 66.2119H124.962C126.245 66.2119 127.367 67.081 127.685 68.3241L131.046 81.3994Z" fill="black"/>
<path d="M26.069 66.2119H19.0378C17.7553 66.2119 16.6331 67.081 16.3153 68.3241L12.9543 81.3994H19.9856L23.3465 68.3241C23.6643 67.081 24.7865 66.2119 26.069 66.2119Z" fill="black"/>
<path d="M9.14062 78.0244V24.0244C9.14062 22.1606 10.6518 20.6494 12.5156 20.6494H5.48437C3.62053 20.6494 2.10938 22.1606 2.10938 24.0244V78.0244C2.10938 79.8883 3.62053 81.3994 5.48437 81.3994H12.5156C10.6518 81.3994 9.14062 79.8883 9.14062 78.0244Z" fill="black"/>
<path d="M141.891 24.0244V35.8369H2.10938V24.0244C2.10938 22.1597 3.61969 20.6494 5.48437 20.6494H138.516C140.38 20.6494 141.891 22.1597 141.891 24.0244Z" fill="black"/>
<path d="M12.5156 20.6494H5.48437C3.61969 20.6494 2.10938 22.1597 2.10938 24.0244V35.8369H9.14062V24.0244C9.14062 22.1597 10.6509 20.6494 12.5156 20.6494Z" fill="black"/>
<path d="M115.734 51.0244C115.734 53.5874 113.657 55.665 111.094 55.665C108.531 55.665 106.453 53.5874 106.453 51.0244C106.453 48.4614 108.531 46.3838 111.094 46.3838C113.657 46.3838 115.734 48.4614 115.734 51.0244Z" fill="black"/>
<path d="M133.453 51.0244C133.453 53.5874 131.376 55.665 128.812 55.665C126.249 55.665 124.172 53.5874 124.172 51.0244C124.172 48.4614 126.249 46.3838 128.812 46.3838C131.376 46.3838 133.453 48.4614 133.453 51.0244Z" fill="black"/>
<path d="M87.0499 45.9263H56.9502C55.7076 45.9263 54.7002 46.9338 54.7002 48.1763V53.873C54.7002 55.1156 55.7076 56.123 56.9502 56.123H87.0499C88.2924 56.123 89.2999 55.1156 89.2999 53.873V48.1763C89.2999 46.9338 88.2924 45.9263 87.0499 45.9263Z" fill="black"/>
<path d="M61.7313 53.8726V48.1758C61.7313 46.9333 62.7388 45.9258 63.9813 45.9258H56.9501C55.7075 45.9258 54.7001 46.9333 54.7001 48.1758V53.8726C54.7001 55.1151 55.7075 56.1226 56.9501 56.1226H63.9813C62.7388 56.1226 61.7313 55.1151 61.7313 53.8726Z" fill="black"/>
<path d="M41.0625 92.5447V123.351" stroke="black" stroke-width="3" stroke-miterlimit="10" stroke-linecap="round" stroke-linejoin="round"/>
<path d="M56.5312 92.5447V123.351" stroke="black" stroke-width="3" stroke-miterlimit="10" stroke-linecap="round" stroke-linejoin="round"/>
<path d="M72 92.5447V123.351" stroke="black" stroke-width="3" stroke-miterlimit="10" stroke-linecap="round" stroke-linejoin="round"/>
<path d="M102.938 92.5447V123.351" stroke="black" stroke-width="3" stroke-miterlimit="10" stroke-linecap="round" stroke-linejoin="round"/>
<path d="M87.4688 92.5447V123.351" stroke="black" stroke-width="3" stroke-miterlimit="10" stroke-linecap="round" stroke-linejoin="round"/>
<path d="M25.5937 92.5453V115.616C25.5937 119.891 22.1344 123.351 17.8594 123.351" stroke="black" stroke-width="3" stroke-miterlimit="10" stroke-linecap="round" stroke-linejoin="round"/>
<path d="M126.141 123.351C121.866 123.351 118.406 119.891 118.406 115.616V92.5453" stroke="black" stroke-width="3" stroke-miterlimit="10" stroke-linecap="round" stroke-linejoin="round"/>
<path d="M2.10938 57.707V35.837V24.0245C2.10938 22.1598 3.61969 20.6495 5.48437 20.6495H106.172" stroke="#FEBE73" stroke-width="3" stroke-miterlimit="10" stroke-linecap="round" stroke-linejoin="round"/>
<path d="M116.016 20.6494H138.516C140.38 20.6494 141.891 22.1597 141.891 24.0244V35.8369V78.0244C141.891 79.8891 140.38 81.3994 138.516 81.3994H131.046H12.9544H5.48437C3.61969 81.3994 2.10938 79.8891 2.10938 78.0244V67.5507" stroke="#FEBE73" stroke-width="3" stroke-miterlimit="10" stroke-linecap="round" stroke-linejoin="round"/>
<path d="M129.094 73.8057H14.9064" stroke="#FEBE73" stroke-width="3" stroke-miterlimit="10" stroke-linecap="round" stroke-linejoin="round"/>
<path d="M2.10938 35.8369H141.891" stroke="#FEBE73" stroke-width="3" stroke-miterlimit="10" stroke-linecap="round" stroke-linejoin="round"/>
<path d="M131.046 81.3994L127.685 68.3241C127.367 67.081 126.245 66.2119 124.962 66.2119H19.0378C17.7553 66.2119 16.6331 67.081 16.3153 68.3241L12.9543 81.3994" stroke="#FEBE73" stroke-width="3" stroke-miterlimit="10" stroke-linecap="round" stroke-linejoin="round"/>
<path d="M115.734 51.0244C115.734 53.5874 113.657 55.665 111.094 55.665C108.531 55.665 106.453 53.5874 106.453 51.0244C106.453 48.4614 108.531 46.3838 111.094 46.3838C113.657 46.3838 115.734 48.4614 115.734 51.0244Z" stroke="#FEBE73" stroke-width="3" stroke-miterlimit="10" stroke-linecap="round" stroke-linejoin="round"/>
<path d="M133.453 51.0244C133.453 53.5874 131.376 55.665 128.812 55.665C126.249 55.665 124.172 53.5874 124.172 51.0244C124.172 48.4614 126.249 46.3838 128.812 46.3838C131.376 46.3838 133.453 48.4614 133.453 51.0244Z" stroke="#FEBE73" stroke-width="3" stroke-miterlimit="10" stroke-linecap="round" stroke-linejoin="round"/>
<path d="M87.0498 45.9263H56.9502C55.7076 45.9263 54.7002 46.9338 54.7002 48.1763V53.873C54.7002 55.1156 55.7076 56.123 56.9502 56.123H87.0498C88.2924 56.123 89.2998 55.1156 89.2998 53.873V48.1763C89.2998 46.9338 88.2924 45.9263 87.0498 45.9263Z" stroke="#FEBE73" stroke-width="3" stroke-miterlimit="10" stroke-linecap="round" stroke-linejoin="round"/>
<g clip-path="url(#clip0_589_8923)">
<path opacity="0.2" d="M18.6277 46.5196C19.2385 45.2982 20.1774 44.2707 21.3394 43.5523C22.5013 42.8338 23.8404 42.4527 25.2067 42.4517C26.5732 42.4506 27.9128 42.8296 29.0759 43.5462C30.2389 44.2629 31.1794 45.2888 31.7921 46.5093M18.6666 53.0964C19.2774 54.3179 20.2163 55.3453 21.3783 56.0637C22.5402 56.7822 23.8793 57.1634 25.2456 57.1644C26.6121 57.1654 27.9518 56.7864 29.1149 56.0698C30.2779 55.3532 31.2184 54.3272 31.8311 53.1067" stroke="#FEBE73"/>
<path d="M11.7745 47.2252C11.6123 47.2302 11.4796 47.2502 11.3764 47.2852C11.2781 47.3152 11.1995 47.3602 11.1405 47.4202C11.0865 47.4802 11.0496 47.5552 11.0299 47.6451C11.0103 47.7301 11.0004 47.8301 11.0004 47.9451V51.7542C11.0004 51.8792 10.998 51.9917 10.9931 52.0916C10.9931 52.1967 10.9882 52.2967 10.9783 52.3916C10.9685 52.4816 10.9537 52.5741 10.9341 52.669C10.9144 52.769 10.8776 52.869 10.8235 52.969C10.7203 53.164 10.5901 53.314 10.4328 53.4189C10.2755 53.5289 10.1158 53.6114 9.95361 53.6663C9.79142 53.7214 9.63906 53.7539 9.49653 53.7638C9.35401 53.7788 9.24834 53.7863 9.17953 53.7863C8.81585 53.7863 8.52833 53.7189 8.317 53.5839C8.10567 53.4539 8 53.2865 8 53.0815C8 52.9565 8.03686 52.8516 8.11058 52.7665C8.1843 52.6815 8.28751 52.6391 8.42021 52.6391C8.53325 52.6391 8.62417 52.6715 8.69298 52.7366C8.76178 52.8015 8.79619 52.869 8.79619 52.939C8.79619 52.994 8.78636 53.039 8.7667 53.074C8.74704 53.1139 8.73721 53.1615 8.73721 53.2164C8.73721 53.3164 8.76916 53.3864 8.83305 53.4264C8.89202 53.4714 8.94855 53.5014 9.0026 53.5164C9.07633 53.5364 9.15742 53.5463 9.24589 53.5463C9.46213 53.5463 9.62924 53.5089 9.74718 53.4339C9.86514 53.3589 9.95361 53.2564 10.0126 53.1264C10.0715 52.9965 10.106 52.8441 10.1158 52.669C10.1305 52.4941 10.1379 52.3092 10.1379 52.1142V47.9451C10.1379 47.8201 10.1256 47.7126 10.101 47.6226C10.0814 47.5327 10.0421 47.4602 9.98309 47.4052C9.92411 47.3502 9.84056 47.3077 9.73244 47.2777C9.62924 47.2477 9.49653 47.2302 9.33435 47.2252V47.0303H11.7745V47.2252Z" fill="#FEBE73"/>
<path d="M17.5384 49.5124C17.5384 49.8423 17.4794 50.1622 17.3614 50.4722C17.2484 50.7821 17.0789 51.0571 16.8528 51.297C16.6267 51.532 16.3441 51.7219 16.005 51.8669C15.6659 52.0119 15.2727 52.0843 14.8254 52.0843C14.3389 52.0843 13.9236 52.0044 13.5796 51.8444C13.2355 51.6845 12.9529 51.482 12.7318 51.237C12.5106 50.9871 12.3484 50.7096 12.2452 50.4047C12.1469 50.0948 12.0978 49.7948 12.0978 49.5049C12.0978 49.185 12.1518 48.8725 12.26 48.5676C12.373 48.2576 12.5401 47.9827 12.7613 47.7428C12.9824 47.5028 13.2601 47.3103 13.5943 47.1654C13.9334 47.0154 14.3315 46.9404 14.7886 46.9404C15.1572 46.9404 15.4816 46.9829 15.7617 47.0679C16.0418 47.1529 16.2827 47.2654 16.4842 47.4053C16.6857 47.5453 16.8552 47.7078 16.9928 47.8927C17.1305 48.0727 17.2386 48.2576 17.3172 48.4476C17.3959 48.6376 17.4524 48.825 17.4868 49.01C17.5212 49.195 17.5384 49.3624 17.5384 49.5124ZM16.5579 49.4974C16.5579 49.2324 16.5333 48.965 16.4842 48.6951C16.4399 48.4201 16.3539 48.1727 16.2262 47.9527C16.0984 47.7278 15.9214 47.5453 15.6954 47.4053C15.4693 47.2654 15.1793 47.1954 14.8254 47.1954C14.4519 47.1954 14.1497 47.2704 13.9187 47.4203C13.6877 47.5653 13.5108 47.7528 13.3879 47.9827C13.265 48.2077 13.1815 48.4551 13.1372 48.7251C13.0979 48.995 13.0783 49.2524 13.0783 49.4974C13.0783 49.5974 13.0832 49.7248 13.093 49.8798C13.1028 50.0348 13.125 50.1997 13.1594 50.3747C13.1938 50.5447 13.2478 50.7171 13.3215 50.8921C13.4002 51.0671 13.5034 51.2245 13.6312 51.3645C13.759 51.4995 13.9211 51.6119 14.1177 51.7019C14.3143 51.7869 14.5527 51.8294 14.8328 51.8294C15.108 51.8294 15.3415 51.7844 15.5332 51.6944C15.7249 51.6044 15.8846 51.4895 16.0124 51.3495C16.1401 51.2095 16.2409 51.0521 16.3146 50.8771C16.3883 50.7021 16.4424 50.5272 16.4768 50.3522C16.5112 50.1772 16.5333 50.0148 16.5432 49.8648C16.553 49.7148 16.5579 49.5924 16.5579 49.4974Z" fill="#FEBE73"/>
<path d="M21.8956 50.7346C21.8956 50.8795 21.871 51.012 21.8219 51.132C21.7728 51.252 21.7088 51.3569 21.6302 51.4469C21.5565 51.5369 21.4729 51.6119 21.3796 51.6718C21.2861 51.7319 21.1928 51.7743 21.0995 51.7993C20.9323 51.8494 20.7407 51.8943 20.5244 51.9343C20.3131 51.9744 20.1214 51.9943 19.9494 51.9943H17.4871V51.8369C17.6492 51.8269 17.7771 51.8043 17.8704 51.7693C17.9687 51.7344 18.0449 51.6869 18.099 51.6269C18.1531 51.5619 18.1875 51.4869 18.2022 51.4019C18.2218 51.312 18.2317 51.2145 18.2317 51.1095V47.8627C18.2317 47.7577 18.2243 47.6652 18.2096 47.5853C18.1948 47.5053 18.1604 47.4353 18.1064 47.3753C18.0572 47.3153 17.9835 47.2678 17.8851 47.2328C17.7869 47.1978 17.6542 47.1778 17.4871 47.1728V47.0079L18.7329 46.9779C18.9984 46.9679 19.222 46.9629 19.4039 46.9629C19.5906 46.9629 19.7478 46.9654 19.8757 46.9704C20.0034 46.9754 20.1067 46.9804 20.1852 46.9854C20.2689 46.9904 20.345 46.9979 20.4138 47.0079C20.8266 47.0579 21.1388 47.1878 21.3501 47.3978C21.5663 47.6077 21.6744 47.8552 21.6744 48.1401C21.6744 48.2751 21.6499 48.4026 21.6007 48.5226C21.5565 48.6425 21.4778 48.7525 21.3648 48.8525C21.2517 48.9525 21.0995 49.0424 20.9078 49.1224C20.721 49.2024 20.4851 49.2724 20.2 49.3324C20.5146 49.3824 20.78 49.4499 20.9962 49.5348C21.2124 49.6198 21.3869 49.7223 21.5197 49.8423C21.6523 49.9572 21.7482 50.0897 21.8071 50.2397C21.8661 50.3897 21.8956 50.5546 21.8956 50.7346ZM20.8193 48.1701C20.8193 47.9802 20.7824 47.8227 20.7087 47.6977C20.6398 47.5728 20.5465 47.4728 20.4285 47.3978C20.3155 47.3228 20.1852 47.2703 20.0379 47.2403C19.8953 47.2103 19.7478 47.1953 19.5955 47.1953H19.0795V49.2424H19.4186C19.5906 49.2424 19.7478 49.2349 19.8904 49.2199C20.0379 49.1999 20.1828 49.1499 20.3254 49.0699C20.4777 48.985 20.5981 48.8625 20.6866 48.7025C20.775 48.5376 20.8193 48.3601 20.8193 48.1701ZM20.9594 50.6746C20.9594 50.6046 20.952 50.5246 20.9373 50.4346C20.9274 50.3447 20.9029 50.2522 20.8635 50.1572C20.8291 50.0622 20.78 49.9697 20.7161 49.8798C20.6571 49.7848 20.5784 49.7048 20.4802 49.6398C20.3769 49.5698 20.2443 49.5248 20.0821 49.5048C19.9248 49.4798 19.7675 49.4673 19.6103 49.4673H19.0795V50.8096C19.0795 50.9595 19.0819 51.0945 19.0868 51.2145C19.0966 51.3294 19.1237 51.4294 19.1679 51.5144C19.2171 51.5944 19.2932 51.6568 19.3965 51.7019C19.4997 51.7469 19.6447 51.7693 19.8315 51.7693C19.8904 51.7693 19.9813 51.7619 20.1042 51.7469C20.232 51.7319 20.3573 51.6894 20.4802 51.6194C20.6079 51.5494 20.7185 51.4419 20.8119 51.297C20.9102 51.147 20.9594 50.9395 20.9594 50.6746Z" fill="#FEBE73"/>
<path d="M22.4915 51.9942V51.7992C22.6585 51.7942 22.7938 51.7742 22.8969 51.7393C23.0002 51.7043 23.0812 51.6567 23.1402 51.5968C23.1993 51.5368 23.2386 51.4643 23.2581 51.3793C23.2778 51.2894 23.2877 51.1869 23.2877 51.0719V47.9526C23.2877 47.8426 23.2778 47.7451 23.2581 47.6601C23.2386 47.5702 23.1993 47.4952 23.1402 47.4352C23.0861 47.3752 23.0076 47.3277 22.9043 47.2927C22.8012 47.2527 22.6635 47.2302 22.4915 47.2252V47.0303H24.9391V47.2252C24.7718 47.2302 24.6369 47.2502 24.5336 47.2852C24.4303 47.3202 24.3493 47.3677 24.2903 47.4277C24.2313 47.4877 24.1921 47.5627 24.1722 47.6526C24.1527 47.7376 24.1429 47.8376 24.1429 47.9526V51.0719C24.1429 51.1819 24.1527 51.2794 24.1722 51.3644C24.1921 51.4493 24.2288 51.5243 24.2829 51.5893C24.3419 51.6493 24.4231 51.6968 24.5262 51.7318C24.6294 51.7667 24.7669 51.7892 24.9391 51.7992V51.9942H22.4915Z" fill="#7F6134"/>
<path d="M28.9452 50.6146C28.9452 50.7646 28.9134 50.9271 28.8494 51.102C28.7856 51.272 28.6873 51.432 28.5546 51.582C28.4267 51.7269 28.2646 51.8469 28.068 51.9418C27.8763 52.0368 27.6502 52.0843 27.3897 52.0843C27.2669 52.0843 27.1391 52.0693 27.0065 52.0393C26.8786 52.0144 26.7484 51.9719 26.6156 51.9119C26.483 51.8469 26.3503 51.7619 26.2175 51.6569C26.0898 51.552 25.9645 51.422 25.8416 51.267C25.7974 51.367 25.7556 51.4695 25.7163 51.5745C25.6819 51.6795 25.6523 51.7869 25.6278 51.8969H25.4803V50.3522H25.6351C25.6892 50.4922 25.7606 50.6471 25.8489 50.8171C25.9424 50.9871 26.0554 51.1445 26.188 51.2895C26.3257 51.4295 26.483 51.5494 26.6599 51.6494C26.8417 51.7444 27.0482 51.7919 27.2792 51.7919C27.5986 51.7919 27.8321 51.7194 27.9795 51.5745C28.1319 51.4295 28.2082 51.247 28.2082 51.0271C28.2082 50.7971 28.1367 50.6121 27.9944 50.4722C27.8517 50.3322 27.6478 50.1922 27.3825 50.0523C27.3676 50.0423 27.3308 50.0248 27.2718 49.9998C27.2128 49.9698 27.1465 49.9398 27.0727 49.9098C26.999 49.8748 26.9278 49.8398 26.8589 49.8048C26.7901 49.7698 26.7386 49.7448 26.7042 49.7298C26.4141 49.5949 26.1857 49.4624 26.0186 49.3324C25.8565 49.2025 25.7335 49.0775 25.6499 48.9575C25.5713 48.8325 25.5222 48.7151 25.5025 48.6051C25.4877 48.4901 25.4803 48.3826 25.4803 48.2826C25.4803 48.1077 25.5148 47.9402 25.5836 47.7803C25.6573 47.6153 25.7581 47.4728 25.8858 47.3529C26.0137 47.2279 26.1659 47.1279 26.3429 47.0529C26.5248 46.9779 26.7238 46.9404 26.9399 46.9404C27.1661 46.9404 27.3848 46.9954 27.5963 47.1054C27.8124 47.2154 28.0286 47.3978 28.2449 47.6528C28.299 47.5328 28.3333 47.4328 28.3482 47.3529C28.3677 47.2729 28.3899 47.1879 28.4144 47.0979H28.5766V48.3951H28.4071C28.3776 48.3101 28.3259 48.2002 28.2523 48.0652C28.1834 47.9302 28.0926 47.8002 27.9795 47.6753C27.8665 47.5453 27.7289 47.4353 27.5668 47.3454C27.4046 47.2504 27.2152 47.2029 26.999 47.2029C26.886 47.2029 26.7755 47.2154 26.6673 47.2404C26.5591 47.2654 26.4633 47.3079 26.3797 47.3678C26.3011 47.4228 26.2373 47.4953 26.188 47.5853C26.139 47.6703 26.1144 47.7753 26.1144 47.9002C26.1144 48.0452 26.1464 48.1702 26.2103 48.2751C26.2741 48.3751 26.3625 48.4676 26.4756 48.5526C26.5789 48.6326 26.7066 48.71 26.8589 48.785C26.9327 48.825 27.0088 48.865 27.0875 48.905C27.1661 48.945 27.2521 48.985 27.3454 49.025C27.5668 49.13 27.773 49.2324 27.9649 49.3324C28.1614 49.4324 28.331 49.5449 28.4735 49.6699C28.6209 49.7898 28.7363 49.9273 28.8199 50.0823C28.9035 50.2322 28.9452 50.4097 28.9452 50.6146Z" fill="#7F6134"/>
<path d="M34.1706 48.335C34.1362 48.0751 34.0772 47.8751 33.9936 47.7351C33.9101 47.5951 33.8168 47.4927 33.7135 47.4277C33.6104 47.3577 33.5021 47.3177 33.3892 47.3077C33.281 47.2927 33.1852 47.2852 33.1016 47.2852H32.4159V51.0719C32.4159 51.1769 32.4234 51.2719 32.438 51.3568C32.4529 51.4418 32.4848 51.5168 32.5339 51.5818C32.5881 51.6468 32.6641 51.6968 32.7625 51.7318C32.8607 51.7667 32.9911 51.7892 33.1532 51.7992V51.9942H30.8237V51.7992C30.9809 51.7892 31.1086 51.7692 31.207 51.7393C31.3052 51.7043 31.379 51.6567 31.4282 51.5968C31.4823 51.5318 31.5167 51.4568 31.5313 51.3718C31.551 51.2819 31.5608 51.1819 31.5608 51.0719V47.2852H30.9784C30.8655 47.2852 30.745 47.2927 30.6172 47.3077C30.4895 47.3177 30.369 47.3552 30.256 47.4202C30.143 47.4852 30.0447 47.5902 29.9611 47.7351C29.8825 47.8751 29.8309 48.0751 29.8063 48.335H29.6515V47.0303H34.3254V48.335H34.1706Z" fill="#FEBE73"/>
<path d="M39.8249 49.5124C39.8249 49.8423 39.766 50.1622 39.648 50.4722C39.535 50.7821 39.3653 51.0571 39.1392 51.297C38.9131 51.532 38.6306 51.7219 38.2915 51.8669C37.9524 52.0119 37.5592 52.0843 37.112 52.0843C36.6253 52.0843 36.21 52.0044 35.866 51.8444C35.522 51.6845 35.2394 51.482 35.0183 51.237C34.7971 50.9871 34.635 50.7096 34.5317 50.4047C34.4335 50.0948 34.3843 49.7948 34.3843 49.5049C34.3843 49.185 34.4384 48.8725 34.5464 48.5676C34.6594 48.2576 34.8266 47.9827 35.0477 47.7428C35.269 47.5028 35.5466 47.3103 35.8808 47.1654C36.2198 47.0154 36.6179 46.9404 37.0751 46.9404C37.4437 46.9404 37.7681 46.9829 38.0482 47.0679C38.3284 47.1529 38.5692 47.2654 38.7707 47.4053C38.9721 47.5453 39.1418 47.7078 39.2794 47.8927C39.4169 48.0727 39.525 48.2576 39.6037 48.4476C39.6824 48.6376 39.7388 48.825 39.7732 49.01C39.8077 49.195 39.8249 49.3624 39.8249 49.5124ZM38.8444 49.4974C38.8444 49.2324 38.8198 48.965 38.7707 48.6951C38.7265 48.4201 38.6404 48.1727 38.5127 47.9527C38.3849 47.7278 38.2079 47.5453 37.9818 47.4053C37.7558 47.2654 37.4658 47.1954 37.112 47.1954C36.7384 47.1954 36.4363 47.2704 36.2052 47.4203C35.9742 47.5653 35.7973 47.7528 35.6745 47.9827C35.5515 48.2077 35.4679 48.4551 35.4236 48.7251C35.3844 48.995 35.3648 49.2524 35.3648 49.4974C35.3648 49.5974 35.3697 49.7248 35.3795 49.8798C35.3894 50.0348 35.4114 50.1997 35.4458 50.3747C35.4802 50.5447 35.5343 50.7171 35.6079 50.8921C35.6866 51.0671 35.7899 51.2245 35.9177 51.3645C36.0455 51.4995 36.2077 51.6119 36.4043 51.7019C36.6009 51.7869 36.8391 51.8294 37.1193 51.8294C37.3945 51.8294 37.6279 51.7844 37.8196 51.6944C38.0113 51.6044 38.1711 51.4895 38.2989 51.3495C38.4266 51.2095 38.5274 51.0521 38.6011 50.8771C38.6748 50.7021 38.7288 50.5272 38.7632 50.3522C38.7977 50.1772 38.8198 50.0148 38.8296 49.8648C38.8395 49.7148 38.8444 49.5924 38.8444 49.4974Z" fill="#FEBE73"/>
</g>
</g>
<defs>
<clipPath id="clip0_589_8923">
<rect width="31.8248" height="19.8182" fill="white" transform="translate(8 40)"/>
</clipPath>
</defs>
</svg>
