<svg width="32" height="32" viewBox="0 0 32 32" fill="none" xmlns="http://www.w3.org/2000/svg">
<path d="M5.10712 3.25049H5.87612" stroke="white" stroke-width="1.2" stroke-miterlimit="10" stroke-linecap="round" stroke-linejoin="round"/>
<path d="M1.39412 3.25049H0.625122" stroke="white" stroke-width="1.2" stroke-miterlimit="10" stroke-linecap="round" stroke-linejoin="round"/>
<path d="M3.25063 1.394V0.625" stroke="white" stroke-width="1.2" stroke-miterlimit="10" stroke-linecap="round" stroke-linejoin="round"/>
<path d="M3.25063 5.10718V5.87618" stroke="white" stroke-width="1.2" stroke-miterlimit="10" stroke-linecap="round" stroke-linejoin="round"/>
<path d="M28.0891 16.7063H28.8581" stroke="white" stroke-width="1.2" stroke-miterlimit="10" stroke-linecap="round" stroke-linejoin="round"/>
<path d="M24.3761 16.7063H23.6071" stroke="white" stroke-width="1.2" stroke-miterlimit="10" stroke-linecap="round" stroke-linejoin="round"/>
<path d="M26.2326 14.8498V14.0808" stroke="white" stroke-width="1.2" stroke-miterlimit="10" stroke-linecap="round" stroke-linejoin="round"/>
<path d="M26.2326 18.563V19.332" stroke="white" stroke-width="1.2" stroke-miterlimit="10" stroke-linecap="round" stroke-linejoin="round"/>
<path d="M26.6379 29.5147C27.3629 29.5147 27.9507 28.9269 27.9507 28.2019C27.9507 27.4769 27.3629 26.8892 26.6379 26.8892C25.9129 26.8892 25.3252 27.4769 25.3252 28.2019C25.3252 28.9269 25.9129 29.5147 26.6379 29.5147Z" stroke="white" stroke-width="1.2" stroke-miterlimit="10" stroke-linecap="round" stroke-linejoin="round"/>
<path d="M13.4916 4.6714C14.2166 4.6714 14.8044 4.08366 14.8044 3.35865C14.8044 2.63364 14.2166 2.0459 13.4916 2.0459C12.7666 2.0459 12.1789 2.63364 12.1789 3.35865C12.1789 4.08366 12.7666 4.6714 13.4916 4.6714Z" stroke="white" stroke-width="1.2" stroke-miterlimit="10" stroke-linecap="round" stroke-linejoin="round"/>
<path d="M0.625122 18.7491C3.20643 24.3049 7.69519 28.7936 13.251 31.375L19.7081 20.2696C20.0306 19.715 19.9392 19.0127 19.4855 18.559L13.441 12.5145C12.9873 12.0609 12.2851 11.9695 11.7304 12.292L0.625122 18.7491Z" stroke="white" stroke-width="1.2" stroke-miterlimit="10" stroke-linecap="round" stroke-linejoin="round"/>
<path d="M9.64787 13.5205L18.4726 22.3453" stroke="white" stroke-width="1.2" stroke-miterlimit="10" stroke-linecap="round" stroke-linejoin="round"/>
<path d="M17.7346 16.6044L19.659 14.6799" stroke="white" stroke-width="1.2" stroke-miterlimit="10" stroke-linecap="round" stroke-linejoin="round"/>
<path d="M23.6364 10.7026L31.3749 2.96418L29.036 0.625244L15.4015 14.2597" stroke="white" stroke-width="1.2" stroke-miterlimit="10" stroke-linecap="round" stroke-linejoin="round"/>
<path d="M3.14181 22.455L6.93137 20.3809" stroke="white" stroke-width="1.2" stroke-miterlimit="10" stroke-linecap="round" stroke-linejoin="round"/>
<path d="M9.36662 29.037L11.8171 25.1414" stroke="white" stroke-width="1.2" stroke-miterlimit="10" stroke-linecap="round" stroke-linejoin="round"/>
<path d="M13.9736 18.0266L11.3555 20.6447" stroke="white" stroke-width="1.2" stroke-miterlimit="10" stroke-linecap="round" stroke-linejoin="round"/>
<path d="M9.41625 10.2827C9.2105 8.79427 7.85881 7.72777 6.35381 7.8874C4.87325 8.04446 3.78631 9.33052 3.85712 10.799C3.65731 10.8476 3.46018 10.9211 3.27006 11.0215C2.02887 11.6768 1.55387 13.2141 2.20906 14.4553" stroke="white" stroke-width="1.2" stroke-miterlimit="10" stroke-linecap="round" stroke-linejoin="round"/>
<circle cx="15.1982" cy="9.02734" r="0.625" fill="white"/>
<circle cx="9.21637" cy="4.98779" r="0.625" fill="white"/>
<path d="M18.1594 28.9559C19.1913 29.3142 20.3749 28.9556 21.0195 28.0097C21.6267 27.1188 21.5741 25.9733 20.972 25.1501" stroke="white" stroke-width="1.2" stroke-miterlimit="10" stroke-linecap="round" stroke-linejoin="round"/>
<circle cx="21.6477" cy="12.6912" r="0.625" fill="white"/>
</svg>
