<svg width="220" height="220" viewBox="0 0 220 220" fill="none" xmlns="http://www.w3.org/2000/svg">
<g clip-path="url(#clip0_589_8569)">
<path d="M47.6668 121H29.3335C23.2584 121 18.3335 125.925 18.3335 132V205.333C18.3335 211.408 23.2584 216.333 29.3335 216.333H47.6668C53.742 216.333 58.6668 211.408 58.6668 205.333V132C58.6668 125.925 53.742 121 47.6668 121Z" fill="#FEBE73"/>
<path d="M47.6667 121H36.6667C42.7419 121 47.6667 125.925 47.6667 132V205.333C47.6667 211.408 42.7419 216.333 36.6667 216.333H47.6667C53.7419 216.333 58.6667 211.408 58.6667 205.333V132C58.6667 125.925 53.7419 121 47.6667 121Z" fill="#FEBE73"/>
<path d="M179.667 172.333H172.333C178.409 172.333 183.333 177.258 183.333 183.333C183.333 189.408 178.409 194.333 172.333 194.333H165C171.075 194.333 176 199.258 176 205.333C176 211.408 171.075 216.333 165 216.333H99.0001C93.3901 216.421 87.8149 215.438 82.5734 213.437C78.9801 212.007 75.8267 209.697 72.3434 208.01C68.6451 206.244 64.5982 205.33 60.5001 205.333H58.6667V132C66.1308 131.992 73.4357 129.841 79.7134 125.803C92.9501 117.37 113.007 102.043 108.68 82.5366C107.213 75.9732 106.663 69.5566 113.667 65.9999C121.44 62.0399 128.883 67.0632 132.513 73.4066C144.723 94.7832 123.383 128.333 123.383 128.333H176C182.075 128.333 187 133.258 187 139.333C187 145.408 182.075 150.333 176 150.333H179.667C185.742 150.333 190.667 155.258 190.667 161.333C190.667 167.408 185.742 172.333 179.667 172.333Z" fill="#FFE0B2"/>
<path d="M187.44 169.107C190.582 165.961 191.521 161.233 189.82 157.125C188.119 153.017 184.113 150.337 179.667 150.333H176C182.075 150.333 187 145.408 187 139.333C187 133.258 182.075 128.333 176 128.333H165C171.075 128.333 176 133.258 176 139.333C176 145.408 171.075 150.333 165 150.333H168.667C174.742 150.333 179.667 155.258 179.667 161.333C179.667 167.408 174.742 172.333 168.667 172.333H161.333C167.408 172.333 172.333 177.258 172.333 183.333C172.333 189.408 167.408 194.333 161.333 194.333H154C160.075 194.333 165 199.258 165 205.333C165 211.408 160.075 216.333 154 216.333H165C171.075 216.333 176 211.408 176 205.333C176 199.258 171.075 194.333 165 194.333H172.333C178.408 194.333 183.333 189.408 183.333 183.333C183.333 177.258 178.408 172.333 172.333 172.333H179.667C182.584 172.334 185.381 171.172 187.44 169.107Z" fill="#F4CE95"/>
<path d="M121.513 73.4067C129.661 87.67 122.87 107.356 117.447 118.873C116.465 120.917 116.6 123.321 117.805 125.242C119.01 127.162 121.116 128.329 123.383 128.333C123.383 128.333 144.723 94.7834 132.513 73.4067C128.909 67.1037 121.539 62.117 113.813 65.934C117.057 67.6165 119.735 70.215 121.513 73.4067Z" fill="#F4CE95"/>
<path d="M190.736 40.3334C157.7 40.3334 157.7 3.66675 157.7 3.66675C157.7 3.66675 157.7 40.3334 124.667 40.3334C157.7 40.3334 157.7 77.0001 157.7 77.0001C157.7 77.0001 157.7 40.3334 190.736 40.3334Z" fill="#FEBE73"/>
<path d="M80.6668 73.3334C58.6667 73.3334 58.6667 47.6667 58.6667 47.6667C58.6667 47.6667 58.6667 73.3334 36.6667 73.3334C58.6667 73.3334 58.6667 99.0001 58.6667 99.0001C58.6667 99.0001 58.6667 73.3334 80.6668 73.3334Z" fill="#FEBE73"/>
<path d="M194.333 161.333C194.318 156.168 191.578 151.394 187.125 148.775C189.397 146.153 190.654 142.803 190.667 139.333C190.667 131.233 184.1 124.667 176 124.667H129.683C135.417 113.747 145.838 89.3384 135.696 71.5844C131.234 63.7854 121.909 57.6841 112.006 62.7294C101.673 67.9801 103.987 78.3531 105.101 83.3324C107.943 96.1071 98.7434 109.366 77.7554 122.712C72.929 125.772 67.4366 127.623 61.7431 128.11C60.006 121.762 54.2475 117.354 47.6667 117.333H29.3334C21.2332 117.333 14.6667 123.9 14.6667 132V205.333C14.6667 213.434 21.2332 220 29.3334 220H47.6667C54.305 219.974 60.098 215.492 61.7907 209.073C64.9041 209.237 67.9556 210.007 70.7741 211.339C72.1894 212.01 73.5424 212.806 74.8991 213.591C76.9233 214.825 79.032 215.916 81.2094 216.854C86.8867 219.021 92.9241 220.088 99.0001 220H165C170.422 219.997 175.4 217.003 177.945 212.215C180.489 207.427 180.184 201.626 177.151 197.131C181.45 195.652 184.814 192.255 186.252 187.942C187.689 183.63 187.036 178.894 184.485 175.131C190.391 173.125 194.356 167.571 194.333 161.333ZM47.6667 212.667H29.3334C25.2833 212.667 22.0001 209.384 22.0001 205.333V132C22.0001 127.95 25.2833 124.667 29.3334 124.667H47.6667C51.7168 124.667 55.0001 127.95 55.0001 132V205.333C55.0001 209.384 51.7168 212.667 47.6667 212.667ZM184.848 166.514C183.478 167.896 181.612 168.671 179.667 168.667H154C151.975 168.667 150.333 170.308 150.333 172.333C150.333 174.358 151.975 176 154 176H172.333C176.383 176 179.667 179.283 179.667 183.333C179.667 187.384 176.383 190.667 172.333 190.667H154C151.975 190.667 150.333 192.308 150.333 194.333C150.333 196.358 151.975 198 154 198H165C169.05 198 172.333 201.283 172.333 205.333C172.333 209.384 169.05 212.667 165 212.667H99.0001C93.8689 212.756 88.7673 211.87 83.9668 210.056C82.1086 209.245 80.3088 208.307 78.5804 207.247C77.0551 206.36 75.5224 205.48 73.9347 204.721C70.2918 203.008 66.353 202.012 62.3334 201.788V135.487C69.2226 134.877 75.8628 132.613 81.6898 128.887C105.56 113.7 115.845 97.8341 112.259 81.7228C110.601 74.3051 111.346 71.2764 115.331 69.2561C121.799 65.9561 127.178 71.4561 129.331 75.2144C140.29 94.4058 120.49 126.038 120.289 126.357C119.566 127.487 119.517 128.921 120.162 130.097C120.807 131.272 122.042 132.002 123.383 132H176C180.05 132 183.333 135.283 183.333 139.333C183.333 143.384 180.05 146.667 176 146.667H154C151.975 146.667 150.333 148.308 150.333 150.333C150.333 152.358 151.975 154 154 154H179.667C182.63 154.004 185.3 155.79 186.433 158.528C187.567 161.266 186.941 164.417 184.848 166.514Z" fill="black"/>
<path d="M157.7 3.30906e-07C155.715 -0.000834203 154.091 1.57693 154.033 3.56033V3.63733V3.66667C154.033 5.016 153.699 36.6667 124.667 36.6667C122.642 36.6667 121 38.3083 121 40.3333C121 42.3584 122.642 44 124.667 44C153.586 44 154.029 75.658 154.033 77C154.006 79.025 155.625 80.6888 157.65 80.7162C159.675 80.7435 161.339 79.1241 161.366 77.099V77.022V77C161.366 75.6507 161.7 44 190.736 44C192.761 44 194.403 42.3584 194.403 40.3333C194.403 38.3083 192.761 36.6667 190.736 36.6667C161.814 36.6667 161.374 5.00867 161.366 3.66667C161.366 1.64162 159.725 3.30906e-07 157.7 3.30906e-07ZM174.02 40.3333C166.512 44.2941 160.708 50.8605 157.7 58.7987C154.693 50.8594 148.889 44.2925 141.379 40.3333C148.889 36.3742 154.693 29.8072 157.7 21.868C160.708 29.8062 166.512 36.3725 174.02 40.3333Z" fill="black"/>
<path d="M62.3333 47.6667V47.6447C62.3273 45.6197 60.6807 43.983 58.6557 43.989C56.6306 43.9951 54.9939 45.6417 55 47.6667C55 48.565 54.692 69.6667 36.6667 69.6667C34.6416 69.6667 33 71.3083 33 73.3334C33 75.3584 34.6416 77 36.6667 77C54.692 77 55 98.109 55 99V99.022C55.0061 101.047 56.6526 102.684 58.6777 102.678C60.7027 102.672 62.3394 101.025 62.3333 99C62.3333 98.1017 62.6413 77 80.6667 77C82.6917 77 84.3333 75.3584 84.3333 73.3334C84.3333 71.3083 82.6917 69.6667 80.6667 69.6667C62.6413 69.6667 62.3333 48.5577 62.3333 47.6667ZM67.2613 73.3334C63.5485 75.8098 60.578 79.2481 58.6667 83.281C56.7554 79.2481 53.7848 75.8098 50.072 73.3334C53.7855 70.8577 56.7563 67.4193 58.6667 63.3857C60.577 67.4193 63.5478 70.8577 67.2613 73.3334Z" fill="black"/>
<path d="M190.667 80.6667C190.667 78.6416 189.025 77 187 77C184.975 77 183.333 78.6416 183.333 80.6667V88C183.333 90.025 184.975 91.6667 187 91.6667C189.025 91.6667 190.667 90.025 190.667 88V80.6667Z" fill="#C5C8D0"/>
<path d="M187 113.667C189.025 113.667 190.667 112.025 190.667 110V102.667C190.667 100.642 189.025 99 187 99C184.975 99 183.333 100.642 183.333 102.667V110C183.333 112.025 184.975 113.667 187 113.667Z" fill="#C5C8D0"/>
<path d="M201.667 99.0001C203.692 99.0001 205.333 97.3585 205.333 95.3334C205.333 93.3084 203.692 91.6667 201.667 91.6667H194.333C192.308 91.6667 190.667 93.3084 190.667 95.3334C190.667 97.3585 192.308 99.0001 194.333 99.0001H201.667Z" fill="#C5C8D0"/>
<path d="M179.667 91.6667H172.333C170.308 91.6667 168.667 93.3084 168.667 95.3334C168.667 97.3585 170.308 99.0001 172.333 99.0001H179.667C181.692 99.0001 183.333 97.3585 183.333 95.3334C183.333 93.3084 181.692 91.6667 179.667 91.6667Z" fill="#C5C8D0"/>
<path d="M94.5743 33.759L100.074 39.259C101.513 40.6485 103.8 40.6287 105.214 39.2143C106.629 37.8 106.649 35.513 105.259 34.0743L99.759 28.5743C98.8384 27.6211 97.4751 27.2389 96.1931 27.5744C94.9111 27.91 93.91 28.9111 93.5744 30.1931C93.2389 31.4751 93.6211 32.8384 94.5743 33.759Z" fill="#C5C8D0"/>
<path d="M83.5744 22.7591C85.0132 24.1487 87.3001 24.1288 88.7144 22.7144C90.1288 21.3001 90.1487 19.0132 88.7591 17.5744L83.2591 12.0744C81.8204 10.6849 79.5335 10.7048 78.1191 12.1191C76.7048 13.5335 76.6849 15.8204 78.0744 17.2591L83.5744 22.7591Z" fill="#C5C8D0"/>
<path d="M78.0745 39.259C79.5064 40.6904 81.8274 40.6904 83.2592 39.259L88.7592 33.759C89.7124 32.8384 90.0946 31.4751 89.7591 30.1931C89.4235 28.9111 88.4224 27.91 87.1404 27.5744C85.8584 27.2389 84.4951 27.6211 83.5745 28.5743L78.0745 34.0743C76.6431 35.5061 76.6431 37.8271 78.0745 39.259Z" fill="#C5C8D0"/>
<path d="M97.1667 23.8333C98.1391 23.8331 99.0716 23.4467 99.7591 22.759L105.259 17.259C106.212 16.3384 106.594 14.9751 106.259 13.6931C105.923 12.4111 104.922 11.41 103.64 11.0744C102.358 10.7389 100.995 11.1211 100.074 12.0743L94.5744 17.5743C93.5261 18.623 93.2125 20.1998 93.7799 21.5697C94.3473 22.9396 95.6839 23.833 97.1667 23.8333Z" fill="#C5C8D0"/>
</g>
<defs>
<clipPath id="clip0_589_8569">
<rect width="220" height="220" fill="white"/>
</clipPath>
</defs>
</svg>
