<svg width="20" height="20" viewBox="0 0 20 20" fill="none" xmlns="http://www.w3.org/2000/svg">
<g clip-path="url(#clip0_460_5010)">
<path d="M7.5 12.5L12.5 7.5" stroke="white" stroke-width="1.5" stroke-linecap="round" stroke-linejoin="round"/>
<path d="M9.16675 4.99993L9.55258 4.55326C10.3341 3.77187 11.394 3.33293 12.4991 3.33301C13.6043 3.33309 14.6641 3.77217 15.4455 4.55368C16.2269 5.33518 16.6658 6.39509 16.6658 7.50022C16.6657 8.60536 16.2266 9.6652 15.4451 10.4466L15.0001 10.8333" stroke="white" stroke-width="1.5" stroke-linecap="round" stroke-linejoin="round"/>
<path d="M10.8334 14.9998L10.5025 15.4448C9.71191 16.2267 8.64486 16.6652 7.53295 16.6652C6.42105 16.6652 5.354 16.2267 4.56337 15.4448C4.17367 15.0595 3.86428 14.6007 3.65313 14.095C3.44198 13.5892 3.33325 13.0466 3.33325 12.4986C3.33325 11.9505 3.44198 11.4079 3.65313 10.9022C3.86428 10.3965 4.17367 9.93767 4.56337 9.55234L5.00004 9.1665" stroke="white" stroke-width="1.5" stroke-linecap="round" stroke-linejoin="round"/>
</g>
<defs>
<clipPath id="clip0_460_5010">
<rect width="20" height="20" fill="white"/>
</clipPath>
</defs>
</svg>
