<svg width="142" height="131" viewBox="0 0 142 131" fill="none" xmlns="http://www.w3.org/2000/svg">
<path d="M108.973 66.4473C103.37 66.4473 98.1129 67.9244 93.5673 70.5085L82.2686 67.1493L84.4168 78.3883C80.2462 83.6952 77.7588 90.3876 77.7588 97.6618C77.7588 112.246 87.7623 124.499 101.286 127.921C106.304 129.196 111.642 129.196 116.66 127.921C130.184 124.499 140.188 112.246 140.188 97.6618C140.188 80.4206 126.214 66.4473 108.973 66.4473Z" fill="black"/>
<path d="M100.93 113.41L100.927 113.412V113.415L99.7063 127.479C102.634 128.388 105.749 128.877 108.974 128.877C112.202 128.877 115.32 128.388 118.248 127.475L117.027 113.415L117.021 113.412C122.688 110.493 126.563 104.588 126.563 97.7729C126.563 90.6494 122.324 84.5109 116.234 81.749L115.037 81.2771V97.7729H102.806V81.2681L101.501 81.8477C95.5253 84.6591 91.3853 90.7338 91.3853 97.7727C91.3853 104.588 95.2659 110.49 100.93 113.41Z" fill="black"/>
<path d="M108.973 66.4473C103.37 66.4473 98.1129 67.9244 93.5673 70.5085L82.2686 67.1493L84.4168 78.3883C80.2462 83.6952 77.7588 90.3876 77.7588 97.6618C77.7588 112.246 87.7623 124.499 101.286 127.921C106.304 129.196 111.642 129.196 116.66 127.921C130.184 124.499 140.188 112.246 140.188 97.6618C140.188 80.4206 126.214 66.4473 108.973 66.4473Z" stroke="#FEBE73" stroke-width="3" stroke-miterlimit="10" stroke-linecap="round" stroke-linejoin="round"/>
<path d="M100.93 113.41L100.927 113.412V113.415L99.7063 127.479C102.634 128.388 105.749 128.877 108.974 128.877C112.202 128.877 115.32 128.388 118.248 127.475L117.027 113.415L117.021 113.412C122.688 110.493 126.563 104.588 126.563 97.7729C126.563 90.6494 122.324 84.5109 116.234 81.749L115.037 81.2771V97.7729H102.806V81.2681L101.501 81.8477C95.5253 84.6591 91.3853 90.7338 91.3853 97.7727C91.3853 104.588 95.2659 110.49 100.93 113.41Z" stroke="#FEBE73" stroke-width="3" stroke-miterlimit="10" stroke-linecap="round" stroke-linejoin="round"/>
<path d="M34.0657 3.12305H10.6348C10.6348 12.6642 18.3694 20.3988 27.9105 20.3988H68.8645V37.6746H95.7312V17.2516L81.6026 3.12305H58.9836H34.0657Z" fill="black"/>
<path d="M101.226 37.6753V67.4161C98.513 68.1077 95.9418 69.1565 93.5667 70.5087L82.2677 67.1497L84.4165 78.389C80.2467 83.6954 77.7579 90.388 77.7579 97.6617C77.7579 102.512 78.8635 107.101 80.8362 111.194H62.2835V92.6757L26.3206 66.4581V79.5427H1.8125V61.4097C1.8125 56.8346 3.62937 52.4494 6.86375 49.2153C10.0981 45.9781 14.4859 44.1612 19.061 44.1612H34.4333C36.9789 44.1612 39.493 44.7254 41.7947 45.8138L62.2835 59.8763V37.6753H101.226Z" fill="black"/>
<path d="M34.0657 3.12305H10.6348C10.6348 12.6642 18.3694 20.3988 27.9105 20.3988H68.8645V37.6746H95.7312V17.2516L81.6026 3.12305H58.9836" stroke="#FEBE73" stroke-width="3" stroke-miterlimit="10" stroke-linecap="round" stroke-linejoin="round"/>
<path d="M101.226 37.6753V67.4161C98.513 68.1077 95.9418 69.1565 93.5667 70.5087L82.2677 67.1497L84.4165 78.389C80.2467 83.6954 77.7579 90.388 77.7579 97.6617C77.7579 102.512 78.8635 107.101 80.8362 111.194H62.2835V92.6757L26.3206 66.4581V79.5427H1.8125V61.4097C1.8125 56.8346 3.62937 52.4494 6.86375 49.2153C10.0981 45.9781 14.4859 44.1612 19.061 44.1612H34.4333C36.9789 44.1612 39.493 44.7254 41.7947 45.8138L62.2835 59.8763V37.6753H101.226Z" stroke="#FEBE73" stroke-width="3" stroke-miterlimit="10" stroke-linecap="round" stroke-linejoin="round"/>
<path d="M13.364 90.3472L7.11602 101.747C6.53187 102.813 6.22559 104.009 6.22559 105.224V105.3C6.22559 109.296 9.46474 112.535 13.4605 112.535H13.6047C17.6005 112.535 20.8396 109.296 20.8396 105.3C20.8396 104.036 20.5086 102.795 19.8794 101.699L13.364 90.3472Z" fill="black"/>
<path d="M13.364 90.3472L7.11602 101.747C6.53187 102.813 6.22559 104.009 6.22559 105.224V105.3C6.22559 109.296 9.46474 112.535 13.4605 112.535H13.6047C17.6005 112.535 20.8396 109.296 20.8396 105.3C20.8396 104.036 20.5086 102.795 19.8794 101.699L13.364 90.3472Z" stroke="#FEBE73" stroke-width="3" stroke-miterlimit="10" stroke-linecap="round" stroke-linejoin="round"/>
<circle cx="46.79" cy="3.12305" r="2.8125" fill="black"/>
</svg>
