<svg width="40" height="40" viewBox="0 0 40 40" fill="none" xmlns="http://www.w3.org/2000/svg">
<g clip-path="url(#clip0_500_11394)">
<path d="M39.3957 30.0652C39.3711 29.689 39.0692 29.3897 38.6933 29.3596L37.3691 29.2537C37.1911 28.374 36.8436 27.5565 36.3643 26.8338L37.2275 25.8206C37.472 25.5336 37.4739 25.1084 37.2252 24.8249C37.1033 24.686 36.9764 24.5501 36.8438 24.4175C36.7113 24.285 36.5753 24.1579 36.4364 24.0361C36.1529 23.7875 35.7277 23.7893 35.4407 24.0338L34.4274 24.8969C33.7046 24.4177 32.8872 24.0701 32.0075 23.8922L31.9016 22.568C31.8715 22.1921 31.5722 21.8901 31.196 21.8655C31.0116 21.8535 30.8257 21.8472 30.6382 21.8472C30.4508 21.8472 30.2649 21.8535 30.0805 21.8655C29.7043 21.8901 29.405 22.1921 29.3749 22.568L29.2689 23.8922C28.3893 24.0701 27.5718 24.4177 26.8491 24.8969L25.8358 24.0338C25.5488 23.7893 25.1236 23.7874 24.8401 24.0361C24.7012 24.1579 24.5653 24.2849 24.4327 24.4175C24.3001 24.5501 24.1732 24.686 24.0513 24.8249C23.8027 25.1083 23.8045 25.5336 24.049 25.8206L24.9121 26.8338C24.4329 27.5565 24.0854 28.374 23.9074 29.2537L22.5832 29.3596C22.2073 29.3897 21.9054 29.689 21.8807 30.0652C21.8687 30.2496 21.8623 30.4355 21.8623 30.623C21.8623 30.8104 21.8686 30.9963 21.8807 31.1807C21.9054 31.5569 22.2073 31.8563 22.5832 31.8864L23.9074 31.9923C24.0854 32.872 24.4329 33.6894 24.9121 34.4122L24.049 35.4254C23.8045 35.7125 23.8026 36.1376 24.0513 36.4211C24.1732 36.56 24.3001 36.6959 24.4327 36.8285C24.5652 36.9611 24.7012 37.088 24.8401 37.2099C25.1236 37.4585 25.5488 37.4567 25.8358 37.2122L26.8491 36.349C27.5718 36.8283 28.3893 37.1758 29.2689 37.3538L29.3749 38.678C29.405 39.0539 29.7043 39.3558 30.0805 39.3805C30.2649 39.3926 30.4508 39.3989 30.6382 39.3989C30.8257 39.3989 31.0116 39.3926 31.196 39.3805C31.5722 39.3558 31.8715 39.0539 31.9016 38.678L32.0075 37.3538C32.8872 37.1758 33.7046 36.8283 34.4274 36.349L35.4407 37.2122C35.7277 37.4567 36.1529 37.4585 36.4364 37.2099C36.5753 37.0881 36.7112 36.9611 36.8438 36.8285C36.9764 36.696 37.1033 36.56 37.2252 36.4211C37.4738 36.1376 37.472 35.7125 37.2275 35.4254L36.3643 34.4122C36.8436 33.6894 37.1911 32.872 37.3691 31.9923L38.6933 31.8864C39.0692 31.8563 39.3711 31.557 39.3957 31.1807C39.4078 30.9963 39.4142 30.8104 39.4142 30.623C39.4142 30.4355 39.4079 30.2496 39.3957 30.0652Z" stroke="white" stroke-miterlimit="10" stroke-linecap="round" stroke-linejoin="round"/>
<path d="M1.8374 18.9824V28.2418C1.8374 29.5654 2.91037 30.6384 4.23396 30.6384H19.3591" stroke="white" stroke-miterlimit="10" stroke-linecap="round" stroke-linejoin="round"/>
<path d="M11.2241 20.626H5.59211C2.82727 20.626 0.585938 18.3847 0.585938 15.6198V8.11055C0.585938 6.72812 1.70664 5.60742 3.08906 5.60742H28.12C29.5024 5.60742 30.6231 6.72812 30.6231 8.11055V15.6198C30.6231 18.3847 28.3818 20.626 25.617 20.626H13.7272" stroke="white" stroke-miterlimit="10" stroke-linecap="round" stroke-linejoin="round"/>
<path d="M9.97266 5.60732L10.8687 2.02311C11.0776 1.1874 11.8285 0.601074 12.6899 0.601074H18.5192C19.3806 0.601074 20.1316 1.18732 20.3405 2.02311L21.2365 5.60732" stroke="white" stroke-miterlimit="10" stroke-linecap="round" stroke-linejoin="round"/>
<path d="M10.5981 3.10449H20.6106" stroke="white" stroke-miterlimit="10" stroke-linecap="round" stroke-linejoin="round"/>
<path d="M16.2302 23.1288H14.9786C14.2874 23.1288 13.7271 22.5685 13.7271 21.8772V19.3741C13.7271 18.6829 14.2874 18.1226 14.9786 18.1226H16.2302C16.9213 18.1226 17.4817 18.6829 17.4817 19.3741V21.8772C17.4817 22.5685 16.9214 23.1288 16.2302 23.1288Z" stroke="white" stroke-miterlimit="10" stroke-linecap="round" stroke-linejoin="round"/>
<path d="M32.2387 27.253C31.7488 27.0188 31.2025 26.8838 30.6233 26.8838C28.5496 26.8838 26.8687 28.5648 26.8687 30.6384C26.8687 31.2176 27.0037 31.7639 27.2379 32.2539" stroke="white" stroke-miterlimit="10" stroke-linecap="round" stroke-linejoin="round"/>
<path d="M29.0078 34.0238C29.4977 34.258 30.0441 34.393 30.6233 34.393C32.697 34.393 34.3779 32.712 34.3779 30.6384C34.3779 30.0592 34.2429 29.5129 34.0086 29.0229" stroke="white" stroke-miterlimit="10" stroke-linecap="round" stroke-linejoin="round"/>
</g>
<defs>
<clipPath id="clip0_500_11394">
<rect width="40" height="40" fill="white"/>
</clipPath>
</defs>
</svg>
