<svg width="24" height="24" viewBox="0 0 24 24" fill="none" xmlns="http://www.w3.org/2000/svg">
<g clip-path="url(#clip0_507_29322)">
<path d="M9.615 19.5H7C6.46957 19.5 5.96086 19.2893 5.58579 18.9142C5.21071 18.5391 5 18.0304 5 17.5V5.5C5 4.96957 5.21071 4.46086 5.58579 4.08579C5.96086 3.71071 6.46957 3.5 7 3.5H15C15.5304 3.5 16.0391 3.71071 16.4142 4.08579C16.7893 4.46086 17 4.96957 17 5.5V10.5" stroke="white" stroke-width="1.5" stroke-linecap="round" stroke-linejoin="round"/>
<path d="M9 7.5H13" stroke="white" stroke-width="1.5" stroke-linecap="round" stroke-linejoin="round"/>
<path d="M9 11.5H11" stroke="white" stroke-width="1.5" stroke-linecap="round" stroke-linejoin="round"/>
<path d="M20 17.5H14C13.4477 17.5 13 17.9477 13 18.5V21.5C13 22.0523 13.4477 22.5 14 22.5H20C20.5523 22.5 21 22.0523 21 21.5V18.5C21 17.9477 20.5523 17.5 20 17.5Z" stroke="white" stroke-width="1.5" stroke-linecap="round" stroke-linejoin="round"/>
<path d="M15 17.5V15.5C15 14.9696 15.2107 14.4609 15.5858 14.0858C15.9609 13.7107 16.4696 13.5 17 13.5C17.5304 13.5 18.0391 13.7107 18.4142 14.0858C18.7893 14.4609 19 14.9696 19 15.5V17.5" stroke="white" stroke-width="1.5" stroke-linecap="round" stroke-linejoin="round"/>
</g>
<defs>
<clipPath id="clip0_507_29322">
<rect width="24" height="24" fill="white"/>
</clipPath>
</defs>
</svg>
