<svg width="18" height="18" viewBox="0 0 18 18" fill="none" xmlns="http://www.w3.org/2000/svg">
<g clip-path="url(#clip0_525_4577)">
<path d="M18 9C18 9.19891 17.921 9.38968 17.7803 9.53033C17.6397 9.67098 17.4489 9.75 17.25 9.75C17.0511 9.75 16.8603 9.67098 16.7197 9.53033C16.579 9.38968 16.5 9.19891 16.5 9C16.4978 7.01155 15.7069 5.10516 14.3009 3.69911C12.8948 2.29306 10.9885 1.50218 9 1.5C8.80109 1.5 8.61032 1.42098 8.46967 1.28033C8.32902 1.13968 8.25 0.948912 8.25 0.75C8.25 0.551088 8.32902 0.360322 8.46967 0.21967C8.61032 0.0790176 8.80109 0 9 0C11.3862 0.00258081 13.6738 0.951621 15.3611 2.63889C17.0484 4.32616 17.9974 6.61384 18 9ZM12 9.75C12.1989 9.75 12.3897 9.67098 12.5303 9.53033C12.671 9.38968 12.75 9.19891 12.75 9C12.75 8.80109 12.671 8.61032 12.5303 8.46967C12.3897 8.32902 12.1989 8.25 12 8.25H10.2922C10.1615 8.02532 9.97468 7.83846 9.75 7.70775V5.25C9.75 5.05109 9.67098 4.86032 9.53033 4.71967C9.38968 4.57902 9.19891 4.5 9 4.5C8.80109 4.5 8.61032 4.57902 8.46967 4.71967C8.32902 4.86032 8.25 5.05109 8.25 5.25V7.70775C8.05108 7.82229 7.88119 7.98108 7.7535 8.17182C7.62581 8.36256 7.54374 8.58014 7.51365 8.8077C7.48355 9.03525 7.50624 9.26668 7.57996 9.48406C7.65368 9.70144 7.77645 9.89893 7.93876 10.0612C8.10107 10.2236 8.29856 10.3463 8.51594 10.42C8.73332 10.4938 8.96475 10.5164 9.1923 10.4864C9.41986 10.4563 9.63744 10.3742 9.82818 10.2465C10.0189 10.1188 10.1777 9.94892 10.2922 9.75H12ZM1.37025 5.088C1.22191 5.088 1.07691 5.13199 0.953573 5.2144C0.830236 5.29681 0.734106 5.41394 0.677341 5.55099C0.620575 5.68803 0.605722 5.83883 0.634661 5.98432C0.6636 6.1298 0.735031 6.26344 0.83992 6.36833C0.94481 6.47322 1.07845 6.54465 1.22393 6.57359C1.36942 6.60253 1.52022 6.58768 1.65726 6.53091C1.79431 6.47414 1.91144 6.37801 1.99385 6.25468C2.07626 6.13134 2.12025 5.98634 2.12025 5.838C2.12025 5.63909 2.04123 5.44832 1.90058 5.30767C1.75993 5.16702 1.56916 5.088 1.37025 5.088ZM1.5 9C1.5 8.85166 1.45601 8.70666 1.3736 8.58332C1.29119 8.45998 1.17406 8.36386 1.03701 8.30709C0.899968 8.25032 0.749168 8.23547 0.603683 8.26441C0.458197 8.29335 0.32456 8.36478 0.21967 8.46967C0.114781 8.57456 0.0433503 8.7082 0.0144114 8.85368C-0.0145275 8.99917 0.000324961 9.14997 0.0570907 9.28701C0.113856 9.42406 0.209986 9.54119 0.333323 9.6236C0.45666 9.70601 0.601664 9.75 0.75 9.75C0.948913 9.75 1.13968 9.67098 1.28033 9.53033C1.42098 9.38968 1.5 9.19891 1.5 9ZM9 16.5C8.85166 16.5 8.70666 16.544 8.58332 16.6264C8.45998 16.7088 8.36386 16.8259 8.30709 16.963C8.25032 17.1 8.23547 17.2508 8.26441 17.3963C8.29335 17.5418 8.36478 17.6754 8.46967 17.7803C8.57456 17.8852 8.7082 17.9566 8.85368 17.9856C8.99917 18.0145 9.14997 17.9997 9.28701 17.9429C9.42406 17.8861 9.54119 17.79 9.6236 17.6667C9.70601 17.5433 9.75 17.3983 9.75 17.25C9.75 17.0511 9.67098 16.8603 9.53033 16.7197C9.38968 16.579 9.19891 16.5 9 16.5ZM3.16575 2.40525C3.01741 2.40525 2.87241 2.44924 2.74907 2.53165C2.62574 2.61406 2.52961 2.73119 2.47284 2.86824C2.41607 3.00528 2.40122 3.15608 2.43016 3.30157C2.4591 3.44705 2.53053 3.58069 2.63542 3.68558C2.74031 3.79047 2.87395 3.8619 3.01943 3.89084C3.16492 3.91978 3.31572 3.90493 3.45276 3.84816C3.58981 3.79139 3.70694 3.69526 3.78935 3.57193C3.87176 3.44859 3.91575 3.30359 3.91575 3.15525C3.91575 2.95634 3.83673 2.76557 3.69608 2.62492C3.55543 2.48427 3.36466 2.40525 3.16575 2.40525ZM5.83425 0.63075C5.68591 0.63075 5.54091 0.674737 5.41757 0.757148C5.29424 0.839559 5.19811 0.956693 5.14134 1.09374C5.08458 1.23078 5.06972 1.38158 5.09866 1.52707C5.1276 1.67255 5.19903 1.80619 5.30392 1.91108C5.40881 2.01597 5.54245 2.0874 5.68793 2.11634C5.83342 2.14528 5.98422 2.13043 6.12126 2.07366C6.25831 2.01689 6.37544 1.92076 6.45785 1.79743C6.54026 1.67409 6.58425 1.52909 6.58425 1.38075C6.58425 1.18184 6.50523 0.991072 6.36458 0.85042C6.22393 0.709768 6.03316 0.63075 5.83425 0.63075ZM1.37025 11.412C1.22191 11.412 1.07691 11.456 0.953573 11.5384C0.830236 11.6208 0.734106 11.7379 0.677341 11.875C0.620575 12.012 0.605722 12.1628 0.634661 12.3083C0.6636 12.4538 0.735031 12.5874 0.83992 12.6923C0.94481 12.7972 1.07845 12.8686 1.22393 12.8976C1.36942 12.9265 1.52022 12.9117 1.65726 12.8549C1.79431 12.7981 1.91144 12.702 1.99385 12.5787C2.07626 12.4553 2.12025 12.3103 2.12025 12.162C2.12025 11.9631 2.04123 11.7723 1.90058 11.6317C1.75993 11.491 1.56916 11.412 1.37025 11.412ZM3.16575 14.0947C3.01741 14.0947 2.87241 14.1387 2.74907 14.2211C2.62574 14.3036 2.52961 14.4207 2.47284 14.5577C2.41607 14.6948 2.40122 14.8456 2.43016 14.9911C2.4591 15.1366 2.53053 15.2702 2.63542 15.3751C2.74031 15.48 2.87395 15.5514 3.01943 15.5803C3.16492 15.6093 3.31572 15.5944 3.45276 15.5377C3.58981 15.4809 3.70694 15.3848 3.78935 15.2614C3.87176 15.1381 3.91575 14.9931 3.91575 14.8447C3.91575 14.6458 3.83673 14.4551 3.69608 14.3144C3.55543 14.1738 3.36466 14.0947 3.16575 14.0947ZM5.83425 15.8693C5.68591 15.8693 5.54091 15.9132 5.41757 15.9956C5.29424 16.0781 5.19811 16.1952 5.14134 16.3322C5.08458 16.4693 5.06972 16.6201 5.09866 16.7656C5.1276 16.9111 5.19903 17.0447 5.30392 17.1496C5.40881 17.2545 5.54245 17.3259 5.68793 17.3548C5.83342 17.3838 5.98422 17.3689 6.12126 17.3122C6.25831 17.2554 6.37544 17.1593 6.45785 17.0359C6.54026 16.9126 6.58425 16.7676 6.58425 16.6193C6.58425 16.4203 6.50523 16.2296 6.36458 16.0889C6.22393 15.9483 6.03316 15.8693 5.83425 15.8693ZM16.6297 11.412C16.4814 11.412 16.3364 11.456 16.2131 11.5384C16.0897 11.6208 15.9936 11.7379 15.9368 11.875C15.8801 12.012 15.8652 12.1628 15.8942 12.3083C15.9231 12.4538 15.9945 12.5874 16.0994 12.6923C16.2043 12.7972 16.3379 12.8686 16.4834 12.8976C16.6289 12.9265 16.7797 12.9117 16.9168 12.8549C17.0538 12.7981 17.1709 12.702 17.2534 12.5787C17.3358 12.4553 17.3797 12.3103 17.3797 12.162C17.3797 12.0635 17.3604 11.966 17.3227 11.875C17.285 11.784 17.2297 11.7013 17.1601 11.6317C17.0904 11.562 17.0078 11.5068 16.9168 11.4691C16.8258 11.4314 16.7282 11.412 16.6297 11.412ZM14.8342 14.0947C14.6859 14.0947 14.5409 14.1387 14.4176 14.2211C14.2942 14.3036 14.1981 14.4207 14.1413 14.5577C14.0846 14.6948 14.0697 14.8456 14.0987 14.9911C14.1276 15.1366 14.199 15.2702 14.3039 15.3751C14.4088 15.48 14.5424 15.5514 14.6879 15.5803C14.8334 15.6093 14.9842 15.5944 15.1213 15.5377C15.2583 15.4809 15.3754 15.3848 15.4579 15.2614C15.5403 15.1381 15.5842 14.9931 15.5842 14.8447C15.5842 14.7463 15.5648 14.6487 15.5272 14.5577C15.4895 14.4667 15.4342 14.3841 15.3646 14.3144C15.2949 14.2448 15.2123 14.1895 15.1213 14.1518C15.0303 14.1141 14.9327 14.0947 14.8342 14.0947ZM12.1658 15.8693C12.0174 15.8693 11.8724 15.9132 11.7491 15.9956C11.6257 16.0781 11.5296 16.1952 11.4728 16.3322C11.4161 16.4693 11.4012 16.6201 11.4302 16.7656C11.4591 16.9111 11.5305 17.0447 11.6354 17.1496C11.7403 17.2545 11.8739 17.3259 12.0194 17.3548C12.1649 17.3838 12.3157 17.3689 12.4528 17.3122C12.5898 17.2554 12.7069 17.1593 12.7894 17.0359C12.8718 16.9126 12.9158 16.7676 12.9158 16.6193C12.9158 16.5208 12.8964 16.4232 12.8587 16.3322C12.821 16.2412 12.7657 16.1586 12.6961 16.0889C12.6264 16.0193 12.5438 15.964 12.4528 15.9263C12.3618 15.8886 12.2642 15.8693 12.1658 15.8693Z" fill="#F9A600"/>
</g>
<defs>
<clipPath id="clip0_525_4577">
<rect width="18" height="18" fill="white"/>
</clipPath>
</defs>
</svg>
