<svg width="40" height="40" viewBox="0 0 40 40" fill="none" xmlns="http://www.w3.org/2000/svg">
<g clip-path="url(#clip0_505_12850)">
<path d="M28.9287 17.4019L34.0425 18.5706" stroke="white" stroke-miterlimit="10" stroke-linecap="round" stroke-linejoin="round"/>
<path d="M5.95752 18.5709L11.0614 17.4043" stroke="white" stroke-miterlimit="10" stroke-linecap="round" stroke-linejoin="round"/>
<path d="M14.1997 12.9975L15.6406 12.7881C15.9662 12.7408 16.2478 12.5363 16.3934 12.2411L19.1032 6.75069C19.4699 6.00758 20.5296 6.00758 20.8964 6.75069L23.6062 12.2412C23.7518 12.5363 24.0333 12.7408 24.359 12.7882L30.4181 13.6686C31.2382 13.7878 31.5656 14.7956 30.9722 15.3741L26.5877 19.6479C26.4016 19.8293 26.2954 20.074 26.2864 20.3286" stroke="white" stroke-miterlimit="10" stroke-linecap="round" stroke-linejoin="round"/>
<path d="M13.7137 20.3364C13.7066 20.079 13.6001 19.8313 13.4121 19.648L9.02765 15.3742C8.43423 14.7958 8.76166 13.788 9.58176 13.6688L11.5328 13.3853" stroke="white" stroke-miterlimit="10" stroke-linecap="round" stroke-linejoin="round"/>
<path d="M10.0443 37.1587L6.58111 36.3671C6.21624 36.2837 5.95752 35.9592 5.95752 35.5848V24.9165" stroke="white" stroke-miterlimit="10" stroke-linecap="round" stroke-linejoin="round"/>
<path d="M34.0426 24.9414V35.5848C34.0426 35.9591 33.7839 36.2837 33.419 36.3671L20.1743 39.3945C20.0596 39.4207 19.9406 39.4207 19.826 39.3945L12.7061 37.7671" stroke="white" stroke-miterlimit="10" stroke-linecap="round" stroke-linejoin="round"/>
<path d="M20 32.7861V39.317" stroke="white" stroke-miterlimit="10" stroke-linecap="round" stroke-linejoin="round"/>
<path d="M20 21.7808V30.0504" stroke="white" stroke-miterlimit="10" stroke-linecap="round" stroke-linejoin="round"/>
<path d="M30.7202 25.6591L39.2181 23.7465L34.0425 18.5708L19.9999 21.7805L5.95739 18.5708L0.781738 23.7465L14.8644 26.9161L19.9999 21.7805" stroke="white" stroke-miterlimit="10" stroke-linecap="round" stroke-linejoin="round"/>
<path d="M20 21.7808L25.1356 26.9163L28.0657 26.2568" stroke="white" stroke-miterlimit="10" stroke-linecap="round" stroke-linejoin="round"/>
<path d="M20 0.586426V2.99373" stroke="white" stroke-miterlimit="10" stroke-linecap="round" stroke-linejoin="round"/>
<path d="M20 0.586426V2.99373" stroke="white" stroke-miterlimit="10" stroke-linecap="round" stroke-linejoin="round"/>
<path d="M26.4907 5.68262L24.9434 7.52675" stroke="white" stroke-miterlimit="10" stroke-linecap="round" stroke-linejoin="round"/>
<path d="M26.4907 5.68262L24.9434 7.52675" stroke="white" stroke-miterlimit="10" stroke-linecap="round" stroke-linejoin="round"/>
<path d="M33.6043 8.33838L31.7603 9.8858" stroke="white" stroke-miterlimit="10" stroke-linecap="round" stroke-linejoin="round"/>
<path d="M33.6043 8.33838L31.7603 9.8858" stroke="white" stroke-miterlimit="10" stroke-linecap="round" stroke-linejoin="round"/>
<path d="M13.5088 5.68262L15.0561 7.52675" stroke="white" stroke-miterlimit="10" stroke-linecap="round" stroke-linejoin="round"/>
<path d="M13.5088 5.68262L15.0561 7.52675" stroke="white" stroke-miterlimit="10" stroke-linecap="round" stroke-linejoin="round"/>
<path d="M6.39551 8.33838L8.23956 9.8858" stroke="white" stroke-miterlimit="10" stroke-linecap="round" stroke-linejoin="round"/>
<path d="M6.39551 8.33838L8.23956 9.8858" stroke="white" stroke-miterlimit="10" stroke-linecap="round" stroke-linejoin="round"/>
</g>
<defs>
<clipPath id="clip0_505_12850">
<rect width="40" height="40" fill="white"/>
</clipPath>
</defs>
</svg>
