<svg width="17" height="16" viewBox="0 0 17 16" fill="none" xmlns="http://www.w3.org/2000/svg">
<path d="M4.83333 8.83311V2.16645C4.83333 1.94543 4.74554 1.73347 4.58926 1.57719C4.43298 1.42091 4.22101 1.33311 4 1.33311H2.33333C2.11232 1.33311 1.90036 1.42091 1.74408 1.57719C1.5878 1.73347 1.5 1.94543 1.5 2.16645V7.99978C1.5 8.22079 1.5878 8.43276 1.74408 8.58904C1.90036 8.74532 2.11232 8.83311 2.33333 8.83311H4.83333ZM4.83333 8.83311C5.71739 8.83311 6.56524 9.1843 7.19036 9.80943C7.81548 10.4345 8.16667 11.2824 8.16667 12.1664V12.9998C8.16667 13.4418 8.34226 13.8657 8.65482 14.1783C8.96738 14.4909 9.39131 14.6664 9.83333 14.6664C10.2754 14.6664 10.6993 14.4909 11.0118 14.1783C11.3244 13.8657 11.5 13.4418 11.5 12.9998V8.83311H14C14.442 8.83311 14.866 8.65752 15.1785 8.34496C15.4911 8.0324 15.6667 7.60848 15.6667 7.16645L14.8333 2.99978C14.7135 2.48855 14.4861 2.04958 14.1855 1.74898C13.8849 1.44838 13.5274 1.30243 13.1667 1.33311H7.33333C6.67029 1.33311 6.03441 1.59651 5.56557 2.06535C5.09673 2.53419 4.83333 3.17007 4.83333 3.83311" stroke="#FEBE73" stroke-width="1.8" stroke-linecap="round" stroke-linejoin="round"/>
</svg>
