<svg width="40" height="40" viewBox="0 0 40 40" fill="none" xmlns="http://www.w3.org/2000/svg">
<path fill-rule="evenodd" clip-rule="evenodd" d="M25.7037 1.25049H27.6803C28.0847 1.25131 28.4723 1.41232 28.7582 1.69827C29.0442 1.98421 29.2052 2.3718 29.206 2.77619V3.43877C30.0488 3.66143 30.8577 3.99666 31.6109 4.43541L32.0797 3.96666C32.3662 3.68129 32.7541 3.52107 33.1584 3.52107C33.5628 3.52107 33.9507 3.68129 34.2372 3.96666L35.6351 5.36424C35.9205 5.65075 36.0808 6.03867 36.0808 6.44307C36.0808 6.84746 35.9205 7.23539 35.6351 7.52189L35.1664 7.99064C35.6051 8.74381 35.9404 9.55268 36.163 10.3954H36.8256C37.23 10.3962 37.6177 10.5572 37.9037 10.8431C38.1897 11.1291 38.3507 11.5167 38.3515 11.9211V13.8977C38.3507 14.3021 38.1897 14.6897 37.9038 14.9756C37.6178 15.2615 37.2302 15.4226 36.8258 15.4234H36.1633C35.9405 16.2661 35.6053 17.075 35.1667 17.8282L35.6355 18.297C35.9208 18.5835 36.0811 18.9714 36.0811 19.3758C36.0811 19.7801 35.9208 20.1681 35.6355 20.4546L34.2377 21.8523C33.9512 22.1377 33.5633 22.298 33.1589 22.298C32.7545 22.298 32.3666 22.1377 32.0801 21.8523L31.6114 21.3835C30.8581 21.8221 30.0492 22.1573 29.2065 22.3801V23.0426C29.2056 23.447 29.0446 23.8346 28.7587 24.1206C28.4728 24.4065 28.0852 24.5675 27.6808 24.5684H25.7042C25.2998 24.5675 24.9123 24.4065 24.6263 24.1205C24.3404 23.8346 24.1794 23.447 24.1785 23.0426V22.3801C23.3358 22.1574 22.527 21.8222 21.7738 21.3835L21.3051 21.8522C21.0186 22.1376 20.6306 22.2979 20.2262 22.2979C19.8218 22.2979 19.4339 22.1376 19.1474 21.8522L17.7498 20.4545C17.4649 20.1677 17.3051 19.7799 17.3051 19.3757C17.3051 18.9715 17.4649 18.5837 17.7498 18.297L18.2185 17.8282C17.7799 17.075 17.4447 16.2661 17.2219 15.4234H16.5594C16.155 15.4227 15.7673 15.2619 15.4812 14.976C15.1952 14.6902 15.034 14.3026 15.033 13.8982V11.9217C15.0339 11.5173 15.1949 11.1297 15.4809 10.8438C15.7668 10.5579 16.1544 10.3968 16.5587 10.396H17.2213C17.4441 9.5533 17.7793 8.74447 18.218 7.99127L17.7492 7.52252C17.4638 7.23601 17.3036 6.84809 17.3036 6.44369C17.3036 6.03929 17.4638 5.65137 17.7492 5.36486L19.1469 3.9665C19.2875 3.82294 19.4553 3.70887 19.6405 3.63101C19.8258 3.55314 20.0247 3.51303 20.2256 3.51303C20.4266 3.51303 20.6255 3.55314 20.8108 3.63101C20.996 3.70887 21.1638 3.82294 21.3044 3.9665L21.7732 4.43525C22.5263 3.99649 23.3352 3.66125 24.1779 3.43861V2.77619C24.1787 2.37181 24.3397 1.98423 24.6257 1.69829C24.9116 1.41235 25.2992 1.25133 25.7036 1.25049H25.7037ZM2.64975 26.9382L9.37405 37.5649L13.0537 35.2364C10.8124 31.6941 8.57103 28.1519 6.32952 24.6097L2.64975 26.9382ZM8.79819 38.5163C8.86847 38.6281 8.98024 38.7073 9.10892 38.7366C9.2376 38.7659 9.37265 38.7429 9.48436 38.6726L14.0055 35.8123C14.1172 35.742 14.1965 35.6302 14.2258 35.5015C14.2551 35.3728 14.232 35.2378 14.1618 35.126L13.779 34.5206L14.2609 34.2393L22.6922 35.4569C23.794 35.6309 24.921 35.384 25.8492 34.7654L37.2969 28.1566C37.5741 28.0022 37.818 27.7946 38.0147 27.5457C38.2114 27.2967 38.357 27.0114 38.4431 26.706C38.5292 26.4006 38.5541 26.0812 38.5164 25.7662C38.4787 25.4512 38.3791 25.1467 38.2233 24.8703C38.0705 24.5994 37.8655 24.3616 37.62 24.1706C37.3746 23.9795 37.0937 23.8391 36.7937 23.7574C36.1813 23.5901 35.5283 23.6603 34.9655 23.954L28.1271 27.4971C27.8354 26.9836 27.3641 26.596 26.804 26.4089L17.3287 23.2356C16.3666 22.9005 15.3185 22.906 14.36 23.2513L8.03452 25.4435L6.90514 23.658C6.87034 23.6027 6.82499 23.5547 6.77167 23.517C6.71835 23.4792 6.6581 23.4522 6.59438 23.4377C6.53065 23.4232 6.4647 23.4214 6.40027 23.4324C6.33584 23.4434 6.27421 23.4669 6.21889 23.5017L1.69803 26.3628C1.64271 26.3975 1.59478 26.4429 1.55698 26.4962C1.51918 26.5495 1.49226 26.6098 1.47775 26.6735C1.46324 26.7372 1.46143 26.8031 1.47241 26.8676C1.4834 26.932 1.50697 26.9936 1.54178 27.0489L8.79811 38.5166L8.79819 38.5163ZM8.58045 26.306L13.2452 33.6779L13.8943 33.2994C13.9941 33.2364 14.113 33.211 14.2298 33.2278L22.8323 34.4699C23.2615 34.536 23.6991 34.5237 24.124 34.4335C24.6162 34.3257 24.9072 34.16 25.3326 33.9156C29.1602 31.7059 32.9824 29.4594 36.8255 27.2799C37.1495 27.095 37.3872 26.7895 37.4869 26.4301C37.5867 26.0706 37.5403 25.6863 37.3579 25.361C37.2691 25.2039 37.1501 25.066 37.0077 24.9553C36.8653 24.8446 36.7023 24.7632 36.5282 24.716C36.157 24.6158 35.7617 24.6595 35.4214 24.8384L28.4328 28.4595C28.4598 28.7389 28.4242 29.3153 28.2692 29.5594C27.9944 30.1087 27.5537 30.5575 27.0096 30.8424C26.7439 30.9781 26.4537 31.059 26.1561 31.0802C25.8586 31.1015 25.5598 31.0626 25.2776 30.966L18.3557 28.6479C18.292 28.6286 18.2328 28.5968 18.1816 28.5542C18.1304 28.5116 18.0883 28.4592 18.0578 28.4C18.0272 28.3409 18.0088 28.2762 18.0037 28.2098C17.9987 28.1434 18.0069 28.0767 18.0281 28.0136C18.0493 27.9505 18.0829 27.8922 18.127 27.8423C18.171 27.7924 18.2247 27.7519 18.2847 27.7231C18.3447 27.6943 18.4099 27.6779 18.4764 27.6748C18.5429 27.6717 18.6094 27.6819 18.6719 27.7049L25.5937 30.0232C25.7523 30.0769 25.9201 30.0981 26.0871 30.0856C26.254 30.073 26.4168 30.0271 26.5656 29.9504C26.9206 29.7614 27.2074 29.466 27.3859 29.1057C27.4928 28.7542 27.4589 28.3748 27.2915 28.0478C27.124 27.7207 26.8361 27.4715 26.4884 27.3526L17.013 24.1795C16.2588 23.9134 15.4355 23.9176 14.684 24.1914L8.58077 26.3065L8.58045 26.306ZM26.6922 9.52119C26.0994 9.52112 25.525 9.72659 25.0667 10.1026C24.6085 10.4786 24.2948 11.0018 24.1791 11.5832C24.0634 12.1645 24.1529 12.768 24.4323 13.2908C24.7117 13.8136 25.1637 14.2233 25.7113 14.4502C26.2589 14.677 26.8683 14.707 27.4355 14.535C28.0027 14.3629 28.4928 13.9995 28.8221 13.5067C29.1514 13.0138 29.2997 12.422 29.2416 11.8321C29.1835 11.2422 28.9226 10.6907 28.5035 10.2716C28.2659 10.0334 27.9836 9.84442 27.6727 9.71565C27.3619 9.58687 27.0286 9.52079 26.6922 9.52119ZM27.7979 10.9773C27.5421 10.7214 27.2054 10.5622 26.8454 10.5267C26.4853 10.4912 26.1241 10.5817 25.8233 10.7827C25.5224 10.9837 25.3006 11.2828 25.1955 11.629C25.0905 11.9752 25.1088 12.3472 25.2472 12.6814C25.3857 13.0157 25.6357 13.2916 25.9548 13.4622C26.2739 13.6327 26.6422 13.6874 26.9971 13.6168C27.352 13.5462 27.6714 13.3548 27.9009 13.0751C28.1304 12.7954 28.2558 12.4448 28.2558 12.083C28.2561 11.8776 28.2158 11.6742 28.1372 11.4844C28.0586 11.2947 27.9433 11.1223 27.7979 10.9773ZM22.5098 15.8621C22.7055 15.6667 22.9273 15.4992 23.1688 15.3645C23.6084 15.1183 24.1039 14.989 24.6077 14.9889H28.7766C29.2804 14.989 29.7758 15.1183 30.2154 15.3645C30.4569 15.4992 30.6788 15.6667 30.8745 15.8621C31.4155 15.0957 31.7355 14.1953 31.7995 13.2593C31.8635 12.3233 31.6691 11.3877 31.2375 10.5548C30.8058 9.72179 30.1536 9.02344 29.352 8.53599C28.5504 8.04854 27.6303 7.79074 26.6921 7.79074C25.754 7.79074 24.8338 8.04854 24.0323 8.53599C23.2307 9.02344 22.5784 9.72179 22.1468 10.5548C21.7152 11.3877 21.5208 12.3233 21.5848 13.2593C21.6488 14.1953 21.9687 15.0957 22.5098 15.8621ZM30.2207 16.6183C30.0789 16.4653 29.914 16.3356 29.7319 16.2338C29.4397 16.0712 29.1108 15.9862 28.7765 15.987H24.6077C24.2734 15.9862 23.9445 16.0712 23.6523 16.2338C23.4702 16.3355 23.3051 16.4653 23.1633 16.6183C24.1151 17.5238 25.3784 18.0288 26.6921 18.0288C28.0057 18.0288 29.2691 17.5238 30.2208 16.6183H30.2207ZM26.692 6.79221C25.2768 6.79221 23.9053 7.28292 22.8113 8.18074C21.7173 9.07855 20.9685 10.3279 20.6924 11.716C20.4163 13.104 20.63 14.5448 21.2971 15.793C21.9642 17.0411 23.0435 18.0193 24.351 18.5609C25.6585 19.1025 27.1134 19.174 28.4677 18.7632C29.822 18.3524 30.9919 17.4847 31.7782 16.308C32.5645 15.1313 32.9185 13.7184 32.7798 12.3099C32.6411 10.9015 32.0183 9.58475 31.0176 8.584C30.4502 8.01508 29.776 7.5639 29.0337 7.25641C28.2913 6.94891 27.4955 6.79115 26.692 6.79221ZM27.6804 2.24869H25.7038C25.5641 2.24945 25.4304 2.30526 25.3316 2.40402C25.2328 2.50278 25.177 2.63651 25.1762 2.77619L25.1744 3.82916C25.1743 3.94236 25.1356 4.05215 25.0647 4.1404C24.9938 4.22866 24.895 4.29009 24.7844 4.31455C23.7976 4.533 22.8559 4.92036 22.0009 5.45955C21.9049 5.5335 21.7852 5.56995 21.6642 5.56212C21.5433 5.55428 21.4293 5.50269 21.3436 5.41697L20.5989 4.67221C20.5504 4.62238 20.4924 4.58279 20.4283 4.55575C20.3642 4.52871 20.2954 4.51478 20.2258 4.51478C20.1563 4.51478 20.0875 4.52871 20.0234 4.55575C19.9593 4.58279 19.9013 4.62238 19.8528 4.67221L18.4548 6.0701C18.3568 6.16951 18.3018 6.30354 18.3018 6.44318C18.3018 6.58283 18.3568 6.71686 18.4548 6.81627L19.1983 7.56252C19.2782 7.64254 19.3285 7.74744 19.3408 7.85989C19.3531 7.97234 19.3267 8.08562 19.2659 8.18104C18.7223 9.03351 18.3301 9.97351 18.1066 10.9596C18.0908 11.0796 18.0319 11.1899 17.9408 11.2698C17.8498 11.3497 17.7328 11.3937 17.6117 11.3938H16.5587C16.4191 11.3945 16.2853 11.4503 16.1865 11.5491C16.0878 11.6479 16.0319 11.7816 16.0312 11.9213V13.8978C16.0319 14.0375 16.0877 14.1713 16.1865 14.2701C16.2853 14.3689 16.419 14.4247 16.5587 14.4254L17.6117 14.4274C17.7249 14.4274 17.8347 14.4661 17.923 14.537C18.0112 14.6079 18.0726 14.7068 18.0971 14.8173C18.3156 15.8041 18.703 16.7458 19.2422 17.6007C19.3161 17.6968 19.3526 17.8164 19.3448 17.9374C19.337 18.0584 19.2854 18.1723 19.1997 18.2581L18.455 19.0029C18.4052 19.0514 18.3656 19.1094 18.3385 19.1735C18.3115 19.2376 18.2976 19.3064 18.2976 19.376C18.2976 19.4455 18.3115 19.5143 18.3385 19.5784C18.3656 19.6425 18.4052 19.7005 18.455 19.749L19.8527 21.1468C19.9521 21.245 20.0861 21.3001 20.2258 21.3001C20.3655 21.3001 20.4996 21.245 20.599 21.1468L21.3451 20.4035C21.4252 20.3235 21.53 20.2732 21.6425 20.2609C21.7549 20.2486 21.8682 20.275 21.9637 20.3357C22.8161 20.8794 23.7561 21.2717 24.7422 21.4951C24.8623 21.5109 24.9725 21.5698 25.0524 21.6608C25.1323 21.7519 25.1763 21.8689 25.1763 21.99V23.0428C25.1771 23.1825 25.2329 23.3163 25.3317 23.4151C25.4305 23.5139 25.5643 23.5697 25.704 23.5705H27.6805C27.8202 23.5697 27.954 23.5139 28.0528 23.4151C28.1516 23.3163 28.2074 23.1825 28.2082 23.0428L28.2101 21.99C28.2101 21.8768 28.2488 21.767 28.3197 21.6787C28.3906 21.5905 28.4895 21.529 28.6001 21.5046C29.5869 21.2861 30.5285 20.8987 31.3834 20.3596C31.4795 20.2856 31.5992 20.2491 31.7202 20.2569C31.8412 20.2648 31.9552 20.3163 32.0409 20.4021L32.7856 21.1468C32.885 21.245 33.019 21.3001 33.1587 21.3001C33.2984 21.3001 33.4325 21.245 33.5319 21.1468L34.9297 19.749C35.0279 19.6497 35.0829 19.5156 35.0829 19.376C35.0829 19.2363 35.0279 19.1023 34.9297 19.0029L34.1862 18.2567C34.1063 18.1767 34.056 18.0718 34.0437 17.9594C34.0314 17.8469 34.0578 17.7336 34.1186 17.6382C34.6621 16.7857 35.0543 15.8457 35.2779 14.8596C35.2937 14.7395 35.3526 14.6293 35.4436 14.5494C35.5347 14.4695 35.6517 14.4254 35.7728 14.4254H36.8257C36.9654 14.4247 37.0991 14.3689 37.1979 14.2701C37.2967 14.1713 37.3525 14.0375 37.3533 13.8978V11.9213C37.3525 11.7816 37.2966 11.6479 37.1979 11.5491C37.0991 11.4503 36.9654 11.3945 36.8257 11.3938L35.7728 11.3919C35.6596 11.3919 35.5498 11.3532 35.4615 11.2823C35.3732 11.2114 35.3118 11.1124 35.2874 11.0019C35.0687 10.0151 34.6813 9.07346 34.1421 8.21854C34.0682 8.12249 34.0317 8.00282 34.0395 7.88186C34.0473 7.7609 34.0989 7.64692 34.1846 7.56119L34.9294 6.81635C35.0274 6.71694 35.0824 6.58291 35.0824 6.44326C35.0824 6.30362 35.0274 6.16959 34.9294 6.07018L33.5316 4.67221C33.4323 4.57403 33.2983 4.51898 33.1586 4.51898C33.019 4.51898 32.8849 4.57403 32.7856 4.67221L32.039 5.41557C31.9591 5.49558 31.8542 5.54589 31.7417 5.55819C31.6292 5.5705 31.5159 5.54405 31.4205 5.48322C30.5681 4.93975 29.6281 4.54758 28.6422 4.324C28.5221 4.30823 28.4118 4.24934 28.332 4.15829C28.2521 4.06725 28.208 3.95027 28.208 3.82916V2.77619C28.2072 2.63651 28.1514 2.50278 28.0526 2.40402C27.9538 2.30526 27.8201 2.24945 27.6804 2.24869Z" fill="white"/>
</svg>
