<svg width="25" height="24" viewBox="0 0 25 24" fill="none" xmlns="http://www.w3.org/2000/svg">
<path d="M7.14461 11.1461C9.20868 12.7301 11.2968 12.7301 13.356 11.1461C14.1528 11.1845 14.9065 11.5061 15.4873 12.0629C15.5785 12.1493 15.6937 12.1973 15.8185 12.1973H15.8233C16.0873 12.1973 16.3033 11.9813 16.3033 11.7173C16.3033 11.5685 16.2361 11.4389 16.1305 11.3525C15.3289 10.5988 14.2873 10.186 13.1928 10.186C13.0824 10.186 12.9768 10.2244 12.8904 10.2916C11.1095 11.7221 9.38149 11.7221 7.60063 10.2916C7.51422 10.2244 7.40862 10.186 7.29822 10.186C4.92214 10.186 2.98767 12.1205 2.98767 14.5014V18.8215C2.98767 19.0855 3.20368 19.3015 3.46769 19.3015H9.6407C9.9047 19.3015 10.1207 19.0855 10.1207 18.8215C10.1207 18.5575 9.9047 18.3415 9.6407 18.3415H6.967V17.0647C6.967 16.8007 6.751 16.5847 6.48699 16.5847C6.22298 16.5847 6.00697 16.8007 6.00697 17.0647V18.3415H3.9573V14.5014C3.9573 12.7013 5.37335 11.2325 7.14461 11.1461Z" fill="white"/>
<path d="M10.2504 9.95553C12.996 9.95553 15.2281 7.72346 15.2281 4.97777C15.2281 2.23208 12.996 0 10.2504 0C7.50466 0 5.27258 2.23208 5.27258 4.97777C5.27258 7.72346 7.50466 9.95553 10.2504 9.95553ZM10.2504 0.960032C12.468 0.960032 14.2681 2.76009 14.2681 4.97777C14.2681 7.19544 12.4632 8.9955 10.2504 8.9955C8.03268 8.9955 6.23262 7.19544 6.23262 4.97777C6.23262 2.76009 8.03748 0.960032 10.2504 0.960032Z" fill="white"/>
<path d="M21.0699 16.6565C20.9979 16.4837 20.9643 16.2581 20.9259 16.0181C20.8587 15.5621 20.7771 15.0437 20.4027 14.6693C20.0282 14.2948 19.5098 14.2132 19.049 14.146C18.809 14.1076 18.5834 14.074 18.4106 14.0068C18.2522 13.9396 18.0746 13.81 17.8874 13.6708C17.513 13.3924 17.0857 13.0708 16.5337 13.0708C15.9817 13.0708 15.5545 13.3876 15.1801 13.6708C14.9929 13.81 14.8153 13.9444 14.6569 14.0068C14.4889 14.0788 14.2585 14.1124 14.0184 14.146C13.5624 14.2132 13.044 14.2948 12.6648 14.6693C12.2904 15.0437 12.2088 15.5621 12.1416 16.0181C12.1032 16.2581 12.0696 16.4837 12.0024 16.6565C11.9352 16.8149 11.8056 16.9925 11.6664 17.1797C11.388 17.5542 11.0663 17.9814 11.0663 18.5334C11.0663 19.0854 11.3832 19.5126 11.6664 19.887C11.8056 20.0742 11.94 20.2518 12.0024 20.4102C12.0744 20.5831 12.108 20.8087 12.1416 21.0487C12.2088 21.5047 12.2904 22.0231 12.6648 22.3975C13.0392 22.7719 13.5576 22.8535 14.0136 22.9207C14.2537 22.9591 14.4841 22.9927 14.6521 23.0599C14.8105 23.1271 14.9881 23.2567 15.1705 23.3959C15.5449 23.6744 15.9721 23.996 16.5289 23.996C17.0809 23.996 17.5082 23.6792 17.8826 23.3959C18.0698 23.2567 18.2474 23.1223 18.4058 23.0599C18.5738 22.9879 18.8042 22.9543 19.0442 22.9159C19.5002 22.8487 20.0186 22.7671 20.3931 22.3927C20.7675 22.0183 20.8491 21.4999 20.9163 21.0439C20.9547 20.8039 20.9883 20.5783 21.0603 20.4054C21.1275 20.247 21.2571 20.0694 21.3963 19.8822C21.6747 19.5078 21.9963 19.0806 21.9963 18.5286C21.9963 17.9766 21.6795 17.5494 21.3963 17.1749C21.2667 16.9925 21.1371 16.8149 21.0699 16.6565ZM20.6379 19.3158C20.4699 19.5414 20.2923 19.7766 20.1819 20.0454C20.0666 20.3238 20.0234 20.6215 19.9802 20.9095C19.9274 21.2503 19.8794 21.5719 19.7258 21.7255C19.5722 21.8791 19.2506 21.9271 18.9098 21.9799C18.6218 22.0231 18.3242 22.0663 18.0458 22.1815C17.777 22.2919 17.5418 22.4695 17.3162 22.6375C17.0377 22.8439 16.7737 23.0407 16.5385 23.0407C16.3033 23.0407 16.0393 22.8439 15.7561 22.6327C15.5305 22.4647 15.2953 22.2871 15.0265 22.1767C14.7481 22.0615 14.4505 22.0183 14.1624 21.9751C13.8216 21.9223 13.5 21.8743 13.3464 21.7207C13.1928 21.5671 13.1448 21.2455 13.092 20.9047C13.0488 20.6167 13.0056 20.319 12.8904 20.0406C12.78 19.7718 12.6024 19.5366 12.4344 19.311C12.2232 19.0278 12.0264 18.7638 12.0264 18.5286C12.0264 18.2934 12.2232 18.0294 12.4344 17.7462C12.6024 17.5206 12.78 17.2853 12.8904 17.0165C13.0056 16.7381 13.0488 16.4405 13.092 16.1525C13.1448 15.8117 13.1928 15.4901 13.3464 15.3365C13.5 15.1829 13.8216 15.1349 14.1624 15.0821C14.4505 15.0389 14.7433 14.9957 15.0217 14.8805C15.2905 14.7701 15.5257 14.5925 15.7513 14.4244C16.0345 14.2132 16.2985 14.0164 16.5337 14.0164C16.7689 14.0164 17.0329 14.2132 17.3162 14.4244C17.5418 14.5925 17.777 14.7701 18.0458 14.8805C18.3242 14.9957 18.6218 15.0389 18.905 15.0821C19.2458 15.1349 19.5674 15.1829 19.721 15.3365C19.8746 15.4901 19.9226 15.8117 19.9754 16.1525C20.0186 16.4405 20.0618 16.7381 20.1771 17.0165C20.2875 17.2853 20.4651 17.5206 20.6331 17.7462C20.8443 18.0294 21.0411 18.2934 21.0411 18.5286C21.0411 18.7638 20.8491 19.0326 20.6379 19.3158Z" fill="white"/>
<path d="M16.5385 16.4742C16.5433 16.4742 16.5433 16.4742 16.5385 16.4742C16.9753 16.4742 17.3306 16.8294 17.3306 17.2662C17.3306 17.5302 17.5466 17.7462 17.8106 17.7462C18.0746 17.7462 18.2906 17.5302 18.2906 17.2662C18.2906 16.4646 17.7482 15.7974 17.0137 15.5909C16.9945 15.3413 16.7929 15.1445 16.5385 15.1445C16.2841 15.1445 16.0825 15.3413 16.0633 15.5909C15.3289 15.7974 14.7865 16.4694 14.7865 17.2662C14.7865 17.7414 14.9977 18.6006 16.4041 18.9943C16.8217 19.1143 17.3258 19.3495 17.3258 19.8007C17.3258 20.2375 16.9705 20.5879 16.5385 20.5879C16.1017 20.5879 15.7465 20.2327 15.7465 19.8007C15.7465 19.5367 15.5305 19.3207 15.2665 19.3207C15.0025 19.3207 14.7865 19.5367 14.7865 19.8007C14.7865 20.5975 15.3289 21.2695 16.0633 21.4759C16.0825 21.7256 16.2841 21.9272 16.5385 21.9272C16.7929 21.9272 16.9945 21.7304 17.0137 21.4759C17.7482 21.2695 18.2906 20.5975 18.2906 19.8007C18.2906 18.9799 17.7146 18.3654 16.6729 18.0678C16.0633 17.895 15.7513 17.6262 15.7513 17.2614C15.7513 16.8294 16.1065 16.4742 16.5385 16.4742Z" fill="white"/>
</svg>
