<svg width="40" height="40" viewBox="0 0 40 40" fill="none" xmlns="http://www.w3.org/2000/svg">
<g clip-path="url(#clip0_500_11425)">
<mask id="mask0_500_11425" style="mask-type:luminance" maskUnits="userSpaceOnUse" x="0" y="0" width="40" height="40">
<path d="M0 3.8147e-06H40V40H0V3.8147e-06Z" fill="white"/>
</mask>
<g mask="url(#mask0_500_11425)">
<path d="M22.0687 13.8024V17.2557C22.0687 17.3692 22.0223 17.4776 21.9404 17.5561L20.2468 19.1747C20.0836 19.3307 19.8257 19.3279 19.6661 19.1682L18.0529 17.555C17.975 17.4772 17.9313 17.3714 17.9313 17.2613V13.8024C17.9313 13.4597 17.5563 13.2499 17.2632 13.4276C15.6748 14.3909 14.6343 16.1674 14.7197 18.1797C14.8376 20.9604 17.1418 23.1955 19.9247 23.2343C22.8781 23.2754 25.2852 20.8936 25.2852 17.9496C25.2852 16.0324 24.2643 14.3538 22.7364 13.4274C22.4435 13.2498 22.0687 13.4599 22.0687 13.8024Z" stroke="white" stroke-miterlimit="10" stroke-linecap="round" stroke-linejoin="round"/>
<path d="M17.9849 27.9059V29.6484" stroke="white" stroke-miterlimit="10" stroke-linecap="round" stroke-linejoin="round"/>
<path d="M17.9849 22.8316V25.1714" stroke="white" stroke-miterlimit="10" stroke-linecap="round" stroke-linejoin="round"/>
<path d="M22.0151 29.6484V22.8371" stroke="white" stroke-miterlimit="10" stroke-linecap="round" stroke-linejoin="round"/>
<path d="M20 25.9527V29.855" stroke="white" stroke-miterlimit="10" stroke-linecap="round" stroke-linejoin="round"/>
<path d="M26.0463 12.2181C24.377 10.9192 22.2789 10.1452 19.9999 10.1452C14.5571 10.1452 10.145 14.5574 10.145 20.0001C10.145 25.4428 14.5571 29.855 19.9999 29.855C25.4426 29.855 29.8549 25.4428 29.8549 20.0001C29.8549 17.8226 29.1481 15.8104 27.9521 14.1794" stroke="white" stroke-miterlimit="10" stroke-linecap="round" stroke-linejoin="round"/>
<path d="M5.30547 7.23891L4.33812 8.20625C3.94211 8.60227 3.9043 9.23156 4.25 9.67219L6.64445 12.7241C6.84726 12.9827 6.88117 13.3334 6.73859 13.6294C6.50586 14.1126 6.29851 14.6103 6.11891 15.1211C6.00828 15.4353 5.73258 15.6621 5.40187 15.702L1.56023 16.1659C1.00422 16.233 0.585938 16.7048 0.585938 17.2648V22.7352C0.585938 23.2952 1.00422 23.767 1.56023 23.8341L5.40187 24.2979C5.73258 24.3378 6.00828 24.5646 6.11891 24.8788C6.29851 25.3896 6.50586 25.8873 6.73859 26.3705C6.88117 26.6666 6.84726 27.0173 6.64445 27.2758L4.25 30.3277C3.9043 30.7684 3.94211 31.3977 4.33812 31.7938L8.20625 35.6619C8.60226 36.0579 9.23164 36.0957 9.67226 35.75L12.7242 33.3555C12.9827 33.1527 13.3334 33.1188 13.6295 33.2614C14.1127 33.4941 14.6104 33.7014 15.1212 33.8812C15.4354 33.9917 15.6622 34.2673 15.7021 34.5981L16.1659 38.4398C16.233 38.9958 16.7048 39.4141 17.2648 39.4141H22.7352C23.2952 39.4141 23.767 38.9958 23.8341 38.4398L24.298 34.5981C24.3379 34.2673 24.5647 33.9917 24.8789 33.8812C25.3897 33.7014 25.8874 33.4941 26.3705 33.2614C26.6666 33.1188 27.0173 33.1527 27.2759 33.3555L30.3278 35.75C30.7684 36.0957 31.3977 36.0579 31.7937 35.6619L35.6619 31.7938C36.0579 31.3977 36.0958 30.7684 35.7501 30.3277L33.3556 27.2758C33.1528 27.0173 33.1188 26.6666 33.2615 26.3705C33.4942 25.8873 33.7015 25.3896 33.8812 24.8788C33.9918 24.5646 34.2674 24.3378 34.5981 24.2979L38.4398 23.8341C38.9958 23.767 39.4141 23.2952 39.4141 22.7352V17.2648C39.4141 16.7048 38.9958 16.233 38.4398 16.1659L34.5981 15.702C34.2674 15.6621 33.9918 15.4353 33.8812 15.1211C33.7015 14.6103 33.4942 14.1126 33.2615 13.6294C33.1188 13.3334 33.1528 12.9827 33.3556 12.7241L35.7501 9.67219C36.0958 9.23156 36.0579 8.60227 35.6619 8.20625L31.7937 4.33813C31.3977 3.94211 30.7684 3.90422 30.3278 4.24992L27.2759 6.64438C27.0173 6.84719 26.6666 6.88117 26.3705 6.73852C25.8874 6.50578 25.3897 6.29852 24.8789 6.11883C24.5647 6.00828 24.3379 5.73258 24.298 5.40188L23.8341 1.56016C23.767 1.00414 23.2952 0.585941 22.7352 0.585941H17.2648C16.7048 0.585941 16.233 1.00414 16.1659 1.56016L15.7021 5.40188C15.6622 5.73258 15.4354 6.00828 15.1212 6.11883C14.6104 6.29852 14.1127 6.50578 13.6295 6.73852C13.3334 6.88117 12.9827 6.84719 12.7242 6.64438L9.67226 4.24992C9.23164 3.90422 8.60226 3.94211 8.20625 4.33813L7.23898 5.30539" stroke="white" stroke-miterlimit="10" stroke-linecap="round" stroke-linejoin="round"/>
</g>
</g>
<defs>
<clipPath id="clip0_500_11425">
<rect width="40" height="40" fill="white"/>
</clipPath>
</defs>
</svg>
