<svg width="24" height="24" viewBox="0 0 24 24" fill="none" xmlns="http://www.w3.org/2000/svg">
<g clip-path="url(#clip0_448_3833)">
<mask id="mask0_448_3833" style="mask-type:luminance" maskUnits="userSpaceOnUse" x="0" y="0" width="24" height="24">
<path d="M0 1.90735e-06H24V24H0V1.90735e-06Z" fill="white"/>
</mask>
<g mask="url(#mask0_448_3833)">
<path d="M12 8.31249C9.96347 8.31249 8.31248 9.96342 8.31248 12C8.31248 14.0365 9.96347 15.6875 12 15.6875C14.0365 15.6875 15.6875 14.0365 15.6875 12C15.6875 9.96342 14.0365 8.31249 12 8.31249ZM22.3501 9.36858L21.3517 10.1905C20.2128 11.128 20.2128 12.8719 21.3517 13.8095L22.3501 14.6314C22.7039 14.9227 22.7953 15.427 22.5661 15.8239L20.5947 19.2385C20.3655 19.6354 19.8831 19.8085 19.4539 19.6477L18.2429 19.194C16.8615 18.6765 15.3513 19.5485 15.1087 21.0035L14.8962 22.2791C14.8208 22.7311 14.4297 23.0625 13.9715 23.0625H10.0285C9.57028 23.0625 9.17915 22.7311 9.10383 22.2791L8.8912 21.0035C8.64872 19.5485 7.13845 18.6765 5.75709 19.194L4.54612 19.6477C4.11694 19.8085 3.63445 19.6354 3.40528 19.2385L1.43386 15.8239C1.20473 15.427 1.29609 14.9227 1.6499 14.6314L2.64834 13.8095C3.78717 12.8719 3.78717 11.128 2.64834 10.1905L1.6499 9.36858C1.29609 9.0773 1.20473 8.57292 1.43386 8.17603L3.40528 4.76142C3.63445 4.36453 4.11694 4.19147 4.54612 4.35225L5.75709 4.80591C7.13845 5.32341 8.64872 4.45149 8.8912 2.99644L9.10383 1.72083C9.17915 1.26881 9.57028 0.937502 10.0285 0.937502H13.9715C14.4297 0.937502 14.8208 1.26881 14.8962 1.72083L15.1087 2.99644C15.3513 4.45149 16.8615 5.32341 18.2429 4.80591L19.4539 4.35225C19.8831 4.19147 20.3655 4.36453 20.5947 4.76142L22.5661 8.17603C22.7953 8.57292 22.7039 9.0773 22.3501 9.36858Z" stroke="white" stroke-width="1.5" stroke-miterlimit="10" stroke-linecap="round" stroke-linejoin="round"/>
</g>
</g>
<defs>
<clipPath id="clip0_448_3833">
<rect width="24" height="24" fill="white"/>
</clipPath>
</defs>
</svg>
