<svg width="14" height="15" viewBox="0 0 14 15" fill="none" xmlns="http://www.w3.org/2000/svg">
<g clip-path="url(#clip0_414_8984)">
<path d="M4.8084 4.78162L1.08674 5.32121L1.02082 5.33462C0.921033 5.36111 0.830066 5.41361 0.757206 5.48676C0.684346 5.5599 0.632204 5.65107 0.606105 5.75096C0.580006 5.85085 0.580885 5.95588 0.608652 6.05531C0.636418 6.15475 0.690079 6.24504 0.764152 6.31695L3.46032 8.94137L2.82449 12.6485L2.8169 12.7126C2.81079 12.8158 2.83222 12.9188 2.879 13.011C2.92577 13.1032 2.99621 13.1813 3.0831 13.2373C3.16999 13.2934 3.2702 13.3253 3.37349 13.3299C3.47677 13.3344 3.57941 13.3114 3.6709 13.2633L6.9994 11.5133L10.3203 13.2633L10.3787 13.2901C10.4749 13.328 10.5796 13.3397 10.6818 13.3238C10.7841 13.308 10.8803 13.2652 10.9606 13.1999C11.0409 13.1345 11.1023 13.0491 11.1386 12.9522C11.175 12.8553 11.1849 12.7504 11.1673 12.6485L10.5309 8.94137L13.2282 6.31637L13.2737 6.26679C13.3387 6.18674 13.3813 6.09089 13.3972 5.989C13.4131 5.88712 13.4017 5.78284 13.3642 5.6868C13.3267 5.59075 13.2644 5.50637 13.1836 5.44225C13.1028 5.37813 13.0065 5.33657 12.9045 5.32179L9.18282 4.78162L7.51915 1.40995C7.47101 1.31227 7.39649 1.23001 7.30401 1.17248C7.21154 1.11496 7.10481 1.08447 6.9959 1.08447C6.887 1.08447 6.78027 1.11496 6.68779 1.17248C6.59532 1.23001 6.52079 1.31227 6.47265 1.40995L4.8084 4.78162Z" fill="#FFB800"/>
</g>
<defs>
<clipPath id="clip0_414_8984">
<rect width="14" height="14" fill="white" transform="translate(0 0.5)"/>
</clipPath>
</defs>
</svg>
