<svg width="144" height="144" viewBox="0 0 144 144" fill="none" xmlns="http://www.w3.org/2000/svg">
<mask id="mask0_584_7856" style="mask-type:luminance" maskUnits="userSpaceOnUse" x="0" y="0" width="144" height="144">
<path d="M0 1.52588e-05H144V144H0V1.52588e-05Z" fill="white"/>
</mask>
<g mask="url(#mask0_584_7856)">
<path d="M43.5248 77.2315H26.3405V82.4633C26.3405 84.6166 28.0862 86.3623 30.2394 86.3623H40.28C42.4336 86.3623 44.179 84.6166 44.179 82.4633V77.2009C43.9636 77.22 43.7456 77.2315 43.5248 77.2315Z" fill="black"/>
<path d="M35.2598 82.4633V77.2312H26.3405V82.4633C26.3405 84.6166 28.0862 86.3623 30.2395 86.3623H39.1588C37.0055 86.3623 35.2598 84.6166 35.2598 82.4633Z" fill="black"/>
<path d="M129.264 48.5104H124.845V83.3879H129.264C132.084 83.3879 134.391 81.0808 134.391 78.2608V53.6373C134.391 50.8175 132.084 48.5104 129.264 48.5104Z" fill="black"/>
<path d="M129.264 70.9646H124.845V83.3879H129.264C132.084 83.3879 134.391 81.0808 134.391 78.2608V65.8374C134.391 68.6572 132.084 70.9646 129.264 70.9646Z" fill="black"/>
<path d="M98.0005 6.77667H89.1322C87.1139 6.77667 85.4627 8.42817 85.4627 10.4464V28.9133C85.4627 30.9313 87.1139 32.5828 89.1322 32.5828H98.0005C100.019 32.5828 101.67 30.9313 101.67 28.9133V10.4464C101.67 8.42817 100.019 6.77667 98.0005 6.77667Z" fill="black"/>
<path d="M93.5664 28.9132V10.4463C93.5664 8.42805 95.2179 6.77655 97.2362 6.77655H89.1322C87.114 6.77655 85.4628 8.42805 85.4628 10.4463V28.9132C85.4628 30.9314 87.114 32.5826 89.1322 32.5826H97.2362C95.2179 32.5826 93.5664 30.9314 93.5664 28.9132Z" fill="black"/>
<path d="M111.734 32.3014H41.9888L28.531 32.9376C22.9982 34.6886 18.9873 39.8625 18.9873 45.9744V71.3712C18.9873 75.3844 22.2405 78.6373 26.2537 78.6373H43.525C47.5378 78.6373 50.7911 75.3844 50.7911 71.3712C50.7911 67.3584 54.0443 64.1051 58.0571 64.1051H86.3374C90.3506 64.1051 93.6038 67.3584 93.6038 71.3712V110.32H125.407V45.9744C125.407 38.4231 119.286 32.3014 111.734 32.3014Z" fill="black"/>
<path d="M28.9152 71.3714V45.9745C28.9152 41.0388 31.5317 36.716 35.452 34.3125V32.6106L28.5307 32.9377C22.998 34.6888 18.9874 39.8626 18.9874 45.9745V71.3714C18.9874 75.3845 22.2406 78.6375 26.2537 78.6375H36.1813C32.1684 78.6375 28.9152 75.3845 28.9152 71.3714Z" fill="black"/>
<path d="M96.2652 64.1051H86.3374C90.3506 64.1051 93.6038 67.3584 93.6038 71.3712V110.32H103.531V71.3712C103.531 67.3584 100.278 64.1051 96.2652 64.1051Z" fill="black"/>
<path d="M136.107 132.105V116.065C136.107 112.426 133.157 109.476 129.518 109.476H13.5891C9.95002 109.476 7 112.426 7 116.065V132.105H136.107Z" fill="black"/>
<g clip-path="url(#clip0_584_7856)">
<path opacity="0.2" d="M66.6276 117.52C67.2384 116.298 68.1773 115.271 69.3393 114.552C70.5013 113.834 71.8404 113.453 73.2067 113.452C74.5731 113.451 75.9128 113.83 77.0758 114.546C78.2389 115.263 79.1793 116.289 79.7921 117.509M66.6666 124.096C67.2774 125.318 68.2163 126.345 69.3783 127.064C70.5402 127.782 71.8793 128.163 73.2456 128.164C74.612 128.165 75.9517 127.786 77.1149 127.07C78.2778 126.353 79.2184 125.327 79.831 124.107" stroke="#FEBE73"/>
<path d="M59.7745 118.225C59.6123 118.23 59.4796 118.25 59.3764 118.285C59.2781 118.315 59.1995 118.36 59.1405 118.42C59.0865 118.48 59.0496 118.555 59.0299 118.645C59.0103 118.73 59.0004 118.83 59.0004 118.945V122.754C59.0004 122.879 58.998 122.992 58.9931 123.092C58.9931 123.197 58.9882 123.297 58.9783 123.392C58.9685 123.482 58.9537 123.574 58.9341 123.669C58.9144 123.769 58.8776 123.869 58.8235 123.969C58.7203 124.164 58.5901 124.314 58.4328 124.419C58.2755 124.529 58.1158 124.611 57.9536 124.666C57.7914 124.721 57.6391 124.754 57.4965 124.764C57.354 124.779 57.2483 124.786 57.1795 124.786C56.8158 124.786 56.5283 124.719 56.317 124.584C56.1057 124.454 56 124.286 56 124.081C56 123.956 56.0369 123.852 56.1106 123.767C56.1843 123.682 56.2875 123.639 56.4202 123.639C56.5332 123.639 56.6242 123.672 56.693 123.737C56.7618 123.802 56.7962 123.869 56.7962 123.939C56.7962 123.994 56.7864 124.039 56.7667 124.074C56.747 124.114 56.7372 124.161 56.7372 124.216C56.7372 124.316 56.7692 124.386 56.833 124.426C56.892 124.471 56.9485 124.501 57.0026 124.516C57.0763 124.536 57.1574 124.546 57.2459 124.546C57.4621 124.546 57.6292 124.509 57.7472 124.434C57.8651 124.359 57.9536 124.256 58.0126 124.126C58.0715 123.997 58.106 123.844 58.1158 123.669C58.1305 123.494 58.1379 123.309 58.1379 123.114V118.945C58.1379 118.82 58.1256 118.713 58.101 118.623C58.0814 118.533 58.0421 118.46 57.9831 118.405C57.9241 118.35 57.8406 118.308 57.7324 118.278C57.6292 118.248 57.4965 118.23 57.3343 118.225V118.03H59.7745V118.225Z" fill="#FEBE73"/>
<path d="M65.5384 120.512C65.5384 120.842 65.4793 121.162 65.3614 121.472C65.2484 121.782 65.0788 122.057 64.8527 122.297C64.6266 122.532 64.344 122.722 64.0049 122.867C63.6658 123.012 63.2726 123.084 62.8254 123.084C62.3388 123.084 61.9235 123.004 61.5795 122.844C61.2355 122.684 60.9529 122.482 60.7317 122.237C60.5105 121.987 60.3484 121.709 60.2452 121.404C60.1469 121.095 60.0977 120.795 60.0977 120.505C60.0977 120.185 60.1518 119.872 60.2599 119.567C60.3729 119.257 60.54 118.982 60.7612 118.743C60.9824 118.503 61.26 118.31 61.5943 118.165C61.9334 118.015 62.3315 117.94 62.7885 117.94C63.1571 117.94 63.4815 117.983 63.7617 118.068C64.0418 118.153 64.2826 118.265 64.4841 118.405C64.6856 118.545 64.8552 118.708 64.9928 118.892C65.1304 119.072 65.2385 119.257 65.3172 119.447C65.3958 119.637 65.4523 119.825 65.4867 120.01C65.5212 120.195 65.5384 120.362 65.5384 120.512ZM64.5578 120.497C64.5578 120.232 64.5333 119.965 64.4841 119.695C64.4399 119.42 64.3539 119.172 64.2261 118.952C64.0983 118.728 63.9214 118.545 63.6953 118.405C63.4692 118.265 63.1793 118.195 62.8254 118.195C62.4519 118.195 62.1496 118.27 61.9186 118.42C61.6876 118.565 61.5107 118.753 61.3878 118.982C61.265 119.207 61.1814 119.455 61.1372 119.725C61.0979 119.995 61.0782 120.252 61.0782 120.497C61.0782 120.597 61.0831 120.725 61.093 120.88C61.1028 121.035 61.1249 121.199 61.1593 121.374C61.1937 121.544 61.2478 121.717 61.3215 121.892C61.4001 122.067 61.5033 122.224 61.6311 122.364C61.7589 122.499 61.9211 122.612 62.1177 122.702C62.3143 122.787 62.5526 122.829 62.8328 122.829C63.108 122.829 63.3414 122.784 63.5331 122.694C63.7248 122.604 63.8845 122.489 64.0123 122.349C64.1401 122.209 64.2408 122.052 64.3146 121.877C64.3883 121.702 64.4423 121.527 64.4767 121.352C64.5111 121.177 64.5333 121.015 64.5431 120.865C64.5529 120.715 64.5578 120.592 64.5578 120.497Z" fill="#FEBE73"/>
<path d="M69.8957 121.734C69.8957 121.879 69.8711 122.012 69.822 122.132C69.7728 122.252 69.7089 122.357 69.6303 122.447C69.5565 122.537 69.473 122.612 69.3796 122.672C69.2862 122.732 69.1929 122.774 69.0995 122.799C68.9323 122.849 68.7407 122.894 68.5245 122.934C68.3132 122.974 68.1215 122.994 67.9495 122.994H65.4871V122.837C65.6493 122.827 65.7772 122.804 65.8705 122.769C65.9687 122.734 66.045 122.687 66.099 122.627C66.1531 122.562 66.1875 122.487 66.2023 122.402C66.2219 122.312 66.2318 122.214 66.2318 122.109V118.862C66.2318 118.757 66.2244 118.665 66.2097 118.585C66.1949 118.505 66.1604 118.435 66.1064 118.375C66.0573 118.315 65.9836 118.268 65.8852 118.233C65.787 118.198 65.6543 118.178 65.4871 118.173V118.008L66.733 117.978C66.9984 117.968 67.222 117.963 67.4039 117.963C67.5906 117.963 67.7479 117.965 67.8757 117.97C68.0035 117.975 68.1068 117.98 68.1853 117.985C68.2689 117.99 68.3451 117.998 68.4139 118.008C68.8267 118.058 69.1388 118.188 69.3501 118.398C69.5663 118.608 69.6745 118.855 69.6745 119.14C69.6745 119.275 69.65 119.402 69.6008 119.522C69.5565 119.642 69.4779 119.752 69.3648 119.852C69.2518 119.952 69.0995 120.042 68.9078 120.122C68.721 120.202 68.4851 120.272 68.2001 120.332C68.5146 120.382 68.7801 120.45 68.9963 120.535C69.2125 120.62 69.387 120.722 69.5197 120.842C69.6524 120.957 69.7482 121.089 69.8072 121.239C69.8662 121.389 69.8957 121.554 69.8957 121.734ZM68.8194 119.17C68.8194 118.98 68.7825 118.822 68.7087 118.697C68.6399 118.573 68.5466 118.473 68.4286 118.398C68.3156 118.323 68.1853 118.27 68.0379 118.24C67.8953 118.21 67.7479 118.195 67.5956 118.195H67.0796V120.242H67.4186C67.5906 120.242 67.7479 120.235 67.8904 120.22C68.0379 120.2 68.1829 120.15 68.3254 120.07C68.4777 119.985 68.5982 119.862 68.6866 119.702C68.7751 119.537 68.8194 119.36 68.8194 119.17ZM68.9595 121.674C68.9595 121.604 68.952 121.524 68.9373 121.434C68.9274 121.344 68.9029 121.252 68.8636 121.157C68.8292 121.062 68.7801 120.969 68.7161 120.88C68.6571 120.785 68.5785 120.705 68.4802 120.64C68.377 120.57 68.2443 120.525 68.0821 120.505C67.9249 120.48 67.7676 120.467 67.6103 120.467H67.0796V121.809C67.0796 121.959 67.082 122.094 67.0869 122.214C67.0967 122.329 67.1238 122.429 67.168 122.514C67.2171 122.594 67.2933 122.657 67.3965 122.702C67.4998 122.747 67.6447 122.769 67.8315 122.769C67.8905 122.769 67.9814 122.762 68.1042 122.747C68.232 122.732 68.3574 122.689 68.4802 122.619C68.608 122.549 68.7185 122.442 68.812 122.297C68.9102 122.147 68.9595 121.939 68.9595 121.674Z" fill="#FEBE73"/>
<path d="M70.4915 122.994V122.799C70.6585 122.794 70.7938 122.774 70.8969 122.739C71.0002 122.704 71.0812 122.657 71.1402 122.597C71.1993 122.537 71.2386 122.464 71.2581 122.379C71.2778 122.289 71.2877 122.187 71.2877 122.072V118.953C71.2877 118.843 71.2778 118.745 71.2581 118.66C71.2386 118.57 71.1993 118.495 71.1402 118.435C71.0861 118.375 71.0076 118.328 70.9043 118.293C70.8012 118.253 70.6635 118.23 70.4915 118.225V118.03H72.9391V118.225C72.7718 118.23 72.6369 118.25 72.5336 118.285C72.4303 118.32 72.3493 118.368 72.2903 118.428C72.2313 118.488 72.1921 118.563 72.1722 118.653C72.1527 118.738 72.1429 118.838 72.1429 118.953V122.072C72.1429 122.182 72.1527 122.279 72.1722 122.364C72.1921 122.449 72.2288 122.524 72.2829 122.589C72.3419 122.649 72.4231 122.697 72.5262 122.732C72.6294 122.767 72.7669 122.789 72.9391 122.799V122.994H70.4915Z" fill="#7F6134"/>
<path d="M76.9452 121.614C76.9452 121.764 76.9134 121.927 76.8494 122.102C76.7856 122.272 76.6873 122.432 76.5546 122.582C76.4267 122.727 76.2646 122.847 76.068 122.942C75.8763 123.037 75.6502 123.084 75.3897 123.084C75.2669 123.084 75.1391 123.069 75.0065 123.039C74.8786 123.014 74.7484 122.972 74.6156 122.912C74.483 122.847 74.3503 122.762 74.2175 122.657C74.0898 122.552 73.9645 122.422 73.8416 122.267C73.7974 122.367 73.7556 122.469 73.7163 122.574C73.6819 122.679 73.6523 122.787 73.6278 122.897H73.4803V121.352H73.6351C73.6892 121.492 73.7606 121.647 73.8489 121.817C73.9424 121.987 74.0554 122.144 74.188 122.289C74.3257 122.429 74.483 122.549 74.6599 122.649C74.8417 122.744 75.0482 122.792 75.2792 122.792C75.5986 122.792 75.8321 122.719 75.9795 122.574C76.1319 122.429 76.2082 122.247 76.2082 122.027C76.2082 121.797 76.1367 121.612 75.9944 121.472C75.8517 121.332 75.6478 121.192 75.3825 121.052C75.3676 121.042 75.3308 121.025 75.2718 121C75.2128 120.97 75.1465 120.94 75.0727 120.91C74.999 120.875 74.9278 120.84 74.8589 120.805C74.7901 120.77 74.7386 120.745 74.7042 120.73C74.4141 120.595 74.1857 120.462 74.0186 120.332C73.8565 120.202 73.7335 120.077 73.6499 119.957C73.5713 119.832 73.5222 119.715 73.5025 119.605C73.4877 119.49 73.4803 119.382 73.4803 119.282C73.4803 119.107 73.5148 118.94 73.5836 118.78C73.6573 118.615 73.7581 118.473 73.8858 118.353C74.0137 118.228 74.1659 118.128 74.3429 118.053C74.5248 117.978 74.7238 117.94 74.9399 117.94C75.1661 117.94 75.3848 117.995 75.5963 118.105C75.8124 118.215 76.0286 118.398 76.2449 118.653C76.299 118.533 76.3333 118.433 76.3482 118.353C76.3677 118.273 76.3899 118.188 76.4144 118.098H76.5766V119.395H76.4071C76.3776 119.31 76.3259 119.2 76.2523 119.065C76.1834 118.93 76.0926 118.8 75.9795 118.675C75.8665 118.545 75.7289 118.435 75.5668 118.345C75.4046 118.25 75.2152 118.203 74.999 118.203C74.886 118.203 74.7755 118.215 74.6673 118.24C74.5591 118.265 74.4633 118.308 74.3797 118.368C74.3011 118.423 74.2373 118.495 74.188 118.585C74.139 118.67 74.1144 118.775 74.1144 118.9C74.1144 119.045 74.1464 119.17 74.2103 119.275C74.2741 119.375 74.3625 119.467 74.4756 119.552C74.5789 119.632 74.7066 119.71 74.8589 119.785C74.9327 119.825 75.0088 119.865 75.0875 119.905C75.1661 119.945 75.2521 119.985 75.3454 120.025C75.5668 120.13 75.773 120.232 75.9649 120.332C76.1614 120.432 76.331 120.545 76.4735 120.67C76.6209 120.79 76.7363 120.927 76.8199 121.082C76.9035 121.232 76.9452 121.409 76.9452 121.614Z" fill="#7F6134"/>
<path d="M82.1706 119.335C82.1361 119.075 82.0771 118.875 81.9935 118.735C81.91 118.595 81.8167 118.493 81.7134 118.428C81.6103 118.358 81.5021 118.318 81.3891 118.308C81.2809 118.293 81.1851 118.285 81.1015 118.285H80.4158V122.072C80.4158 122.177 80.4234 122.272 80.438 122.357C80.4529 122.442 80.4847 122.517 80.5339 122.582C80.588 122.647 80.6641 122.697 80.7624 122.732C80.8607 122.767 80.991 122.789 81.1532 122.799V122.994H78.8236V122.799C78.9808 122.789 79.1086 122.769 79.2069 122.739C79.3052 122.704 79.3789 122.657 79.4281 122.597C79.4822 122.532 79.5167 122.457 79.5313 122.372C79.5509 122.282 79.5608 122.182 79.5608 122.072V118.285H78.9784C78.8654 118.285 78.7449 118.293 78.6172 118.308C78.4894 118.318 78.3689 118.355 78.256 118.42C78.143 118.485 78.0446 118.59 77.961 118.735C77.8824 118.875 77.8308 119.075 77.8062 119.335H77.6514V118.03H82.3253V119.335H82.1706Z" fill="#FEBE73"/>
<path d="M87.8248 120.512C87.8248 120.842 87.7659 121.162 87.6479 121.472C87.5349 121.782 87.3652 122.057 87.1391 122.297C86.913 122.532 86.6305 122.722 86.2914 122.867C85.9524 123.012 85.5592 123.084 85.1119 123.084C84.6253 123.084 84.2099 123.004 83.866 122.844C83.522 122.684 83.2393 122.482 83.0183 122.237C82.7971 121.987 82.6349 121.709 82.5316 121.404C82.4334 121.095 82.3842 120.795 82.3842 120.505C82.3842 120.185 82.4383 119.872 82.5464 119.567C82.6594 119.257 82.8266 118.982 83.0476 118.743C83.2689 118.503 83.5465 118.31 83.8807 118.165C84.2198 118.015 84.6179 117.94 85.075 117.94C85.4436 117.94 85.7681 117.983 86.0481 118.068C86.3283 118.153 86.5692 118.265 86.7707 118.405C86.9721 118.545 87.1417 118.708 87.2793 118.892C87.4169 119.072 87.5249 119.257 87.6036 119.447C87.6823 119.637 87.7387 119.825 87.7732 120.01C87.8076 120.195 87.8248 120.362 87.8248 120.512ZM86.8443 120.497C86.8443 120.232 86.8197 119.965 86.7707 119.695C86.7264 119.42 86.6404 119.172 86.5126 118.952C86.3849 118.728 86.2078 118.545 85.9817 118.405C85.7558 118.265 85.4657 118.195 85.1119 118.195C84.7384 118.195 84.4362 118.27 84.2052 118.42C83.9742 118.565 83.7972 118.753 83.6744 118.982C83.5515 119.207 83.4679 119.455 83.4236 119.725C83.3844 119.995 83.3647 120.252 83.3647 120.497C83.3647 120.597 83.3696 120.725 83.3795 120.88C83.3893 121.035 83.4113 121.199 83.4457 121.374C83.4801 121.544 83.5342 121.717 83.6079 121.892C83.6866 122.067 83.7899 122.224 83.9176 122.364C84.0455 122.499 84.2076 122.612 84.4042 122.702C84.6008 122.787 84.8391 122.829 85.1193 122.829C85.3944 122.829 85.6279 122.784 85.8196 122.694C86.0112 122.604 86.1711 122.489 86.2988 122.349C86.4265 122.209 86.5274 122.052 86.601 121.877C86.6748 121.702 86.7287 121.527 86.7632 121.352C86.7976 121.177 86.8197 121.015 86.8296 120.865C86.8394 120.715 86.8443 120.592 86.8443 120.497Z" fill="#FEBE73"/>
</g>
<path d="M35.2598 52.6493C37.9463 52.6493 40.3535 53.8387 41.9887 55.7178V31.0783C41.9887 29.0601 40.3375 27.4088 38.3189 27.4088H32.2004C30.1821 27.4088 28.5309 29.0601 28.5309 31.0783V55.7178C30.1661 53.8387 32.5733 52.6493 35.2598 52.6493Z" fill="black"/>
<path d="M35.2598 31.0783C35.2598 29.163 36.7476 27.581 38.6241 27.4243C38.5234 27.4159 38.4222 27.4088 38.3189 27.4088H32.2004C30.1821 27.4088 28.5309 29.0601 28.5309 31.0783V55.7178C30.1661 53.8387 32.5733 52.6491 35.2598 52.6491V31.0783Z" fill="black"/>
<path d="M60.3309 40.2524H57.4864C56.2171 40.2524 55.188 41.2815 55.188 42.5508V53.8559C55.188 55.1252 56.2171 56.1543 57.4864 56.1543H60.3309C61.6002 56.1543 62.6293 55.1252 62.6293 53.8559V42.5508C62.6293 41.2815 61.6002 40.2524 60.3309 40.2524Z" fill="black"/>
<path d="M75.2134 40.2524H72.3688C71.0995 40.2524 70.0704 41.2815 70.0704 42.5508V53.8559C70.0704 55.1252 71.0995 56.1543 72.3688 56.1543H75.2134C76.4827 56.1543 77.5117 55.1252 77.5117 53.8559V42.5508C77.5117 41.2815 76.4827 40.2524 75.2134 40.2524Z" fill="black"/>
<path d="M90.0959 40.2524H87.2513C85.982 40.2524 84.9529 41.2815 84.9529 42.5508V53.8559C84.9529 55.1252 85.982 56.1543 87.2513 56.1543H90.0959C91.3652 56.1543 92.3943 55.1252 92.3943 53.8559V42.5508C92.3943 41.2815 91.3652 40.2524 90.0959 40.2524Z" fill="black"/>
<path d="M60.3309 48.7348H57.4864C56.2171 48.7348 55.188 47.7057 55.188 46.4364V53.8558C55.188 55.1254 56.2171 56.1542 57.4864 56.1542H60.3309C61.6002 56.1542 62.6293 55.1254 62.6293 53.8558V46.4364C62.6293 47.7057 61.6002 48.7348 60.3309 48.7348Z" fill="black"/>
<path d="M75.2134 48.7348H72.3688C71.0995 48.7348 70.0704 47.7057 70.0704 46.4364V53.8558C70.0704 55.1254 71.0995 56.1542 72.3688 56.1542H75.2134C76.4827 56.1542 77.5117 55.1254 77.5117 53.8558V46.4364C77.5117 47.7057 76.4827 48.7348 75.2134 48.7348Z" fill="black"/>
<path d="M90.0959 48.7348H87.2516C85.982 48.7348 84.9529 47.7057 84.9529 46.4364V53.8558C84.9529 55.1254 85.982 56.1542 87.2516 56.1542H90.0959C91.3652 56.1542 92.3943 55.1254 92.3943 53.8558V46.4364C92.3943 47.7057 91.3652 48.7348 90.0959 48.7348Z" fill="black"/>
<path d="M109.487 58.5676C105.41 58.5676 102.105 61.8723 102.105 65.9493C102.105 70.026 105.41 73.3307 109.487 73.3307C113.564 73.3307 116.869 70.026 116.869 65.9493C116.869 61.8723 113.564 58.5676 109.487 58.5676Z" fill="black"/>
<path d="M109.487 81.5428C106.782 81.5428 104.589 83.7357 104.589 86.4413C104.589 89.1464 106.782 91.3396 109.487 91.3396C112.192 91.3396 114.385 89.1464 114.385 86.4413C114.385 83.7357 112.192 81.5428 109.487 81.5428Z" fill="black"/>
<path d="M107.847 65.9491C107.847 62.8908 109.707 60.2667 112.358 59.1468C111.475 58.7739 110.505 58.5674 109.487 58.5674C105.41 58.5674 102.105 61.8724 102.105 65.9491C102.105 70.0261 105.41 73.3308 109.487 73.3308C110.505 73.3308 111.475 73.1247 112.358 72.7517C109.707 71.6315 107.847 69.0077 107.847 65.9491Z" fill="black"/>
<path d="M109.487 86.4411C109.487 84.6293 110.473 83.0509 111.936 82.2035C111.215 81.7858 110.38 81.5428 109.487 81.5428C106.782 81.5428 104.589 83.7357 104.589 86.4411C104.589 89.1464 106.782 91.3396 109.487 91.3396C110.38 91.3396 111.215 91.0966 111.936 90.6787C110.473 89.8315 109.487 88.2532 109.487 86.4411Z" fill="black"/>
<path d="M44.1791 61.006C44.1791 65.9321 40.1859 69.9253 35.2598 69.9253C30.3337 69.9253 26.3405 65.9321 26.3405 61.006C26.3405 56.0799 30.3337 52.0867 35.2598 52.0867C40.1859 52.0867 44.1791 56.0799 44.1791 61.006Z" fill="black"/>
<path d="M35.2598 61.006C35.2598 57.7053 37.0542 54.8253 39.7193 53.2829C38.4073 52.5235 36.8849 52.0867 35.2598 52.0867C30.3337 52.0867 26.3405 56.0799 26.3405 61.006C26.3405 65.9321 30.3337 69.9253 35.2598 69.9253C36.8849 69.9253 38.4073 69.4885 39.7193 68.7289C37.0542 67.1868 35.2598 64.3068 35.2598 61.006Z" fill="black"/>
<path d="M29.1368 109.476H14.0429C10.4041 109.476 7.4538 112.426 7.4538 116.065V132.105H22.5476V116.065C22.5476 112.426 25.4977 109.476 29.1368 109.476Z" fill="black"/>
<path d="M136.976 131.261H7.03827C4.8628 131.261 3.09937 133.025 3.09937 135.2V137.952C3.09937 140.128 4.8628 141.891 7.03827 141.891H136.976C139.152 141.891 140.915 140.128 140.915 137.952V135.2C140.915 133.025 139.152 131.261 136.976 131.261Z" fill="black"/>
<path d="M18.193 137.952V135.2C18.193 133.024 19.9567 131.261 22.1319 131.261H7.03809C4.8629 131.261 3.09918 133.024 3.09918 135.2V137.952C3.09918 140.128 4.8629 141.891 7.03809 141.891H22.1319C19.9567 141.891 18.193 140.128 18.193 137.952Z" fill="black"/>
<path d="M136.969 131.261H7.03113C4.85566 131.261 3.09222 133.025 3.09222 135.2V137.952C3.09222 140.128 4.85566 141.891 7.03113 141.891H136.969C139.144 141.891 140.908 140.128 140.908 137.952V135.2C140.908 133.025 139.144 131.261 136.969 131.261Z" stroke="#FEBE73" stroke-width="3" stroke-miterlimit="10" stroke-linecap="round" stroke-linejoin="round"/>
<path d="M35.2525 52.0868C37.939 52.0868 40.3462 53.2762 41.9814 55.1553V31.0783C41.9814 29.0601 40.3302 27.4088 38.312 27.4088H32.1931C30.1748 27.4088 28.5236 29.0601 28.5236 31.0783V55.1553C30.1588 53.2762 32.566 52.0868 35.2525 52.0868Z" stroke="#FEBE73" stroke-width="3" stroke-miterlimit="10" stroke-linecap="round" stroke-linejoin="round"/>
<path d="M111.727 32.3017H41.9815V55.1552C43.3447 56.7218 44.1719 58.7667 44.1719 61.006C44.1719 65.9321 40.1784 69.9253 35.2526 69.9253C30.3265 69.9253 26.3333 65.9321 26.3333 61.006C26.3333 58.7667 27.1605 56.7218 28.5237 55.1552V32.9379C22.9909 34.6889 18.98 39.8628 18.98 45.9746V71.3715C18.98 75.3844 22.2333 78.6376 26.2464 78.6376H43.5177C47.5306 78.6376 50.7838 75.3844 50.7838 71.3715C50.7838 67.3584 54.037 64.1054 58.0499 64.1054H86.3301C90.3433 64.1054 93.5965 67.3584 93.5965 71.3715V109.476H125.4V45.9746C125.4 38.4234 119.279 32.3017 111.727 32.3017Z" stroke="#FEBE73" stroke-width="3" stroke-miterlimit="10" stroke-linecap="round" stroke-linejoin="round"/>
<path d="M44.1718 61.006C44.1718 65.9321 40.1786 69.9253 35.2525 69.9253C30.3264 69.9253 26.3333 65.9321 26.3333 61.006C26.3333 56.0799 30.3264 52.0867 35.2525 52.0867C40.1786 52.0867 44.1718 56.0799 44.1718 61.006Z" stroke="#FEBE73" stroke-width="3" stroke-miterlimit="10" stroke-linecap="round" stroke-linejoin="round"/>
<path d="M43.5176 78.6378H26.3332V82.4633C26.3332 84.6166 28.0789 86.3623 30.2322 86.3623H40.2728C42.4263 86.3623 44.1718 84.6166 44.1718 82.4633V78.6071C43.9563 78.6262 43.7383 78.6378 43.5176 78.6378Z" stroke="#FEBE73" stroke-width="3" stroke-miterlimit="10" stroke-linecap="round" stroke-linejoin="round"/>
<path d="M35.2526 86.3622V103.564" stroke="black" stroke-width="3" stroke-miterlimit="10" stroke-linecap="round" stroke-linejoin="round"/>
<path d="M97.9934 6.77667H89.125C87.1068 6.77667 85.4553 8.42817 85.4553 10.4464V28.632C85.4553 30.65 87.1068 32.3015 89.125 32.3015H97.9934C100.012 32.3015 101.663 30.65 101.663 28.632V10.4464C101.663 8.42817 100.012 6.77667 97.9934 6.77667Z" stroke="#FEBE73" stroke-width="3" stroke-miterlimit="10" stroke-linecap="round" stroke-linejoin="round"/>
<path d="M93.5592 6.77673V2.10883" stroke="#FEBE73" stroke-width="3" stroke-miterlimit="10" stroke-linecap="round" stroke-linejoin="round"/>
<path d="M60.3236 40.2524H57.4793C56.2098 40.2524 55.1807 41.2815 55.1807 42.5508V53.8559C55.1807 55.1252 56.2098 56.1543 57.4793 56.1543H60.3236C61.5929 56.1543 62.622 55.1252 62.622 53.8559V42.5508C62.622 41.2815 61.5929 40.2524 60.3236 40.2524Z" stroke="#FEBE73" stroke-width="3" stroke-miterlimit="10" stroke-linecap="round" stroke-linejoin="round"/>
<path d="M75.2061 40.2524H72.3618C71.0923 40.2524 70.0632 41.2815 70.0632 42.5508V53.8559C70.0632 55.1252 71.0923 56.1543 72.3618 56.1543H75.2061C76.4754 56.1543 77.5045 55.1252 77.5045 53.8559V42.5508C77.5045 41.2815 76.4754 40.2524 75.2061 40.2524Z" stroke="#FEBE73" stroke-width="3" stroke-miterlimit="10" stroke-linecap="round" stroke-linejoin="round"/>
<path d="M90.0886 40.2524H87.2443C85.9748 40.2524 84.9457 41.2815 84.9457 42.5508V53.8559C84.9457 55.1252 85.9748 56.1543 87.2443 56.1543H90.0886C91.3579 56.1543 92.387 55.1252 92.387 53.8559V42.5508C92.387 41.2815 91.3579 40.2524 90.0886 40.2524Z" stroke="#FEBE73" stroke-width="3" stroke-miterlimit="10" stroke-linecap="round" stroke-linejoin="round"/>
<path d="M109.48 58.5676C105.403 58.5676 102.098 61.8723 102.098 65.9493C102.098 70.026 105.403 73.3307 109.48 73.3307C113.556 73.3307 116.861 70.026 116.861 65.9493C116.861 61.8723 113.556 58.5676 109.48 58.5676Z" stroke="#FEBE73" stroke-width="3" stroke-miterlimit="10" stroke-linecap="round" stroke-linejoin="round"/>
<path d="M109.48 81.5428C106.774 81.5428 104.581 83.7357 104.581 86.4414C104.581 89.1464 106.774 91.3396 109.48 91.3396C112.185 91.3396 114.378 89.1464 114.378 86.4414C114.378 83.7357 112.185 81.5428 109.48 81.5428Z" stroke="#FEBE73" stroke-width="3" stroke-miterlimit="10" stroke-linecap="round" stroke-linejoin="round"/>
<path d="M63.8963 109.476H14.0358C10.3967 109.476 7.44666 112.426 7.44666 116.065V131.261H136.553V116.065C136.553 112.426 133.603 109.476 129.964 109.476H73.7401" stroke="#FEBE73" stroke-width="3" stroke-miterlimit="10" stroke-linecap="round" stroke-linejoin="round"/>
<path d="M134.384 60.8979V53.6375C134.384 50.8177 132.077 48.5103 129.257 48.5103H125.4V83.3878H129.257C132.077 83.3878 134.384 81.0807 134.384 78.2609V70.7417" stroke="#FEBE73" stroke-width="3" stroke-miterlimit="10" stroke-linecap="round" stroke-linejoin="round"/>
</g>
<defs>
<clipPath id="clip0_584_7856">
<rect width="31.8248" height="19.8182" fill="white" transform="translate(56 111)"/>
</clipPath>
</defs>
</svg>
