<svg width="144" height="144" viewBox="0 0 144 144" fill="none" xmlns="http://www.w3.org/2000/svg">
<mask id="mask0_590_9237" style="mask-type:luminance" maskUnits="userSpaceOnUse" x="0" y="0" width="144" height="144">
<path d="M0 1.52588e-05H144V144H0V1.52588e-05Z" fill="white"/>
</mask>
<g mask="url(#mask0_590_9237)">
<path d="M53.795 2.10933H111.975C114.307 2.10933 116.197 3.99736 116.197 6.32639C116.197 8.65543 114.307 10.5435 111.975 10.5435H32.0251C29.693 10.5435 27.8024 8.65543 27.8024 6.32639C27.8024 3.99736 29.693 2.10933 32.0251 2.10933H43.9731" fill="black"/>
<path d="M53.795 2.10933H111.975C114.307 2.10933 116.197 3.99736 116.197 6.32639C116.197 8.65543 114.307 10.5435 111.975 10.5435H32.0251C29.693 10.5435 27.8024 8.65543 27.8024 6.32639C27.8024 3.99736 29.693 2.10933 32.0251 2.10933H43.9731" stroke="#FEBE73" stroke-width="3" stroke-miterlimit="10" stroke-linecap="round" stroke-linejoin="round"/>
<path d="M43.2806 84.9639H27.8023V81.147C27.8023 78.5969 29.8723 76.5295 32.4258 76.5295H111.574C114.128 76.5295 116.198 78.5969 116.198 81.147V84.9639H52.9433" fill="black"/>
<path d="M43.2806 84.9639H27.8023V81.147C27.8023 78.5969 29.8723 76.5295 32.4258 76.5295H111.574C114.128 76.5295 116.198 78.5969 116.198 81.147V84.9639H52.9433" stroke="#FEBE73" stroke-width="3" stroke-miterlimit="10" stroke-linecap="round" stroke-linejoin="round"/>
<path d="M111.975 59.0877V65.2842H32.0252V10.5436H111.975V49.3651" fill="black"/>
<path d="M111.975 59.0877V65.2842H32.0252V10.5436H111.975V49.3651" stroke="#FEBE73" stroke-width="3" stroke-miterlimit="10" stroke-linecap="round" stroke-linejoin="round"/>
<path d="M111.975 84.964V98.7056C111.975 112.653 100.653 123.96 86.6867 123.96H57.3132C43.3469 123.96 32.0252 112.653 32.0252 98.7056V84.964" fill="black"/>
<path d="M111.975 84.964V98.7056C111.975 112.653 100.653 123.96 86.6867 123.96H57.3132C43.3469 123.96 32.0252 112.653 32.0252 98.7056V84.964" stroke="#FEBE73" stroke-width="3" stroke-miterlimit="10" stroke-linejoin="round"/>
<path d="M55.2148 23.8117C55.2148 23.8117 47.5685 28.3086 45.0819 28.3086C42.5948 28.3086 40.5791 26.2951 40.5791 23.8117C40.5791 21.3282 42.5948 19.3151 45.0819 19.3151C47.5685 19.3151 55.2148 23.8117 55.2148 23.8117Z" fill="black" stroke="#FEBE73" stroke-width="3" stroke-miterlimit="10" stroke-linecap="round" stroke-linejoin="round"/>
<path d="M60.303 123.96L54.6726 141.891H89.3271L83.6968 123.96" fill="black"/>
<path d="M60.303 123.96L54.6726 141.891H89.3271L83.6968 123.96" stroke="#FEBE73" stroke-width="3" stroke-miterlimit="10" stroke-linejoin="round"/>
<path d="M96.2176 65.2838H47.7824V76.5293H96.2176V65.2838Z" fill="black" stroke="#FEBE73" stroke-width="3" stroke-miterlimit="10" stroke-linejoin="round"/>
<path d="M121.534 54.5892C127.172 54.5892 131.744 50.0242 131.744 44.3928C131.744 50.0242 136.315 54.5892 141.954 54.5892C136.315 54.5892 131.744 59.1542 131.744 64.7856C131.744 59.1542 127.172 54.5892 121.534 54.5892Z" fill="black" stroke="black" stroke-width="3" stroke-miterlimit="10" stroke-linecap="round" stroke-linejoin="round"/>
<path d="M124.666 30.7915H130.495H124.666Z" fill="black"/>
<path d="M124.666 30.7915H130.495" stroke="black" stroke-width="3" stroke-miterlimit="10" stroke-linecap="round" stroke-linejoin="round"/>
<path d="M127.581 33.7021V27.8808V33.7021Z" fill="black"/>
<path d="M127.581 33.7021V27.8808" stroke="black" stroke-width="3" stroke-miterlimit="10" stroke-linecap="round" stroke-linejoin="round"/>
<path d="M133.956 82.2407H139.785H133.956Z" fill="black"/>
<path d="M133.956 82.2407H139.785" stroke="black" stroke-width="3" stroke-miterlimit="10" stroke-linecap="round" stroke-linejoin="round"/>
<path d="M136.871 85.1514V79.3298V85.1514Z" fill="black"/>
<path d="M136.871 85.1514V79.3298" stroke="black" stroke-width="3" stroke-miterlimit="10" stroke-linecap="round" stroke-linejoin="round"/>
<path d="M22.5919 68.3651C16.9531 68.3651 12.3819 63.8001 12.3819 58.1686C12.3819 63.8001 7.81079 68.3651 2.17201 68.3651C7.81079 68.3651 12.3819 72.9301 12.3819 78.5615C12.3819 72.9301 16.9531 68.3651 22.5919 68.3651Z" fill="black" stroke="black" stroke-width="3" stroke-miterlimit="10" stroke-linecap="round" stroke-linejoin="round"/>
<path d="M19.4593 44.5674H13.6301H19.4593Z" fill="black"/>
<path d="M19.4593 44.5674H13.6301" stroke="black" stroke-width="3" stroke-miterlimit="10" stroke-linecap="round" stroke-linejoin="round"/>
<path d="M16.5447 47.478V41.6567V47.478Z" fill="black"/>
<path d="M16.5447 47.478V41.6567" stroke="black" stroke-width="3" stroke-miterlimit="10" stroke-linecap="round" stroke-linejoin="round"/>
<path d="M10.1694 96.0166H4.34016H10.1694Z" fill="black"/>
<path d="M10.1694 96.0166H4.34016" stroke="black" stroke-width="3" stroke-miterlimit="10" stroke-linecap="round" stroke-linejoin="round"/>
<path d="M7.25482 98.9272V93.1059V98.9272Z" fill="black"/>
<path d="M7.25482 98.9272V93.1059" stroke="black" stroke-width="3" stroke-miterlimit="10" stroke-linecap="round" stroke-linejoin="round"/>
<g clip-path="url(#clip0_590_9237)">
<path opacity="0.2" d="M66.6276 34.5196C67.2384 33.2982 68.1773 32.2707 69.3393 31.5523C70.5013 30.8338 71.8404 30.4527 73.2067 30.4517C74.5731 30.4506 75.9128 30.8296 77.0758 31.5462C78.2389 32.2629 79.1793 33.2888 79.7921 34.5093M66.6666 41.0964C67.2774 42.3179 68.2163 43.3453 69.3783 44.0637C70.5402 44.7822 71.8793 45.1634 73.2456 45.1644C74.612 45.1654 75.9517 44.7864 77.1149 44.0698C78.2778 43.3532 79.2184 42.3272 79.831 41.1067" stroke="#FEBE73"/>
<path d="M59.7745 35.2252C59.6123 35.2302 59.4796 35.2502 59.3764 35.2852C59.2781 35.3152 59.1995 35.3602 59.1405 35.4202C59.0865 35.4802 59.0496 35.5552 59.0299 35.6451C59.0103 35.7301 59.0004 35.8301 59.0004 35.9451V39.7542C59.0004 39.8792 58.998 39.9917 58.9931 40.0916C58.9931 40.1967 58.9882 40.2967 58.9783 40.3916C58.9685 40.4816 58.9537 40.5741 58.9341 40.669C58.9144 40.769 58.8776 40.869 58.8235 40.969C58.7203 41.164 58.5901 41.314 58.4328 41.4189C58.2755 41.5289 58.1158 41.6114 57.9536 41.6663C57.7914 41.7214 57.6391 41.7539 57.4965 41.7638C57.354 41.7788 57.2483 41.7863 57.1795 41.7863C56.8158 41.7863 56.5283 41.7189 56.317 41.5839C56.1057 41.4539 56 41.2865 56 41.0815C56 40.9565 56.0369 40.8516 56.1106 40.7665C56.1843 40.6815 56.2875 40.6391 56.4202 40.6391C56.5332 40.6391 56.6242 40.6715 56.693 40.7366C56.7618 40.8015 56.7962 40.869 56.7962 40.939C56.7962 40.994 56.7864 41.039 56.7667 41.074C56.747 41.1139 56.7372 41.1615 56.7372 41.2164C56.7372 41.3164 56.7692 41.3864 56.833 41.4264C56.892 41.4714 56.9485 41.5014 57.0026 41.5164C57.0763 41.5364 57.1574 41.5463 57.2459 41.5463C57.4621 41.5463 57.6292 41.5089 57.7472 41.4339C57.8651 41.3589 57.9536 41.2564 58.0126 41.1264C58.0715 40.9965 58.106 40.8441 58.1158 40.669C58.1305 40.4941 58.1379 40.3092 58.1379 40.1142V35.9451C58.1379 35.8201 58.1256 35.7126 58.101 35.6226C58.0814 35.5327 58.0421 35.4602 57.9831 35.4052C57.9241 35.3502 57.8406 35.3077 57.7324 35.2777C57.6292 35.2477 57.4965 35.2302 57.3343 35.2252V35.0303H59.7745V35.2252Z" fill="#FEBE73"/>
<path d="M65.5384 37.5124C65.5384 37.8423 65.4794 38.1622 65.3614 38.4722C65.2484 38.7821 65.0788 39.0571 64.8527 39.297C64.6267 39.532 64.3441 39.7219 64.0049 39.8669C63.6658 40.0119 63.2726 40.0843 62.8254 40.0843C62.3389 40.0843 61.9236 40.0044 61.5795 39.8444C61.2355 39.6845 60.9529 39.482 60.7317 39.237C60.5106 38.9871 60.3484 38.7096 60.2452 38.4047C60.1469 38.0948 60.0977 37.7948 60.0977 37.5049C60.0977 37.185 60.1518 36.8725 60.2599 36.5676C60.373 36.2576 60.5401 35.9827 60.7612 35.7428C60.9824 35.5028 61.2601 35.3103 61.5943 35.1654C61.9334 35.0154 62.3315 34.9404 62.7885 34.9404C63.1572 34.9404 63.4815 34.9829 63.7617 35.0679C64.0418 35.1529 64.2826 35.2654 64.4841 35.4053C64.6856 35.5453 64.8552 35.7078 64.9928 35.8927C65.1304 36.0727 65.2385 36.2576 65.3172 36.4476C65.3958 36.6376 65.4523 36.825 65.4868 37.01C65.5212 37.195 65.5384 37.3624 65.5384 37.5124ZM64.5579 37.4974C64.5579 37.2324 64.5333 36.965 64.4841 36.6951C64.4399 36.4201 64.3539 36.1727 64.2261 35.9527C64.0983 35.7278 63.9214 35.5453 63.6953 35.4053C63.4692 35.2654 63.1793 35.1954 62.8254 35.1954C62.4519 35.1954 62.1496 35.2704 61.9186 35.4203C61.6876 35.5653 61.5107 35.7528 61.3878 35.9827C61.265 36.2077 61.1814 36.4551 61.1372 36.7251C61.0979 36.995 61.0782 37.2524 61.0782 37.4974C61.0782 37.5974 61.0831 37.7248 61.093 37.8798C61.1028 38.0348 61.1249 38.1997 61.1593 38.3747C61.1937 38.5447 61.2478 38.7171 61.3215 38.8921C61.4001 39.0671 61.5033 39.2245 61.6311 39.3645C61.7589 39.4995 61.9211 39.6119 62.1177 39.7019C62.3143 39.7869 62.5526 39.8294 62.8328 39.8294C63.108 39.8294 63.3414 39.7844 63.5331 39.6944C63.7248 39.6044 63.8845 39.4895 64.0123 39.3495C64.1401 39.2095 64.2408 39.0521 64.3146 38.8771C64.3883 38.7021 64.4424 38.5272 64.4768 38.3522C64.5112 38.1772 64.5333 38.0148 64.5431 37.8648C64.5529 37.7148 64.5579 37.5924 64.5579 37.4974Z" fill="#FEBE73"/>
<path d="M69.8957 38.7346C69.8957 38.8795 69.8711 39.012 69.822 39.132C69.7728 39.252 69.7089 39.3569 69.6303 39.4469C69.5565 39.5369 69.473 39.6119 69.3796 39.6718C69.2862 39.7319 69.1929 39.7743 69.0995 39.7993C68.9323 39.8494 68.7407 39.8943 68.5245 39.9343C68.3132 39.9744 68.1215 39.9943 67.9495 39.9943H65.4871V39.8369C65.6493 39.8269 65.7772 39.8043 65.8705 39.7693C65.9687 39.7344 66.045 39.6869 66.099 39.6269C66.1531 39.5619 66.1875 39.4869 66.2023 39.4019C66.2219 39.312 66.2318 39.2145 66.2318 39.1095V35.8627C66.2318 35.7577 66.2244 35.6652 66.2097 35.5853C66.1949 35.5053 66.1604 35.4353 66.1064 35.3753C66.0573 35.3153 65.9836 35.2678 65.8852 35.2328C65.787 35.1978 65.6543 35.1778 65.4871 35.1728V35.0079L66.733 34.9779C66.9984 34.9679 67.222 34.9629 67.4039 34.9629C67.5906 34.9629 67.7479 34.9654 67.8757 34.9704C68.0035 34.9754 68.1068 34.9804 68.1853 34.9854C68.2689 34.9904 68.3451 34.9979 68.4139 35.0079C68.8267 35.0579 69.1388 35.1878 69.3501 35.3978C69.5663 35.6077 69.6745 35.8552 69.6745 36.1401C69.6745 36.2751 69.65 36.4026 69.6008 36.5226C69.5565 36.6425 69.4779 36.7525 69.3648 36.8525C69.2518 36.9525 69.0995 37.0424 68.9078 37.1224C68.721 37.2024 68.4851 37.2724 68.2001 37.3324C68.5146 37.3824 68.7801 37.4499 68.9963 37.5348C69.2125 37.6198 69.387 37.7223 69.5197 37.8423C69.6524 37.9572 69.7482 38.0897 69.8072 38.2397C69.8662 38.3897 69.8957 38.5546 69.8957 38.7346ZM68.8194 36.1701C68.8194 35.9802 68.7825 35.8227 68.7087 35.6977C68.6399 35.5728 68.5466 35.4728 68.4286 35.3978C68.3156 35.3228 68.1853 35.2703 68.0379 35.2403C67.8953 35.2103 67.7479 35.1953 67.5956 35.1953H67.0796V37.2424H67.4186C67.5906 37.2424 67.7479 37.2349 67.8904 37.2199C68.0379 37.1999 68.1829 37.1499 68.3254 37.0699C68.4777 36.985 68.5982 36.8625 68.6866 36.7025C68.7751 36.5376 68.8194 36.3601 68.8194 36.1701ZM68.9595 38.6746C68.9595 38.6046 68.952 38.5246 68.9373 38.4346C68.9274 38.3447 68.9029 38.2522 68.8636 38.1572C68.8292 38.0622 68.7801 37.9697 68.7161 37.8798C68.6571 37.7848 68.5785 37.7048 68.4802 37.6398C68.377 37.5698 68.2443 37.5248 68.0821 37.5048C67.9249 37.4798 67.7676 37.4673 67.6103 37.4673H67.0796V38.8096C67.0796 38.9595 67.082 39.0945 67.0869 39.2145C67.0967 39.3294 67.1238 39.4294 67.168 39.5144C67.2171 39.5944 67.2933 39.6568 67.3965 39.7019C67.4998 39.7469 67.6447 39.7693 67.8315 39.7693C67.8905 39.7693 67.9814 39.7619 68.1042 39.7469C68.232 39.7319 68.3574 39.6894 68.4802 39.6194C68.608 39.5494 68.7185 39.4419 68.812 39.297C68.9102 39.147 68.9595 38.9395 68.9595 38.6746Z" fill="#FEBE73"/>
<path d="M70.4914 39.9942V39.7992C70.6585 39.7942 70.7938 39.7742 70.8969 39.7393C71.0002 39.7043 71.0812 39.6567 71.1402 39.5968C71.1992 39.5368 71.2386 39.4643 71.2581 39.3793C71.2778 39.2894 71.2876 39.1869 71.2876 39.0719V35.9526C71.2876 35.8426 71.2778 35.7451 71.2581 35.6601C71.2386 35.5702 71.1992 35.4952 71.1402 35.4352C71.0861 35.3752 71.0076 35.3277 70.9043 35.2927C70.8011 35.2527 70.6634 35.2302 70.4914 35.2252V35.0303H72.939V35.2252C72.7718 35.2302 72.6369 35.2502 72.5336 35.2852C72.4303 35.3202 72.3493 35.3677 72.2902 35.4277C72.2312 35.4877 72.192 35.5627 72.1722 35.6526C72.1527 35.7376 72.1428 35.8376 72.1428 35.9526V39.0719C72.1428 39.1819 72.1527 39.2794 72.1722 39.3644C72.192 39.4493 72.2288 39.5243 72.2829 39.5893C72.3419 39.6493 72.423 39.6968 72.5262 39.7318C72.6293 39.7667 72.7669 39.7892 72.939 39.7992V39.9942H70.4914Z" fill="#7F6134"/>
<path d="M76.9452 38.6146C76.9452 38.7646 76.9134 38.9271 76.8494 39.102C76.7856 39.272 76.6873 39.432 76.5546 39.582C76.4267 39.7269 76.2646 39.8469 76.068 39.9418C75.8763 40.0368 75.6502 40.0843 75.3897 40.0843C75.2669 40.0843 75.1391 40.0693 75.0065 40.0393C74.8786 40.0144 74.7484 39.9719 74.6156 39.9119C74.483 39.8469 74.3503 39.7619 74.2175 39.6569C74.0898 39.552 73.9645 39.422 73.8416 39.267C73.7974 39.367 73.7556 39.4695 73.7163 39.5745C73.6819 39.6795 73.6523 39.7869 73.6278 39.8969H73.4803V38.3522H73.6351C73.6892 38.4922 73.7606 38.6471 73.8489 38.8171C73.9424 38.9871 74.0554 39.1445 74.188 39.2895C74.3257 39.4295 74.483 39.5494 74.6599 39.6494C74.8417 39.7444 75.0482 39.7919 75.2792 39.7919C75.5986 39.7919 75.8321 39.7194 75.9795 39.5745C76.1319 39.4295 76.2082 39.247 76.2082 39.0271C76.2082 38.7971 76.1367 38.6121 75.9944 38.4722C75.8517 38.3322 75.6478 38.1922 75.3825 38.0523C75.3676 38.0423 75.3308 38.0248 75.2718 37.9998C75.2128 37.9698 75.1465 37.9398 75.0727 37.9098C74.999 37.8748 74.9278 37.8398 74.8589 37.8048C74.7901 37.7698 74.7386 37.7448 74.7042 37.7298C74.4141 37.5949 74.1857 37.4624 74.0186 37.3324C73.8565 37.2025 73.7335 37.0775 73.6499 36.9575C73.5713 36.8325 73.5222 36.7151 73.5025 36.6051C73.4877 36.4901 73.4803 36.3826 73.4803 36.2826C73.4803 36.1077 73.5148 35.9402 73.5836 35.7803C73.6573 35.6153 73.7581 35.4728 73.8858 35.3529C74.0137 35.2279 74.1659 35.1279 74.3429 35.0529C74.5248 34.9779 74.7238 34.9404 74.9399 34.9404C75.1661 34.9404 75.3848 34.9954 75.5963 35.1054C75.8124 35.2154 76.0286 35.3978 76.2449 35.6528C76.299 35.5328 76.3333 35.4328 76.3482 35.3529C76.3677 35.2729 76.3899 35.1879 76.4144 35.0979H76.5766V36.3951H76.4071C76.3776 36.3101 76.3259 36.2002 76.2523 36.0652C76.1834 35.9302 76.0926 35.8002 75.9795 35.6753C75.8665 35.5453 75.7289 35.4353 75.5668 35.3454C75.4046 35.2504 75.2152 35.2029 74.999 35.2029C74.886 35.2029 74.7755 35.2154 74.6673 35.2404C74.5591 35.2654 74.4633 35.3079 74.3797 35.3678C74.3011 35.4228 74.2373 35.4953 74.188 35.5853C74.139 35.6703 74.1144 35.7753 74.1144 35.9002C74.1144 36.0452 74.1464 36.1702 74.2103 36.2751C74.2741 36.3751 74.3625 36.4676 74.4756 36.5526C74.5789 36.6326 74.7066 36.71 74.8589 36.785C74.9327 36.825 75.0088 36.865 75.0875 36.905C75.1661 36.945 75.2521 36.985 75.3454 37.025C75.5668 37.13 75.773 37.2324 75.9649 37.3324C76.1614 37.4324 76.331 37.5449 76.4735 37.6699C76.6209 37.7898 76.7363 37.9273 76.8199 38.0823C76.9035 38.2322 76.9452 38.4097 76.9452 38.6146Z" fill="#7F6134"/>
<path d="M82.1706 36.335C82.1361 36.0751 82.0771 35.8751 81.9935 35.7351C81.91 35.5951 81.8167 35.4927 81.7134 35.4277C81.6103 35.3577 81.5021 35.3177 81.3891 35.3077C81.2809 35.2927 81.1851 35.2852 81.1015 35.2852H80.4158V39.0719C80.4158 39.1769 80.4234 39.2719 80.438 39.3568C80.4529 39.4418 80.4847 39.5168 80.5339 39.5818C80.588 39.6468 80.6641 39.6968 80.7624 39.7318C80.8607 39.7667 80.991 39.7892 81.1532 39.7992V39.9942H78.8236V39.7992C78.9808 39.7892 79.1086 39.7692 79.2069 39.7393C79.3052 39.7043 79.3789 39.6567 79.4281 39.5968C79.4822 39.5318 79.5167 39.4568 79.5313 39.3718C79.5509 39.2819 79.5608 39.1819 79.5608 39.0719V35.2852H78.9784C78.8654 35.2852 78.7449 35.2927 78.6172 35.3077C78.4894 35.3177 78.3689 35.3552 78.256 35.4202C78.143 35.4852 78.0446 35.5902 77.961 35.7351C77.8824 35.8751 77.8308 36.0751 77.8062 36.335H77.6514V35.0303H82.3253V36.335H82.1706Z" fill="#FEBE73"/>
<path d="M87.8248 37.5124C87.8248 37.8423 87.7659 38.1622 87.6479 38.4722C87.5349 38.7821 87.3652 39.0571 87.1391 39.297C86.913 39.532 86.6305 39.7219 86.2914 39.8669C85.9524 40.0119 85.5592 40.0843 85.1119 40.0843C84.6253 40.0843 84.2099 40.0044 83.866 39.8444C83.522 39.6845 83.2393 39.482 83.0183 39.237C82.7971 38.9871 82.6349 38.7096 82.5316 38.4047C82.4334 38.0948 82.3842 37.7948 82.3842 37.5049C82.3842 37.185 82.4383 36.8725 82.5464 36.5676C82.6594 36.2576 82.8266 35.9827 83.0476 35.7428C83.2689 35.5028 83.5465 35.3103 83.8807 35.1654C84.2198 35.0154 84.6179 34.9404 85.075 34.9404C85.4436 34.9404 85.7681 34.9829 86.0481 35.0679C86.3283 35.1529 86.5692 35.2654 86.7707 35.4053C86.9721 35.5453 87.1417 35.7078 87.2793 35.8927C87.4169 36.0727 87.5249 36.2576 87.6036 36.4476C87.6823 36.6376 87.7387 36.825 87.7732 37.01C87.8076 37.195 87.8248 37.3624 87.8248 37.5124ZM86.8443 37.4974C86.8443 37.2324 86.8197 36.965 86.7707 36.6951C86.7264 36.4201 86.6404 36.1727 86.5126 35.9527C86.3849 35.7278 86.2078 35.5453 85.9817 35.4053C85.7558 35.2654 85.4657 35.1954 85.1119 35.1954C84.7384 35.1954 84.4362 35.2704 84.2052 35.4203C83.9742 35.5653 83.7972 35.7528 83.6744 35.9827C83.5515 36.2077 83.4679 36.4551 83.4236 36.7251C83.3844 36.995 83.3647 37.2524 83.3647 37.4974C83.3647 37.5974 83.3696 37.7248 83.3795 37.8798C83.3893 38.0348 83.4113 38.1997 83.4457 38.3747C83.4801 38.5447 83.5342 38.7171 83.6079 38.8921C83.6866 39.0671 83.7899 39.2245 83.9176 39.3645C84.0455 39.4995 84.2076 39.6119 84.4042 39.7019C84.6008 39.7869 84.8391 39.8294 85.1193 39.8294C85.3944 39.8294 85.6279 39.7844 85.8196 39.6944C86.0112 39.6044 86.1711 39.4895 86.2988 39.3495C86.4265 39.2095 86.5274 39.0521 86.601 38.8771C86.6748 38.7021 86.7287 38.5272 86.7632 38.3522C86.7976 38.1772 86.8197 38.0148 86.8296 37.8648C86.8394 37.7148 86.8443 37.5924 86.8443 37.4974Z" fill="#FEBE73"/>
</g>
</g>
<defs>
<clipPath id="clip0_590_9237">
<rect width="31.8248" height="19.8182" fill="white" transform="translate(56 28)"/>
</clipPath>
</defs>
</svg>
