<svg width="20" height="20" viewBox="0 0 20 20" fill="none" xmlns="http://www.w3.org/2000/svg">
<g clip-path="url(#clip0_404_7677)">
<path d="M10 10.7317C8.38623 10.7317 7.07318 9.41864 7.07318 7.80486C7.07318 6.19108 8.38623 4.87803 10 4.87803C11.6138 4.87803 12.9268 6.19108 12.9268 7.80486C12.9268 9.41864 11.6138 10.7317 10 10.7317Z" stroke="white" stroke-miterlimit="10" stroke-linecap="round" stroke-linejoin="round"/>
<path d="M4.53601 17.1697C4.53638 17.1649 4.53674 17.1602 4.53747 17.1554C4.80272 14.372 7.14707 12.1952 10 12.1952C12.853 12.1952 15.1969 14.3716 15.463 17.155" stroke="white" stroke-miterlimit="10" stroke-linecap="round" stroke-linejoin="round"/>
<path d="M17.0976 4.00011C17.0976 4.20217 16.9337 4.36597 16.7317 4.36597C16.5297 4.36597 16.3658 4.20217 16.3658 4.00011C16.3658 3.79805 16.5297 3.63426 16.7317 3.63426C16.9337 3.63426 17.0976 3.79805 17.0976 4.00011Z" fill="white"/>
<path d="M17.6983 5.332C18.5245 6.69257 19 8.29018 19 10C19 12.9191 17.6138 15.5116 15.4629 17.155V17.1554C13.9487 18.3129 12.0554 19 10 19C7.945 19 6.05171 18.3129 4.53747 17.1554C2.38658 15.512 1 12.9195 1 10C1 5.02585 5.02512 1 10 1C12.0806 1 13.9954 1.70427 15.5189 2.88773" stroke="white" stroke-miterlimit="10" stroke-linecap="round" stroke-linejoin="round"/>
</g>
<defs>
<clipPath id="clip0_404_7677">
<rect width="20" height="20" fill="white"/>
</clipPath>
</defs>
</svg>
