<svg width="32" height="32" viewBox="0 0 32 32" fill="none" xmlns="http://www.w3.org/2000/svg">
<path d="M24.4385 16.0996C23.1933 16.0996 22.0251 16.4279 21.015 17.0021L18.5041 16.2556L18.9815 18.7532C18.0547 19.9325 17.502 21.4197 17.502 23.0362C17.502 26.2771 19.725 29 22.7303 29.7605C23.8453 30.0437 25.0316 30.0437 26.1466 29.7605C29.152 29 31.375 26.277 31.375 23.0362C31.375 19.2048 28.2698 16.0996 24.4385 16.0996Z" stroke="white" stroke-miterlimit="10" stroke-linecap="round" stroke-linejoin="round"/>
<path d="M22.651 26.5356L22.6504 26.5363V26.5369L22.3792 29.6621C23.0298 29.8641 23.722 29.9728 24.4387 29.9728C25.156 29.9728 25.8488 29.8641 26.4995 29.6614L26.2282 26.5369L26.2268 26.5363C27.4861 25.8875 28.3472 24.5752 28.3472 23.0608C28.3472 21.4778 27.4052 20.1137 26.052 19.4999L25.7859 19.3951V23.0608H23.068V19.3931L22.7779 19.5219C21.45 20.1466 20.53 21.4966 20.53 23.0608C20.53 24.5752 21.3924 25.8869 22.651 26.5356Z" stroke="white" stroke-miterlimit="10" stroke-linecap="round" stroke-linejoin="round"/>
<path d="M7.79232 2.02734H2.58545C2.58545 4.14759 4.30426 5.86641 6.42451 5.86641H15.5254V9.70547H21.4958V5.16703L18.3561 2.02734H13.3296" stroke="white" stroke-miterlimit="10" stroke-linecap="round" stroke-linejoin="round"/>
<path d="M22.7168 9.70557V16.3146C22.114 16.4683 21.5426 16.7014 21.0148 17.0019L18.5039 16.2554L18.9814 18.7531C18.0548 19.9323 17.5018 21.4195 17.5018 23.0359C17.5018 24.1137 17.7474 25.1335 18.1858 26.0431H14.063V21.9279L6.07125 16.1018V19.0094H0.625V14.9799C0.625 13.9632 1.02875 12.9887 1.7475 12.27C2.46625 11.5506 3.44131 11.1469 4.458 11.1469H7.87406C8.43975 11.1469 8.99844 11.2723 9.50994 11.5141L14.063 14.6391V9.70557H22.7168Z" stroke="white" stroke-miterlimit="10" stroke-linecap="round" stroke-linejoin="round"/>
<path d="M3.19203 21.4106L1.80359 23.9439C1.67378 24.1808 1.60571 24.4465 1.60571 24.7166V24.7335C1.60571 25.6215 2.32553 26.3413 3.21346 26.3413H3.24553C4.13346 26.3413 4.85328 25.6215 4.85328 24.7335C4.85328 24.4527 4.77971 24.1768 4.6399 23.9332L3.19203 21.4106Z" stroke="white" stroke-miterlimit="10" stroke-linecap="round" stroke-linejoin="round"/>
<circle cx="10.6201" cy="2.02734" r="0.625" fill="white"/>
</svg>
